<svg xmlns="http://www.w3.org/2000/svg" xmlns:xlink="http://www.w3.org/1999/xlink" viewBox="0 0 420 206.3"><defs><style>.cls-1{opacity:0.1;}.cls-2{fill:#231f20;}.cls-3{opacity:0.27;isolation:isolate;}.cls-4{fill:#dcf8c6;}.cls-5{fill:#fff;}.cls-6{fill:#9a9a9a;}</style></defs><g id="Capa_2" data-name="Capa 2"><g id="Capa_1-2" data-name="Capa 1"><g class="cls-1"><path class="cls-2" d="M414.2.9h-97c-1.7,0-3,2.7-3,6.1V23.9c0,3.4,1.4,6.1,3,6.1h90.7c1.7,0,3-2.7,3-6.1V12.2l3.6-9.9C414.7,1.7,414.5.9,414.2.9Z"/></g><image class="cls-3" width="107" height="36" transform="translate(313 1.3)" xlink:href="../3047FEFC.png"/><path class="cls-4" d="M414.2,0h-97c-1.7,0-3,2.7-3,6.1V23c0,3.4,1.4,6.1,3,6.1h90.7c1.7,0,3-2.7,3-6.1V11.3l3.6-9.9C414.7.8,414.5,0,414.2,0Z"/><image class="cls-3" width="313" height="158" transform="translate(0 48.3)" xlink:href="../3047FEFF.png"/><g class="cls-1"><path class="cls-2" d="M3,49.8h9.9l284.8-.4c5.1,0,9.2,6.2,9.3,13.9l.2,120.2c0,7.7-4.1,13.9-9.2,13.9l-275.6.4c-5.1,0-9.2-6.2-9.3-13.9L13,75.6,2,53C1.3,51.6,1.9,49.8,3,49.8Z"/></g><path class="cls-5" d="M3,47.7h9.9l284.8-.4c5.1,0,9.2,6.2,9.3,13.9l.2,120.2c0,7.7-4.1,13.9-9.2,13.9l-275.6.4c-5.1,0-9.2-6.2-9.3-13.9L13,73.5,2,50.9C1.2,49.5,1.9,47.7,3,47.7Z"/><path class="cls-6" d="M250.4,188.2l.4-3.8h3.4v.8h-2.6l-.2,2a2.186,2.186,0,0,1,.5-.3,1.268,1.268,0,0,1,.6-.1,2.035,2.035,0,0,1,1.5.6,2.311,2.311,0,0,1,.5,1.7,3.1,3.1,0,0,1-.5,1.7,2.111,2.111,0,0,1-1.6.6,1.978,1.978,0,0,1-1.4-.5,2.026,2.026,0,0,1-.6-1.4h.8a1.222,1.222,0,0,0,.3.9,1.135,1.135,0,0,0,.8.3.975.975,0,0,0,.9-.4,2.167,2.167,0,0,0,0-2.2.975.975,0,0,0-.9-.4,1.549,1.549,0,0,0-.8.2,1,1,0,0,0-.4.5Z"/><path class="cls-6" d="M256.7,187.1h-.9v-.9h.9Zm0,4.2h-.9v-.9h.9Z"/><path class="cls-6" d="M260.8,191.2h-.9v-6h-1.5v-.7l2.4-.3Z"/><path class="cls-6" d="M267.6,186.1a1.222,1.222,0,0,1-.3.9,1.555,1.555,0,0,1-.8.6,1.456,1.456,0,0,1,.9.6,1.777,1.777,0,0,1,.4,1,2.035,2.035,0,0,1-.6,1.5,2.81,2.81,0,0,1-3.2,0,1.755,1.755,0,0,1-.6-1.5,1.284,1.284,0,0,1,.4-1,1.7,1.7,0,0,1,1-.6,1.242,1.242,0,0,1-.8-.6,1.613,1.613,0,0,1-.3-.9,1.678,1.678,0,0,1,.6-1.4,2.456,2.456,0,0,1,1.5-.5,1.978,1.978,0,0,1,1.4.5A3.255,3.255,0,0,1,267.6,186.1Zm-.7,3.2a.975.975,0,0,0-.4-.9,1.489,1.489,0,0,0-.9-.4,1.284,1.284,0,0,0-1,.4,1.212,1.212,0,0,0,0,1.8,1.689,1.689,0,0,0,1,.3.975.975,0,0,0,.9-.4C266.7,189.8,266.9,189.7,266.9,189.3Zm-.2-3.1a1.032,1.032,0,1,0-.3.8A1.135,1.135,0,0,0,266.7,186.2Z"/><path class="cls-6" d="M272.4,188.5v2.7h-.9v-6.8h2.6a2.352,2.352,0,0,1,1.7.6,2.175,2.175,0,0,1,0,3,2.352,2.352,0,0,1-1.7.6Zm0-.7h1.7a1.053,1.053,0,0,0,1-.4,1.4,1.4,0,0,0,.3-.9,1.222,1.222,0,0,0-.3-.9,1.159,1.159,0,0,0-1-.4h-1.7Z"/><path class="cls-6" d="M281,189.9h0l2.2-5.6h1.2v6.8h-.9V186h0l-2.1,5.1h-.6l-2.1-5.3h0v5.3h-.9v-6.8H279Z"/><path class="cls-6" d="M365.5,20.8l.4-3.8h3.4v.8h-2.6l-.2,2a2.186,2.186,0,0,1,.5-.3,1.268,1.268,0,0,1,.6-.1,2.035,2.035,0,0,1,1.5.6,2.311,2.311,0,0,1,.5,1.7,3.1,3.1,0,0,1-.5,1.7,2.111,2.111,0,0,1-1.6.6,1.978,1.978,0,0,1-1.4-.5,1.678,1.678,0,0,1-.6-1.4h.8a1.222,1.222,0,0,0,.3.9,1.135,1.135,0,0,0,.8.3.975.975,0,0,0,.9-.4,2.167,2.167,0,0,0,0-2.2.975.975,0,0,0-.9-.4,1.549,1.549,0,0,0-.8.2,1,1,0,0,0-.4.5Z"/><path class="cls-6" d="M371.8,19.8h-.9v-.9h.9Zm0,4.1h-.9V23h.9Z"/><path class="cls-6" d="M375.8,23.9h-.9v-6h-1.5v-.7l2.4-.3Z"/><path class="cls-6" d="M382.7,18.8a1.222,1.222,0,0,1-.3.9,1.555,1.555,0,0,1-.8.6,1.456,1.456,0,0,1,.9.6,1.777,1.777,0,0,1,.4,1,2.035,2.035,0,0,1-.6,1.5,2.81,2.81,0,0,1-3.2,0,1.755,1.755,0,0,1-.6-1.5,1.284,1.284,0,0,1,.4-1,1.7,1.7,0,0,1,1-.6,1.242,1.242,0,0,1-.8-.6,1.613,1.613,0,0,1-.3-.9,1.678,1.678,0,0,1,.6-1.4,2.456,2.456,0,0,1,1.5-.5,1.978,1.978,0,0,1,1.4.5A2.588,2.588,0,0,1,382.7,18.8Zm-.8,3.2a.975.975,0,0,0-.4-.9,1.268,1.268,0,0,0-.9-.4,1.284,1.284,0,0,0-1,.4,1.086,1.086,0,0,0-.4.9.975.975,0,0,0,.4.9,1.689,1.689,0,0,0,1,.3.975.975,0,0,0,.9-.4A.909.909,0,0,0,381.9,22Zm-.2-3.2a1.032,1.032,0,1,0-.3.8A1.135,1.135,0,0,0,381.7,18.8Z"/><path class="cls-6" d="M387.4,21.1v2.7h-.9V17h2.6a2.352,2.352,0,0,1,1.7.6,2.175,2.175,0,0,1,0,3,2.352,2.352,0,0,1-1.7.6Zm0-.7h1.7a1.053,1.053,0,0,0,1-.4,1.4,1.4,0,0,0,.3-.9,1.222,1.222,0,0,0-.3-.9,1.159,1.159,0,0,0-1-.4h-1.7Z"/><path class="cls-6" d="M396,22.6h0l2.2-5.6h1.2v6.8h-.9V18.7h0l-2.1,5.1h-.6l-2.1-5.3h0v5.3h-.9V17H394Z"/><path d="M324.3,16c0,1.1.7,2.5,2.9,2.5,2.5,0,2.7-1.5,2.7-2.1,0-1.3-1.2-1.7-2.2-1.9a5.019,5.019,0,0,0-1.2-.2c-1.1-.2-2.7-.6-2.7-2.3,0-1.1.6-2.6,3.3-2.6,2.4,0,3.1,1.5,3.2,2.6h-.7A2.3,2.3,0,0,0,327,9.9c-1.7,0-2.6.8-2.6,2,0,1.3,1.1,1.6,2.6,1.9,1.1.2,3.5.5,3.5,2.7,0,1-.4,2.7-3.3,2.7s-3.6-1.7-3.6-3.1h.7Z"/><path d="M332,18.9h-.7l3.5-9.2h.8l3.5,9.2h-.7l-1.1-3h-4.2Zm5.1-3.5-1.9-5.1-1.9,5.1Z"/><path d="M343.4,9.7c.8,0,4.3,0,4.3,4.6,0,3.9-2.3,4.6-4.9,4.6h-2.4V9.7ZM341,18.3h1.9c1.7,0,4.1-.3,4.1-4,0-3.6-2.4-4-3.6-4H341Z"/><path d="M354.7,13.9v.6h-4.5V19h-.6V9.8h5.7v.6h-5.1V14h4.5Z"/><path d="M23.7,63.4l-.1-8.1-1.7,8.1H20l2-9.6h2.9l.3,7.4,3.3-7.4h2.9l-2,9.6H27.5l1.7-8.1-3.5,8.1Z"/><path d="M33.4,61.7h5.2l-.4,1.6H31l2-9.6h6.9l-.4,1.6h-5L34,57.5h4.6l-.3,1.6H34Z"/><path d="M43.6,63.4h-2l1.7-7.9H40.4l.4-1.6h7.7l-.4,1.6H45.3Z"/><path d="M49.4,61.4l-1.1,1.9h-2l5.3-9.6h2.3l1.3,9.6h-2L53,61.4Zm2.9-5.3-2,3.7h2.5Z"/><path d="M62.6,60.3c0-.5-.4-.7-1.1-.7H59.2l-.8,3.8h-2l2-9.6h5a2.021,2.021,0,0,1,2.3,2,3.4,3.4,0,0,1-2.2,3c.7.2,1,.6,1,1.1,0,.8-.4,2.2-.4,2.7a.52.52,0,0,0,.2.4l-.1.4H62.1a1.087,1.087,0,0,1-.1-.5C62.1,62,62.6,60.8,62.6,60.3Zm-.3-4.9H60.1l-.5,2.5H62c1.5,0,1.8-1,1.8-1.6C63.8,55.6,63.1,55.4,62.3,55.4Z"/><path d="M66.3,56.7H67v1h-.7Zm0,5.7H67v1h-.7Z"/><path d="M21.3,71.1h0v8h-1V69.9h1.5l3.1,7.9L28,69.9h1.5v9.2h-1v-8h0l-3.2,8h-.8Z"/><path d="M37.8,74v.8H32.9v3.5h5.5v.8H31.9V69.9h6.3v.8H32.8v3.2h5Z"/><path d="M39.2,70.8V70h7.1v.8h-3v8.4h-1V70.8Z"/><path d="M46.9,79.1H45.8l3.5-9.2h1.1l3.5,9.2H52.8l-1-2.6h-4Zm4.7-3.4-1.7-4.8-1.7,4.8Z"/><path d="M55.1,69.9H59a3.145,3.145,0,0,1,2.4.7,2.442,2.442,0,0,1,.6,1.7,2.026,2.026,0,0,1-.6,1.6,2.268,2.268,0,0,1-1.1.7h0a1.915,1.915,0,0,1,.8.4,2.155,2.155,0,0,1,.5,1.7v1A1.915,1.915,0,0,0,62,79H60.9a1.919,1.919,0,0,1-.3-1.2v-1a1.651,1.651,0,0,0-.5-1.5,2.421,2.421,0,0,0-1.3-.4H55.9v4h-1v-9Zm1,4.4h2.8a2.767,2.767,0,0,0,1.6-.5,1.978,1.978,0,0,0,.5-1.4,1.364,1.364,0,0,0-.5-1.2,2.68,2.68,0,0,0-1.7-.4H56v3.5Z"/><path d="M67.8,76.2a2.168,2.168,0,0,0,.6,1.6,3.139,3.139,0,0,0,2.1.7,2.883,2.883,0,0,0,1.9-.6,1.656,1.656,0,0,0,.5-1.2,2.1,2.1,0,0,0-.4-1.1,2.743,2.743,0,0,0-1.8-.7l-.9-.2a4,4,0,0,1-2.3-1,1.91,1.91,0,0,1-.5-1.5,2.452,2.452,0,0,1,1.1-2.1,4.866,4.866,0,0,1,2.3-.6,3.484,3.484,0,0,1,2.5.8,2.9,2.9,0,0,1,.8,1.8h-1a2.618,2.618,0,0,0-.6-1.3,3.257,3.257,0,0,0-3.3-.1,1.6,1.6,0,0,0-.8,1.4,1.1,1.1,0,0,0,.4.9,2.928,2.928,0,0,0,1.6.7l.9.2a4.088,4.088,0,0,1,2.4,1,2.451,2.451,0,0,1,.7,1.7,2.792,2.792,0,0,1-.8,2,3.951,3.951,0,0,1-2.6.8,4.048,4.048,0,0,1-3-1,3.017,3.017,0,0,1-.9-2.2Z"/><path d="M75.8,79.1H74.7l3.5-9.2h1.1l3.5,9.2H81.7l-1-2.6h-4Zm4.7-3.4-1.7-4.8-1.7,4.8Z"/><path d="M87.3,69.9a4.408,4.408,0,0,1,3.1,1,4.865,4.865,0,0,1,1.3,3.6,5.01,5.01,0,0,1-1.3,3.7,4.705,4.705,0,0,1-3.2,1H84.1V70h3.2ZM85,78.3h1.8a3.616,3.616,0,0,0,2.8-.9,4.223,4.223,0,0,0,1-2.9,4.5,4.5,0,0,0-1-3,3.1,3.1,0,0,0-2.3-.8H85Z"/><path d="M98.9,74v.8H94.5v4.3h-1V69.9h6v.8h-5V74Z"/><path d="M104.6,78.6a6.7,6.7,0,0,1-1.2-4.2,5.96,5.96,0,0,1,1.2-4,2.732,2.732,0,0,1,1.9-.8,2.568,2.568,0,0,1,2,.8,5.972,5.972,0,0,1,1.2,4,6.2,6.2,0,0,1-1.2,4.2,2.4,2.4,0,0,1-1.9.7A2.2,2.2,0,0,1,104.6,78.6Zm3.2-.5c.3-.3,1-1.2,1-3.5a5.183,5.183,0,0,0-1-3.5,1.656,1.656,0,0,0-1.2-.5,2.226,2.226,0,0,0-1.3.5c-.8.8-.9,2.5-.9,3.5a5.345,5.345,0,0,0,1,3.5,1.69,1.69,0,0,0,2.4,0Z"/><path d="M111.9,73.4a2.01,2.01,0,0,1-.4-1.3,2.413,2.413,0,0,1,.7-1.7,3.207,3.207,0,0,1,4,0,2.413,2.413,0,0,1,.7,1.7,1.978,1.978,0,0,1-.5,1.4,1.456,1.456,0,0,1-.9.6,2.268,2.268,0,0,1,1.1.6,2.607,2.607,0,0,1,.7,1.9,2.481,2.481,0,0,1-.8,2,3.706,3.706,0,0,1-4.6,0,2.651,2.651,0,0,1-.7-2,2.522,2.522,0,0,1,1.8-2.5A1.64,1.64,0,0,1,111.9,73.4Zm3.8,4.7a2.168,2.168,0,0,0,.6-1.6,1.8,1.8,0,0,0-.7-1.5,2.025,2.025,0,0,0-1.4-.4,2.155,2.155,0,0,0-1.6.6,2.389,2.389,0,0,0-.5,1.4,1.887,1.887,0,0,0,.6,1.5,2.578,2.578,0,0,0,1.6.6A3.672,3.672,0,0,0,115.7,78.1Zm-.2-4.8a1.656,1.656,0,0,0,.5-1.2,1.364,1.364,0,0,0-.5-1.2,2.107,2.107,0,0,0-2.6.1,1.656,1.656,0,0,0-.5,1.2,1.364,1.364,0,0,0,.5,1.2,2,2,0,0,0,1.3.4A1.95,1.95,0,0,0,115.5,73.3Z"/><path d="M124.8,79.1h-6V79a3.074,3.074,0,0,1,1.1-2.5,17.344,17.344,0,0,1,2-1.5,7.551,7.551,0,0,0,1.4-1.1,2.389,2.389,0,0,0,.5-1.4,1.755,1.755,0,0,0-.6-1.4,2.289,2.289,0,0,0-1.4-.5,2.375,2.375,0,0,0-1.5.5,2.155,2.155,0,0,0-.6,1.6v.1h-1v-.2a2.924,2.924,0,0,1,.8-2.1,2.885,2.885,0,0,1,2.2-.8,3.2,3.2,0,0,1,2.2.7,2.865,2.865,0,0,1,.8,2,2.568,2.568,0,0,1-.8,2,9.19,9.19,0,0,1-1.6,1.2l-.7.4a4.735,4.735,0,0,0-1.3,1.1,1.457,1.457,0,0,0-.5,1.2h4.9v.8Z"/><path d="M132.4,79.1h-6V79a3.074,3.074,0,0,1,1.1-2.5,17.344,17.344,0,0,1,2-1.5,7.551,7.551,0,0,0,1.4-1.1,2.389,2.389,0,0,0,.5-1.4,1.755,1.755,0,0,0-.6-1.4,2.289,2.289,0,0,0-1.4-.5,2.375,2.375,0,0,0-1.5.5,2.155,2.155,0,0,0-.6,1.6v.1h-1v-.2a2.924,2.924,0,0,1,.8-2.1,2.885,2.885,0,0,1,2.2-.8,3.2,3.2,0,0,1,2.2.7,2.865,2.865,0,0,1,.8,2,2.568,2.568,0,0,1-.8,2,9.19,9.19,0,0,1-1.6,1.2l-.7.4a4.735,4.735,0,0,0-1.3,1.1,1.457,1.457,0,0,0-.5,1.2h4.9v.8Z"/><path d="M134.9,78.6a6.7,6.7,0,0,1-1.2-4.2,5.96,5.96,0,0,1,1.2-4,2.732,2.732,0,0,1,1.9-.8,2.568,2.568,0,0,1,2,.8,5.972,5.972,0,0,1,1.2,4,6.2,6.2,0,0,1-1.2,4.2,2.4,2.4,0,0,1-1.9.7A2.2,2.2,0,0,1,134.9,78.6Zm3.2-.5c.3-.3,1-1.2,1-3.5a5.183,5.183,0,0,0-1-3.5,1.656,1.656,0,0,0-1.2-.5,2.226,2.226,0,0,0-1.3.5c-.8.8-.9,2.5-.9,3.5a5.345,5.345,0,0,0,1,3.5,1.69,1.69,0,0,0,2.4,0Z"/><path d="M142.5,78.6a6.7,6.7,0,0,1-1.2-4.2,5.96,5.96,0,0,1,1.2-4,2.732,2.732,0,0,1,1.9-.8,2.568,2.568,0,0,1,2,.8,5.972,5.972,0,0,1,1.2,4,6.2,6.2,0,0,1-1.2,4.2,2.4,2.4,0,0,1-1.9.7A2.112,2.112,0,0,1,142.5,78.6Zm3.2-.5c.3-.3,1-1.2,1-3.5a5.183,5.183,0,0,0-1-3.5,1.656,1.656,0,0,0-1.2-.5,2.226,2.226,0,0,0-1.3.5c-.8.8-.9,2.5-.9,3.5a5.345,5.345,0,0,0,1,3.5,1.845,1.845,0,0,0,1.2.5A2.078,2.078,0,0,0,145.7,78.1Z"/><path d="M155.3,69.9v.8l-5.5,7.6h5.8v.8h-6.9v-.9l5.6-7.5H149v-.8Z"/><path d="M160.7,78.6a6.7,6.7,0,0,1-1.2-4.2,5.96,5.96,0,0,1,1.2-4,2.732,2.732,0,0,1,1.9-.8,2.568,2.568,0,0,1,2,.8,5.972,5.972,0,0,1,1.2,4,6.2,6.2,0,0,1-1.2,4.2,2.4,2.4,0,0,1-1.9.7A2.2,2.2,0,0,1,160.7,78.6Zm3.2-.5c.3-.3,1-1.2,1-3.5a5.183,5.183,0,0,0-1-3.5,1.656,1.656,0,0,0-1.2-.5,2.226,2.226,0,0,0-1.3.5c-.8.8-.9,2.5-.9,3.5a5.345,5.345,0,0,0,1,3.5,1.69,1.69,0,0,0,2.4,0Z"/><path d="M168.2,77.1a2.344,2.344,0,0,0,.5,1,1.793,1.793,0,0,0,1.3.5,1.826,1.826,0,0,0,1.5-.6c.9-.9.9-2.8.9-3.4h0a1.572,1.572,0,0,1-.9.9,2.232,2.232,0,0,1-1.4.3,2.761,2.761,0,0,1-3-3,3.2,3.2,0,0,1,.8-2.3,3.274,3.274,0,0,1,4.4-.1c.9.9,1,2.7,1,3.8,0,1.7-.2,3.3-1.3,4.3a2.931,2.931,0,0,1-2.1.8,2.52,2.52,0,0,1-1.9-.7,3.24,3.24,0,0,1-.8-1.6h1Zm3.4-6.1a1.915,1.915,0,0,0-1.5-.6,1.872,1.872,0,0,0-1.4.5,2.519,2.519,0,0,0-.6,1.9,2.376,2.376,0,0,0,.6,1.7,2.107,2.107,0,0,0,1.5.6,1.915,1.915,0,0,0,1.5-.6,2.258,2.258,0,0,0,.6-1.7A3.115,3.115,0,0,0,171.6,71Z"/><path d="M175.9,78.6a6.7,6.7,0,0,1-1.2-4.2,5.96,5.96,0,0,1,1.2-4,2.732,2.732,0,0,1,1.9-.8,2.568,2.568,0,0,1,2,.8,5.972,5.972,0,0,1,1.2,4,6.2,6.2,0,0,1-1.2,4.2,2.4,2.4,0,0,1-1.9.7A2.112,2.112,0,0,1,175.9,78.6Zm3.2-.5c.3-.3,1-1.2,1-3.5a5.183,5.183,0,0,0-1-3.5,1.656,1.656,0,0,0-1.2-.5,2.226,2.226,0,0,0-1.3.5c-.8.8-.9,2.5-.9,3.5a5.345,5.345,0,0,0,1,3.5,1.845,1.845,0,0,0,1.2.5A2.078,2.078,0,0,0,179.1,78.1Z"/><path d="M181.9,71.6h.2a2.3,2.3,0,0,0,1.4-.4,1.525,1.525,0,0,0,.7-1.2h.7v9.2h-1v-7h-2.1v-.6Z"/><path d="M186.9,71.6h.2a2.3,2.3,0,0,0,1.4-.4,1.525,1.525,0,0,0,.7-1.2h.7v9.2h-1v-7h-2.1v-.6Z"/><path d="M199.5,69.9h1.3L197,73.7l4.1,5.4h-1.3l-3.5-4.8-1.6,1.6v3.2h-1V69.9h1v4.8Z"/><path d="M201.2,70.8V70h7.1v.8h-3v8.4h-1V70.8Z"/><path d="M220.4,76.1a3.84,3.84,0,0,1-1.1,2.3,3.617,3.617,0,0,1-2.8,1,4.316,4.316,0,0,1-3-1.1,5.582,5.582,0,0,1-1.3-3.7,4.966,4.966,0,0,1,1.3-3.7,3.9,3.9,0,0,1,2.9-1.1,4.271,4.271,0,0,1,2.9,1,3.159,3.159,0,0,1,.9,2.1h-1a2.433,2.433,0,0,0-2.7-2.2,2.885,2.885,0,0,0-2.2.8,4.331,4.331,0,0,0-1.1,3.1,4.976,4.976,0,0,0,1.1,3.4,3.008,3.008,0,0,0,2.2.8,3.119,3.119,0,0,0,2-.7,2.437,2.437,0,0,0,.8-1.7h1.1Z"/><path d="M222.1,79.1H221l3.5-9.2h1.1l3.5,9.2H228l-1-2.6h-4Zm4.7-3.4-1.7-4.8-1.7,4.8Z"/><path d="M235.8,69.9h1.1l-3.2,9.2h-1.2l-3.2-9.2h1.1l2.8,8.2Z"/><path d="M239.2,70.7a3.934,3.934,0,0,1,2.9-1.1,3.981,3.981,0,0,1,3,1.1,5.028,5.028,0,0,1,1.4,3.8,4.834,4.834,0,0,1-1.4,3.8,3.829,3.829,0,0,1-2.9,1,3.667,3.667,0,0,1-3-1.1,5.115,5.115,0,0,1-1.3-3.8A4.851,4.851,0,0,1,239.2,70.7Zm.7,7a2.9,2.9,0,0,0,2.3.9,2.675,2.675,0,0,0,2.2-.9,5.216,5.216,0,0,0-.2-6.4,2.965,2.965,0,0,0-2.1-.7,3,3,0,0,0-2.1.7,4.694,4.694,0,0,0-1.2,3.4A4.081,4.081,0,0,0,239.9,77.7Z"/><path d="M254.4,69.9h1.3l-3.8,3.8,4.1,5.4h-1.3l-3.5-4.8-1.6,1.6v3.2h-1V69.9h1v4.8Z"/><path d="M265.9,79.1h-6V79a3.074,3.074,0,0,1,1.1-2.5,17.344,17.344,0,0,1,2-1.5,7.551,7.551,0,0,0,1.4-1.1,2.389,2.389,0,0,0,.5-1.4,1.755,1.755,0,0,0-.6-1.4,2.289,2.289,0,0,0-1.4-.5,2.375,2.375,0,0,0-1.5.5,2.155,2.155,0,0,0-.6,1.6v.1h-1v-.2a2.924,2.924,0,0,1,.8-2.1,2.885,2.885,0,0,1,2.2-.8,3.2,3.2,0,0,1,2.2.7,2.865,2.865,0,0,1,.8,2,2.568,2.568,0,0,1-.8,2,9.19,9.19,0,0,1-1.6,1.2l-.7.4a4.735,4.735,0,0,0-1.3,1.1,1.457,1.457,0,0,0-.5,1.2h4.9v.8Z"/><path d="M273.4,79.1h-6V79a3.074,3.074,0,0,1,1.1-2.5,17.344,17.344,0,0,1,2-1.5,7.551,7.551,0,0,0,1.4-1.1,2.389,2.389,0,0,0,.5-1.4,1.755,1.755,0,0,0-.6-1.4,2.289,2.289,0,0,0-1.4-.5,2.375,2.375,0,0,0-1.5.5,2.155,2.155,0,0,0-.6,1.6v.1h-1v-.2a2.924,2.924,0,0,1,.8-2.1,2.885,2.885,0,0,1,2.2-.8,3.2,3.2,0,0,1,2.2.7,2.865,2.865,0,0,1,.8,2,2.568,2.568,0,0,1-.8,2,9.19,9.19,0,0,1-1.6,1.2l-.7.4a4.735,4.735,0,0,0-1.3,1.1,1.457,1.457,0,0,0-.5,1.2h4.9v.8Z"/><path d="M278.8,69.9h.7l-4.7,11.6h-.7Z"/><path d="M281.5,71.6h.3a2.3,2.3,0,0,0,1.4-.4,1.387,1.387,0,0,0,.7-1.2h.7v9.2h-1v-7h-2.1Z"/><path d="M285.7,69.9h6.5v.7a14.506,14.506,0,0,0-2.5,4.2,21.948,21.948,0,0,0-1.1,4.3h-1.1a14.073,14.073,0,0,1,1.2-4.4,16.192,16.192,0,0,1,2.4-4h-5.4Z"/><path d="M28.4,95.2l-.5.5-1.2-1.2a3.742,3.742,0,0,1-2.3.6A4.3,4.3,0,0,1,21.3,94,5.546,5.546,0,0,1,20,90.2a5.177,5.177,0,0,1,1.3-3.7,4.248,4.248,0,0,1,3-1.1,4.248,4.248,0,0,1,3,1.1,5.29,5.29,0,0,1,1.3,3.8,6.2,6.2,0,0,1-.4,2.3,3.183,3.183,0,0,1-1,1.5Zm-1.8-1.8a3.458,3.458,0,0,0,.7-1.2,6.929,6.929,0,0,0,.3-2A4.316,4.316,0,0,0,26.5,87a3.008,3.008,0,0,0-2.2-.8,3.064,3.064,0,0,0-2.3.9,5.35,5.35,0,0,0,0,6.5,2.885,2.885,0,0,0,2.2.8,2.727,2.727,0,0,0,1.7-.4l-1-1.1.6-.5Z"/><path d="M31.5,87.3h.2a2.3,2.3,0,0,0,1.4-.4,1.525,1.525,0,0,0,.7-1.2h.7v9.2h-1v-7H31.4v-.6Z"/><path d="M37.9,94.4a6.7,6.7,0,0,1-1.2-4.2,5.96,5.96,0,0,1,1.2-4,2.732,2.732,0,0,1,1.9-.8,2.568,2.568,0,0,1,2,.8,5.972,5.972,0,0,1,1.2,4,6.2,6.2,0,0,1-1.2,4.2,2.4,2.4,0,0,1-1.9.7A2.2,2.2,0,0,1,37.9,94.4Zm3.2-.6c.3-.3,1-1.2,1-3.5a5.183,5.183,0,0,0-1-3.5,1.656,1.656,0,0,0-1.2-.5,2.226,2.226,0,0,0-1.3.5c-.8.8-.9,2.5-.9,3.5a5.345,5.345,0,0,0,1,3.5,1.845,1.845,0,0,0,1.2.5A1.457,1.457,0,0,0,41.1,93.8Z"/><path d="M44,87.3h.2a2.3,2.3,0,0,0,1.4-.4,1.525,1.525,0,0,0,.7-1.2H47v9.2H46v-7H44Z"/><path d="M48.2,85.7h6.5v.7a14.506,14.506,0,0,0-2.5,4.2,21.948,21.948,0,0,0-1.1,4.3H50a14.073,14.073,0,0,1,1.2-4.4,16.192,16.192,0,0,1,2.4-4H48.2Z"/><path d="M59.5,85.7h3.9a3.145,3.145,0,0,1,2.4.7,2.442,2.442,0,0,1,.6,1.7,2.026,2.026,0,0,1-.6,1.6,2.268,2.268,0,0,1-1.1.7h0a1.915,1.915,0,0,1,.8.4,2.155,2.155,0,0,1,.5,1.7v1a1.915,1.915,0,0,0,.4,1.3H65.3a1.919,1.919,0,0,1-.3-1.2v-1a1.651,1.651,0,0,0-.5-1.5,2.421,2.421,0,0,0-1.3-.4H60.3v4h-1v-9Zm1,4.3h2.8a2.767,2.767,0,0,0,1.6-.5,1.978,1.978,0,0,0,.5-1.4,1.364,1.364,0,0,0-.5-1.2,2.68,2.68,0,0,0-1.7-.4H60.4V90Z"/><path d="M69.6,86.9h0v8h-1V85.7h1.5l3.1,7.9,3.1-7.9h1.5v9.2h-1v-8h0l-3.2,8h-.8Z"/><path d="M86,85.7h1.3l-3.8,3.8,4.1,5.4H86.3l-3.5-4.8-1.6,1.6v3.2h-1V85.7h1v4.8Z"/><path d="M95.4,85.7a3.216,3.216,0,0,1,2.4.7,2.607,2.607,0,0,1,.7,1.9,2.651,2.651,0,0,1-.7,2,3.144,3.144,0,0,1-2.5.8H92.8v3.8h-1V85.7Zm-2.6,4.5h2.4a2.265,2.265,0,0,0,1.7-.5,1.668,1.668,0,0,0,.5-1.4,1.761,1.761,0,0,0-.5-1.3,2.5,2.5,0,0,0-1.8-.5H92.7v3.7Z"/><path d="M103.8,85.7a3.216,3.216,0,0,1,2.4.7,2.607,2.607,0,0,1,.7,1.9,2.651,2.651,0,0,1-.7,2,3.144,3.144,0,0,1-2.5.8h-2.5v3.8h-1V85.7Zm-2.6,4.5h2.4a2.265,2.265,0,0,0,1.7-.5,1.668,1.668,0,0,0,.5-1.4,1.761,1.761,0,0,0-.5-1.3,2.5,2.5,0,0,0-1.8-.5h-2.4v3.7Z"/><path d="M109.2,94.4a6.7,6.7,0,0,1-1.2-4.2,5.96,5.96,0,0,1,1.2-4,2.732,2.732,0,0,1,1.9-.8,2.568,2.568,0,0,1,2,.8,5.972,5.972,0,0,1,1.2,4,6.2,6.2,0,0,1-1.2,4.2,2.4,2.4,0,0,1-1.9.7A2.112,2.112,0,0,1,109.2,94.4Zm3.2-.6c.3-.3,1-1.2,1-3.5a5.183,5.183,0,0,0-1-3.5,1.656,1.656,0,0,0-1.2-.5,2.226,2.226,0,0,0-1.3.5c-.8.8-.9,2.5-.9,3.5a5.345,5.345,0,0,0,1,3.5,1.845,1.845,0,0,0,1.2.5A1.584,1.584,0,0,0,112.4,93.8Z"/><path d="M116.7,94.4a6.7,6.7,0,0,1-1.2-4.2,5.96,5.96,0,0,1,1.2-4,2.732,2.732,0,0,1,1.9-.8,2.568,2.568,0,0,1,2,.8,5.972,5.972,0,0,1,1.2,4,6.2,6.2,0,0,1-1.2,4.2,2.4,2.4,0,0,1-1.9.7A2.2,2.2,0,0,1,116.7,94.4Zm3.2-.6c.3-.3,1-1.2,1-3.5a5.183,5.183,0,0,0-1-3.5,1.656,1.656,0,0,0-1.2-.5,2.226,2.226,0,0,0-1.3.5c-.8.8-.9,2.5-.9,3.5a5.345,5.345,0,0,0,1,3.5,1.845,1.845,0,0,0,1.2.5A1.457,1.457,0,0,0,119.9,93.8Z"/><path d="M124.3,94.4a6.7,6.7,0,0,1-1.2-4.2,5.96,5.96,0,0,1,1.2-4,2.732,2.732,0,0,1,1.9-.8,2.568,2.568,0,0,1,2,.8,5.972,5.972,0,0,1,1.2,4,6.2,6.2,0,0,1-1.2,4.2,2.4,2.4,0,0,1-1.9.7A2.2,2.2,0,0,1,124.3,94.4Zm3.2-.6c.3-.3,1-1.2,1-3.5a5.183,5.183,0,0,0-1-3.5,1.656,1.656,0,0,0-1.2-.5,2.226,2.226,0,0,0-1.3.5c-.8.8-.9,2.5-.9,3.5a5.345,5.345,0,0,0,1,3.5,1.845,1.845,0,0,0,1.2.5A1.457,1.457,0,0,0,127.5,93.8Z"/><path d="M140.3,88.7v.6h-6.6v-.6Zm0,2.7V92h-6.6v-.6Z"/><path d="M24.2,126.4h-2l1.7-7.9H21l.4-1.6H29l-.4,1.6H25.8Z"/><path d="M29.9,124.5l-1.1,1.9h-2l5.3-9.6h2.3l1.3,9.6h-2l-.2-1.9Zm2.9-5.4-2,3.7h2.5Z"/><path d="M38.9,126.4h-2l2-9.6h6.7l-.4,1.6H40.4l-.5,2.2h4.2l-.1,1.7H39.8Z"/><path d="M47.5,126.4h-2l.4-1.9h2Zm1-4.9h-2l.4-1.9h2Z"/><path d="M19.2,133.8V133h7.1v.8h-3v8.4h-1v-8.4Z"/><path d="M26.9,142.2H25.8l3.5-9.2h1.1l3.5,9.2H32.8l-1-2.6h-4Zm4.7-3.5-1.7-4.8-1.7,4.8Z"/><path d="M40.6,137.1v.8H36.2v4.3h-1V133h6v.8h-5v3.3Z"/><path d="M46.1,139.3a2.168,2.168,0,0,0,.6,1.6,3.139,3.139,0,0,0,2.1.7,2.883,2.883,0,0,0,1.9-.6,1.656,1.656,0,0,0,.5-1.2,2.1,2.1,0,0,0-.4-1.1A2.743,2.743,0,0,0,49,138l-.9-.2a4,4,0,0,1-2.3-1,1.91,1.91,0,0,1-.5-1.5,2.452,2.452,0,0,1,1.1-2.1,4.866,4.866,0,0,1,2.3-.6,3.484,3.484,0,0,1,2.5.8,2.9,2.9,0,0,1,.8,1.8H51a2.618,2.618,0,0,0-.6-1.3,3.257,3.257,0,0,0-3.3-.1,1.6,1.6,0,0,0-.8,1.4,1.1,1.1,0,0,0,.4.9,2.928,2.928,0,0,0,1.6.7l.9.2a4.088,4.088,0,0,1,2.4,1,2.451,2.451,0,0,1,.7,1.7,2.792,2.792,0,0,1-.8,2,3.951,3.951,0,0,1-2.6.8,4.048,4.048,0,0,1-3-1,3.017,3.017,0,0,1-.9-2.2Z"/><path d="M54.2,142.2H53.1l3.5-9.2h1.1l3.5,9.2H60.1l-1-2.6h-4Zm4.7-3.5-1.7-4.8-1.7,4.8Z"/><path d="M65.7,133a4.408,4.408,0,0,1,3.1,1,4.865,4.865,0,0,1,1.3,3.6,5.01,5.01,0,0,1-1.3,3.7,4.705,4.705,0,0,1-3.2,1H62.5v-9.2h3.2Zm-2.3,8.3h1.8a3.616,3.616,0,0,0,2.8-.9,4.223,4.223,0,0,0,1-2.9,4.5,4.5,0,0,0-1-3,3.1,3.1,0,0,0-2.3-.8H63.5v7.6Z"/><path d="M77.3,137.1v.8H72.9v4.3h-1V133h6v.8h-5v3.3Z"/><path d="M83,141.7a6.7,6.7,0,0,1-1.2-4.2,5.96,5.96,0,0,1,1.2-4,2.732,2.732,0,0,1,1.9-.8,2.568,2.568,0,0,1,2,.8,5.972,5.972,0,0,1,1.2,4,6.2,6.2,0,0,1-1.2,4.2,2.4,2.4,0,0,1-1.9.7A2.2,2.2,0,0,1,83,141.7Zm3.2-.6c.3-.3,1-1.2,1-3.5a5.183,5.183,0,0,0-1-3.5,1.656,1.656,0,0,0-1.2-.5,2.226,2.226,0,0,0-1.3.5c-.8.8-.9,2.5-.9,3.5a5.345,5.345,0,0,0,1,3.5,1.69,1.69,0,0,0,2.4,0Z"/><path d="M90.3,136.4a2.01,2.01,0,0,1-.4-1.3,2.413,2.413,0,0,1,.7-1.7,3.207,3.207,0,0,1,4,0,2.413,2.413,0,0,1,.7,1.7,1.978,1.978,0,0,1-.5,1.4,1.456,1.456,0,0,1-.9.6,2.268,2.268,0,0,1,1.1.6,2.607,2.607,0,0,1,.7,1.9,2.481,2.481,0,0,1-.8,2,3.706,3.706,0,0,1-4.6,0,2.651,2.651,0,0,1-.7-2,2.522,2.522,0,0,1,1.8-2.5A1.442,1.442,0,0,1,90.3,136.4Zm3.7,4.7a2.09,2.09,0,0,0,.6-1.5,1.8,1.8,0,0,0-.7-1.5,2.025,2.025,0,0,0-1.4-.4,2.155,2.155,0,0,0-1.6.6,2.389,2.389,0,0,0-.5,1.4,1.887,1.887,0,0,0,.6,1.5,2.578,2.578,0,0,0,1.6.6A2.314,2.314,0,0,0,94,141.1Zm-.2-4.7a1.656,1.656,0,0,0,.5-1.2,1.364,1.364,0,0,0-.5-1.2,2.107,2.107,0,0,0-2.6.1,1.656,1.656,0,0,0-.5,1.2,1.364,1.364,0,0,0,.5,1.2,2,2,0,0,0,1.3.4A2.355,2.355,0,0,0,93.8,136.4Z"/><path d="M96.4,134.6h.2a2.3,2.3,0,0,0,1.4-.4,1.525,1.525,0,0,0,.7-1.2h.7v9.2h-1v-7H96.3v-.6Z"/><path d="M100.6,133h6.5v.7a14.506,14.506,0,0,0-2.5,4.2,21.948,21.948,0,0,0-1.1,4.3h-1.1a14.073,14.073,0,0,1,1.2-4.4,16.192,16.192,0,0,1,2.4-4h-5.4Z"/><path d="M109.4,141.7a6.7,6.7,0,0,1-1.2-4.2,5.96,5.96,0,0,1,1.2-4,2.732,2.732,0,0,1,1.9-.8,2.568,2.568,0,0,1,2,.8,5.972,5.972,0,0,1,1.2,4,6.2,6.2,0,0,1-1.2,4.2,2.4,2.4,0,0,1-1.9.7A2.2,2.2,0,0,1,109.4,141.7Zm3.2-.6c.3-.3,1-1.2,1-3.5a5.183,5.183,0,0,0-1-3.5,1.656,1.656,0,0,0-1.2-.5,2.226,2.226,0,0,0-1.3.5c-.8.8-.9,2.5-.9,3.5a5.345,5.345,0,0,0,1,3.5,1.69,1.69,0,0,0,2.4,0Z"/><path d="M117,141.7a6.7,6.7,0,0,1-1.2-4.2,5.96,5.96,0,0,1,1.2-4,2.732,2.732,0,0,1,1.9-.8,2.568,2.568,0,0,1,2,.8,5.972,5.972,0,0,1,1.2,4,6.2,6.2,0,0,1-1.2,4.2,2.4,2.4,0,0,1-1.9.7A2.2,2.2,0,0,1,117,141.7Zm3.2-.6c.3-.3,1-1.2,1-3.5a5.183,5.183,0,0,0-1-3.5,1.656,1.656,0,0,0-1.2-.5,2.226,2.226,0,0,0-1.3.5c-.8.8-.9,2.5-.9,3.5a5.345,5.345,0,0,0,1,3.5,1.69,1.69,0,0,0,2.4,0Z"/><path d="M129.8,133v.8l-5.5,7.6h5.8v.8h-6.9v-.9l5.6-7.5h-5.3V133Z"/><path d="M135.3,141.7a6.7,6.7,0,0,1-1.2-4.2,5.96,5.96,0,0,1,1.2-4,2.732,2.732,0,0,1,1.9-.8,2.568,2.568,0,0,1,2,.8,5.972,5.972,0,0,1,1.2,4,6.2,6.2,0,0,1-1.2,4.2,2.4,2.4,0,0,1-1.9.7A2.112,2.112,0,0,1,135.3,141.7Zm3.2-.6c.3-.3,1-1.2,1-3.5a5.183,5.183,0,0,0-1-3.5,1.656,1.656,0,0,0-1.2-.5,2.226,2.226,0,0,0-1.3.5c-.8.8-.9,2.5-.9,3.5a5.345,5.345,0,0,0,1,3.5,1.845,1.845,0,0,0,1.2.5A2.078,2.078,0,0,0,138.5,141.1Z"/><path d="M142.5,136.4a2.01,2.01,0,0,1-.4-1.3,2.413,2.413,0,0,1,.7-1.7,3.207,3.207,0,0,1,4,0,2.413,2.413,0,0,1,.7,1.7,1.978,1.978,0,0,1-.5,1.4,1.456,1.456,0,0,1-.9.6,2.268,2.268,0,0,1,1.1.6,2.607,2.607,0,0,1,.7,1.9,2.481,2.481,0,0,1-.8,2,3.706,3.706,0,0,1-4.6,0,2.651,2.651,0,0,1-.7-2,2.522,2.522,0,0,1,1.8-2.5A1.64,1.64,0,0,1,142.5,136.4Zm3.8,4.7a2.09,2.09,0,0,0,.6-1.5,1.8,1.8,0,0,0-.7-1.5,2.025,2.025,0,0,0-1.4-.4,2.155,2.155,0,0,0-1.6.6,2.389,2.389,0,0,0-.5,1.4,1.887,1.887,0,0,0,.6,1.5,2.578,2.578,0,0,0,1.6.6A2.649,2.649,0,0,0,146.3,141.1Zm-.2-4.7a1.656,1.656,0,0,0,.5-1.2,1.364,1.364,0,0,0-.5-1.2,2.107,2.107,0,0,0-2.6.1,1.656,1.656,0,0,0-.5,1.2,1.364,1.364,0,0,0,.5,1.2,2,2,0,0,0,1.3.4A2.665,2.665,0,0,0,146.1,136.4Z"/><path d="M148.6,134.6h.2a2.3,2.3,0,0,0,1.4-.4,1.525,1.525,0,0,0,.7-1.2h.7v9.2h-1v-7h-2.1v-.6Z"/><path d="M154.8,136.4a2.01,2.01,0,0,1-.4-1.3,2.413,2.413,0,0,1,.7-1.7,3.207,3.207,0,0,1,4,0,2.413,2.413,0,0,1,.7,1.7,1.978,1.978,0,0,1-.5,1.4,1.456,1.456,0,0,1-.9.6,2.268,2.268,0,0,1,1.1.6,2.607,2.607,0,0,1,.7,1.9,2.481,2.481,0,0,1-.8,2,3.706,3.706,0,0,1-4.6,0,2.651,2.651,0,0,1-.7-2,2.522,2.522,0,0,1,1.8-2.5A1.442,1.442,0,0,1,154.8,136.4Zm3.7,4.7a2.09,2.09,0,0,0,.6-1.5,1.8,1.8,0,0,0-.7-1.5,2.025,2.025,0,0,0-1.4-.4,2.155,2.155,0,0,0-1.6.6,2.389,2.389,0,0,0-.5,1.4,1.887,1.887,0,0,0,.6,1.5,2.578,2.578,0,0,0,1.6.6A2.049,2.049,0,0,0,158.5,141.1Zm-.2-4.7a1.656,1.656,0,0,0,.5-1.2,1.364,1.364,0,0,0-.5-1.2,2.107,2.107,0,0,0-2.6.1,1.656,1.656,0,0,0-.5,1.2,1.364,1.364,0,0,0,.5,1.2,2,2,0,0,0,1.3.4A2.355,2.355,0,0,0,158.3,136.4Z"/><path d="M165.5,133h.7l-4.7,11.6h-.7Z"/><path d="M168,141.7a6.7,6.7,0,0,1-1.2-4.2,5.96,5.96,0,0,1,1.2-4,2.732,2.732,0,0,1,1.9-.8,2.568,2.568,0,0,1,2,.8,5.972,5.972,0,0,1,1.2,4,6.2,6.2,0,0,1-1.2,4.2,2.4,2.4,0,0,1-1.9.7A2.2,2.2,0,0,1,168,141.7Zm3.2-.6c.3-.3,1-1.2,1-3.5a5.183,5.183,0,0,0-1-3.5,1.656,1.656,0,0,0-1.2-.5,2.226,2.226,0,0,0-1.3.5c-.8.8-.9,2.5-.9,3.5a5.345,5.345,0,0,0,1,3.5,1.69,1.69,0,0,0,2.4,0Z"/><path d="M175.5,140.2a2.344,2.344,0,0,0,.5,1,1.793,1.793,0,0,0,1.3.5,1.826,1.826,0,0,0,1.5-.6c.9-.9.9-2.8.9-3.4h0a1.572,1.572,0,0,1-.9.9,2.232,2.232,0,0,1-1.4.3,2.761,2.761,0,0,1-3-3,3.2,3.2,0,0,1,.8-2.3,3.274,3.274,0,0,1,4.4-.1c.9.9,1,2.7,1,3.8,0,1.7-.2,3.3-1.3,4.3a2.931,2.931,0,0,1-2.1.8,2.52,2.52,0,0,1-1.9-.7,3.285,3.285,0,0,1-.8-1.5Zm3.4-6.1a1.915,1.915,0,0,0-1.5-.6,1.872,1.872,0,0,0-1.4.5,2.519,2.519,0,0,0-.6,1.9,2.376,2.376,0,0,0,.6,1.7,1.763,1.763,0,0,0,1.5.6,1.915,1.915,0,0,0,1.5-.6,2.258,2.258,0,0,0,.6-1.7A3.594,3.594,0,0,0,178.9,134.1Z"/><path d="M181.8,134.6h.2a2.3,2.3,0,0,0,1.4-.4,1.525,1.525,0,0,0,.7-1.2h.7v9.2h-1v-7h-2.1v-.6Z"/><path d="M187.9,136.4a2.01,2.01,0,0,1-.4-1.3,2.413,2.413,0,0,1,.7-1.7,3.207,3.207,0,0,1,4,0,2.413,2.413,0,0,1,.7,1.7,1.978,1.978,0,0,1-.5,1.4,1.456,1.456,0,0,1-.9.6,2.268,2.268,0,0,1,1.1.6,2.607,2.607,0,0,1,.7,1.9,2.481,2.481,0,0,1-.8,2,3.706,3.706,0,0,1-4.6,0,2.651,2.651,0,0,1-.7-2,2.522,2.522,0,0,1,1.8-2.5A1.64,1.64,0,0,1,187.9,136.4Zm3.8,4.7a2.09,2.09,0,0,0,.6-1.5,1.8,1.8,0,0,0-.7-1.5,2.025,2.025,0,0,0-1.4-.4,2.155,2.155,0,0,0-1.6.6,2.389,2.389,0,0,0-.5,1.4,1.887,1.887,0,0,0,.6,1.5,2.578,2.578,0,0,0,1.6.6A2.649,2.649,0,0,0,191.7,141.1Zm-.2-4.7a1.656,1.656,0,0,0,.5-1.2,1.364,1.364,0,0,0-.5-1.2,2.107,2.107,0,0,0-2.6.1,1.656,1.656,0,0,0-.5,1.2,1.364,1.364,0,0,0,.5,1.2,2,2,0,0,0,1.3.4A2.355,2.355,0,0,0,191.5,136.4Z"/><path d="M198.9,141.7a6.7,6.7,0,0,1-1.2-4.2,5.96,5.96,0,0,1,1.2-4,2.732,2.732,0,0,1,1.9-.8,2.568,2.568,0,0,1,2,.8,5.972,5.972,0,0,1,1.2,4,6.2,6.2,0,0,1-1.2,4.2,2.4,2.4,0,0,1-1.9.7A2.112,2.112,0,0,1,198.9,141.7Zm3.2-.6c.3-.3,1-1.2,1-3.5a5.183,5.183,0,0,0-1-3.5,1.656,1.656,0,0,0-1.2-.5,2.226,2.226,0,0,0-1.3.5c-.8.8-.9,2.5-.9,3.5a5.345,5.345,0,0,0,1,3.5,1.845,1.845,0,0,0,1.2.5A2.078,2.078,0,0,0,202.1,141.1Z"/><path d="M206.4,139.9a2.725,2.725,0,0,0,.6,1.2,1.91,1.91,0,0,0,1.5.5,2.375,2.375,0,0,0,1.5-.5,2.425,2.425,0,0,0,.7-1.9,2.376,2.376,0,0,0-.6-1.7,2,2,0,0,0-1.6-.6,2.521,2.521,0,0,0-1.9.8h-.9l.7-4.8h4.7v.8h-4l-.4,3.1a2.177,2.177,0,0,1,.8-.5,2.537,2.537,0,0,1,1.2-.2,3.139,3.139,0,0,1,2.1.7,2.967,2.967,0,0,1,.9,2.3,3.046,3.046,0,0,1-.9,2.4,3.38,3.38,0,0,1-2.3.8,3.163,3.163,0,0,1-2.2-.8,3.013,3.013,0,0,1-.8-1.7h.9Z"/><path d="M214,141.7a6.7,6.7,0,0,1-1.2-4.2,5.96,5.96,0,0,1,1.2-4,2.732,2.732,0,0,1,1.9-.8,2.568,2.568,0,0,1,2,.8,5.972,5.972,0,0,1,1.2,4,6.2,6.2,0,0,1-1.2,4.2,2.4,2.4,0,0,1-1.9.7A2.112,2.112,0,0,1,214,141.7Zm3.2-.6c.3-.3,1-1.2,1-3.5a5.183,5.183,0,0,0-1-3.5,1.656,1.656,0,0,0-1.2-.5,2.226,2.226,0,0,0-1.3.5c-.8.8-.9,2.5-.9,3.5a5.345,5.345,0,0,0,1,3.5,1.845,1.845,0,0,0,1.2.5A2.078,2.078,0,0,0,217.2,141.1Z"/><path d="M220.1,134.6h.3a2.3,2.3,0,0,0,1.4-.4,1.525,1.525,0,0,0,.7-1.2h.7v9.2h-1v-7h-2.1v-.6Z"/><path d="M226.3,139.9a1.974,1.974,0,0,0,.6,1.2,1.91,1.91,0,0,0,1.5.5,2.375,2.375,0,0,0,1.5-.5,2.425,2.425,0,0,0,.7-1.9,2.376,2.376,0,0,0-.6-1.7,2,2,0,0,0-1.6-.6,2.521,2.521,0,0,0-1.9.8h-.9l.7-4.8H231v.8h-4l-.4,3.1a2.177,2.177,0,0,1,.8-.5,2.537,2.537,0,0,1,1.2-.2,3.139,3.139,0,0,1,2.1.7,2.967,2.967,0,0,1,.9,2.3,3.046,3.046,0,0,1-.9,2.4,3.235,3.235,0,0,1-2.3.8,3.163,3.163,0,0,1-2.2-.8,3.013,3.013,0,0,1-.8-1.7h.9Z"/><path d="M239.2,133h1.3l-3.8,3.8,4.1,5.4h-1.3l-3.5-4.8-1.6,1.6v3.2h-1V133h1v4.8Z"/><path d="M240.8,133.8V133h7.1v.8h-3v8.4h-1v-8.4Z"/><path d="M260,139.2a3.84,3.84,0,0,1-1.1,2.3,3.617,3.617,0,0,1-2.8,1,4.316,4.316,0,0,1-3-1.1,5.582,5.582,0,0,1-1.3-3.7,4.966,4.966,0,0,1,1.3-3.7,3.9,3.9,0,0,1,2.9-1.1,4.271,4.271,0,0,1,2.9,1,3.159,3.159,0,0,1,.9,2.1h-1a2.433,2.433,0,0,0-2.7-2.2,2.885,2.885,0,0,0-2.2.8,4.331,4.331,0,0,0-1.1,3.1,4.976,4.976,0,0,0,1.1,3.4,3.008,3.008,0,0,0,2.2.8,3.119,3.119,0,0,0,2-.7,2.693,2.693,0,0,0,.8-1.7H260Z"/><path d="M261.7,142.2h-1.1l3.5-9.2h1.1l3.5,9.2h-1.1l-1-2.6h-4Zm4.7-3.5-1.7-4.8-1.7,4.8Z"/><path d="M275.5,133h1.1l-3.2,9.2h-1.2L269,133h1.1l2.8,8.2Z"/><path d="M278.8,133.8a3.934,3.934,0,0,1,2.9-1.1,3.981,3.981,0,0,1,3,1.1,5.028,5.028,0,0,1,1.4,3.8,4.834,4.834,0,0,1-1.4,3.8,3.829,3.829,0,0,1-2.9,1,3.667,3.667,0,0,1-3-1.1,5.115,5.115,0,0,1-1.3-3.8A5.266,5.266,0,0,1,278.8,133.8Zm.7,7a2.9,2.9,0,0,0,2.3.9,2.675,2.675,0,0,0,2.2-.9,5.216,5.216,0,0,0-.2-6.4,2.965,2.965,0,0,0-2.1-.7,3,3,0,0,0-2.1.7,4.6,4.6,0,0,0-1.2,3.3A5.452,5.452,0,0,0,279.5,140.8Z"/><path d="M294,133h1.3l-3.8,3.8,4.1,5.4h-1.3l-3.5-4.8-1.6,1.6v3.2h-1V133h1v4.8Z"/><path d="M19.2,149.6v-.8h7.1v.8h-3V158h-1v-8.4Z"/><path d="M32.7,148.7h1.2l-3,4.5,3.2,4.7H32.9l-2.5-4-2.5,4H26.7l3.2-4.7-3-4.5h1.2l2.5,3.8Z"/><path d="M40.9,157.9h-6v-.1a3.074,3.074,0,0,1,1.1-2.5,17.344,17.344,0,0,1,2-1.5,7.551,7.551,0,0,0,1.4-1.1,2.389,2.389,0,0,0,.5-1.4,1.755,1.755,0,0,0-.6-1.4,2.289,2.289,0,0,0-1.4-.5,2.375,2.375,0,0,0-1.5.5,2.155,2.155,0,0,0-.6,1.6v.1h-1v-.2a2.924,2.924,0,0,1,.8-2.1,2.885,2.885,0,0,1,2.2-.8,3.2,3.2,0,0,1,2.2.7,2.865,2.865,0,0,1,.8,2,2.568,2.568,0,0,1-.8,2,9.19,9.19,0,0,1-1.6,1.2l-.7.4a4.735,4.735,0,0,0-1.3,1.1,1.457,1.457,0,0,0-.5,1.2h4.9v.8Z"/><path d="M41.6,148.7h6.5v.7a14.506,14.506,0,0,0-2.5,4.2,21.948,21.948,0,0,0-1.1,4.3H43.4a14.073,14.073,0,0,1,1.2-4.4,16.192,16.192,0,0,1,2.4-4H41.6Z"/><path d="M53.3,148.7H54l-4.7,11.6h-.7Z"/><path d="M55.8,157.4a6.7,6.7,0,0,1-1.2-4.2,5.96,5.96,0,0,1,1.2-4,2.732,2.732,0,0,1,1.9-.8,2.568,2.568,0,0,1,2,.8,5.972,5.972,0,0,1,1.2,4,6.2,6.2,0,0,1-1.2,4.2,2.4,2.4,0,0,1-1.9.7A2.2,2.2,0,0,1,55.8,157.4Zm3.2-.5c.3-.3,1-1.2,1-3.5a5.183,5.183,0,0,0-1-3.5,1.656,1.656,0,0,0-1.2-.5,2.226,2.226,0,0,0-1.3.5c-.8.8-.9,2.5-.9,3.5a5.345,5.345,0,0,0,1,3.5,1.69,1.69,0,0,0,2.4,0Z"/><path d="M63.2,156a2.344,2.344,0,0,0,.5,1,1.793,1.793,0,0,0,1.3.5,1.826,1.826,0,0,0,1.5-.6c.9-.9.9-2.8.9-3.4h0a1.572,1.572,0,0,1-.9.9,2.232,2.232,0,0,1-1.4.3,2.761,2.761,0,0,1-3-3,3.2,3.2,0,0,1,.8-2.3,3.274,3.274,0,0,1,4.4-.1c.9.9,1,2.7,1,3.8,0,1.7-.2,3.3-1.3,4.3a2.931,2.931,0,0,1-2.1.8,2.52,2.52,0,0,1-1.9-.7,3.285,3.285,0,0,1-.8-1.5Zm3.5-6.2a1.915,1.915,0,0,0-1.5-.6,1.872,1.872,0,0,0-1.4.5,2.519,2.519,0,0,0-.6,1.9,2.376,2.376,0,0,0,.6,1.7,1.763,1.763,0,0,0,1.5.6,1.915,1.915,0,0,0,1.5-.6,2.258,2.258,0,0,0,.6-1.7A4.491,4.491,0,0,0,66.7,149.8Z"/><path d="M69.6,150.4h.2a2.3,2.3,0,0,0,1.4-.4,1.525,1.525,0,0,0,.7-1.2h.7V158h-1v-7H69.5v-.6Z"/><path d="M75.7,152.2a2.01,2.01,0,0,1-.4-1.3,2.413,2.413,0,0,1,.7-1.7,3.207,3.207,0,0,1,4,0,2.413,2.413,0,0,1,.7,1.7,1.978,1.978,0,0,1-.5,1.4,1.456,1.456,0,0,1-.9.6,2.268,2.268,0,0,1,1.1.6,2.607,2.607,0,0,1,.7,1.9,2.481,2.481,0,0,1-.8,2,3.706,3.706,0,0,1-4.6,0,2.651,2.651,0,0,1-.7-2,2.522,2.522,0,0,1,1.8-2.5A1.64,1.64,0,0,1,75.7,152.2Zm3.8,4.7a2.09,2.09,0,0,0,.6-1.5,1.8,1.8,0,0,0-.7-1.5,2.025,2.025,0,0,0-1.4-.4,2.155,2.155,0,0,0-1.6.6,2.389,2.389,0,0,0-.5,1.4,1.887,1.887,0,0,0,.6,1.5,2.578,2.578,0,0,0,1.6.6A6.012,6.012,0,0,0,79.5,156.9Zm-.2-4.8a1.656,1.656,0,0,0,.5-1.2,1.364,1.364,0,0,0-.5-1.2,2.107,2.107,0,0,0-2.6.1,1.656,1.656,0,0,0-.5,1.2,1.364,1.364,0,0,0,.5,1.2,2,2,0,0,0,1.3.4A1.95,1.95,0,0,0,79.3,152.1Z"/><path d="M88.8,148.7v.8l-5.5,7.6h5.8v.8H82.2V157l5.6-7.5H82.5v-.8Z"/><path d="M92.5,149.6v-.8h7.1v.8h-3V158h-1v-8.4Z"/><path d="M101.9,157.9h-1v-9.2H102l5.2,7.7v-7.7h1v9.2H107l-5.2-7.7v7.7Z"/><path d="M111.3,150.4h.2a2.3,2.3,0,0,0,1.4-.4,1.525,1.525,0,0,0,.7-1.2h.7V158h-1v-7h-2.1v-.6Z"/><path d="M117.6,155.7a2.725,2.725,0,0,0,.6,1.2,1.91,1.91,0,0,0,1.5.5,2.375,2.375,0,0,0,1.5-.5,2.425,2.425,0,0,0,.7-1.9,2.376,2.376,0,0,0-.6-1.7,2,2,0,0,0-1.6-.6,2.521,2.521,0,0,0-1.9.8h-.9l.7-4.8h4.7v.8h-4l-.4,3.1a2.177,2.177,0,0,1,.8-.5,2.537,2.537,0,0,1,1.2-.2,3.139,3.139,0,0,1,2.1.7,2.967,2.967,0,0,1,.9,2.3,3.046,3.046,0,0,1-.9,2.4,3.235,3.235,0,0,1-2.3.8,3.163,3.163,0,0,1-2.2-.8,3.013,3.013,0,0,1-.8-1.7h.9Z"/><path d="M128.1,148.7h.7l-4.7,11.6h-.7Z"/><path d="M130.6,157.4a6.7,6.7,0,0,1-1.2-4.2,5.96,5.96,0,0,1,1.2-4,2.732,2.732,0,0,1,1.9-.8,2.568,2.568,0,0,1,2,.8,5.972,5.972,0,0,1,1.2,4,6.2,6.2,0,0,1-1.2,4.2,2.4,2.4,0,0,1-1.9.7A2.112,2.112,0,0,1,130.6,157.4Zm3.2-.5c.3-.3,1-1.2,1-3.5a5.183,5.183,0,0,0-1-3.5,1.656,1.656,0,0,0-1.2-.5,2.226,2.226,0,0,0-1.3.5c-.8.8-.9,2.5-.9,3.5a5.345,5.345,0,0,0,1,3.5,1.845,1.845,0,0,0,1.2.5A2.078,2.078,0,0,0,133.8,156.9Z"/><path d="M138,156a2.344,2.344,0,0,0,.5,1,1.793,1.793,0,0,0,1.3.5,1.826,1.826,0,0,0,1.5-.6c.9-.9.9-2.8.9-3.4h0a1.572,1.572,0,0,1-.9.9,2.232,2.232,0,0,1-1.4.3,2.761,2.761,0,0,1-3-3,3.2,3.2,0,0,1,.8-2.3,3.274,3.274,0,0,1,4.4-.1c.9.9,1,2.7,1,3.8,0,1.7-.2,3.3-1.3,4.3a2.931,2.931,0,0,1-2.1.8,2.52,2.52,0,0,1-1.9-.7,3.285,3.285,0,0,1-.8-1.5Zm3.5-6.2a1.915,1.915,0,0,0-1.5-.6,1.872,1.872,0,0,0-1.4.5,2.519,2.519,0,0,0-.6,1.9,2.376,2.376,0,0,0,.6,1.7,1.763,1.763,0,0,0,1.5.6,1.915,1.915,0,0,0,1.5-.6,2.258,2.258,0,0,0,.6-1.7A4.491,4.491,0,0,0,141.5,149.8Z"/><path d="M145.7,157.4a6.7,6.7,0,0,1-1.2-4.2,5.96,5.96,0,0,1,1.2-4,2.732,2.732,0,0,1,1.9-.8,2.568,2.568,0,0,1,2,.8,5.972,5.972,0,0,1,1.2,4,6.2,6.2,0,0,1-1.2,4.2,2.4,2.4,0,0,1-1.9.7A2.2,2.2,0,0,1,145.7,157.4Zm3.2-.5c.3-.3,1-1.2,1-3.5a5.183,5.183,0,0,0-1-3.5,1.656,1.656,0,0,0-1.2-.5,2.226,2.226,0,0,0-1.3.5c-.8.8-.9,2.5-.9,3.5a5.345,5.345,0,0,0,1,3.5,1.69,1.69,0,0,0,2.4,0Z"/><path d="M153.2,156a2.344,2.344,0,0,0,.5,1,1.793,1.793,0,0,0,1.3.5,1.826,1.826,0,0,0,1.5-.6c.9-.9.9-2.8.9-3.4h0a1.572,1.572,0,0,1-.9.9,2.232,2.232,0,0,1-1.4.3,2.761,2.761,0,0,1-3-3,3.2,3.2,0,0,1,.8-2.3,3.274,3.274,0,0,1,4.4-.1c.9.9,1,2.7,1,3.8,0,1.7-.2,3.3-1.3,4.3a2.931,2.931,0,0,1-2.1.8,2.52,2.52,0,0,1-1.9-.7,3.285,3.285,0,0,1-.8-1.5Zm3.4-6.2a1.915,1.915,0,0,0-1.5-.6,1.872,1.872,0,0,0-1.4.5,2.519,2.519,0,0,0-.6,1.9,2.376,2.376,0,0,0,.6,1.7,1.763,1.763,0,0,0,1.5.6,1.915,1.915,0,0,0,1.5-.6,2.258,2.258,0,0,0,.6-1.7A4.491,4.491,0,0,0,156.6,149.8Z"/><path d="M166.1,148.7v.8l-5.5,7.6h5.8v.8h-6.9V157l5.6-7.5h-5.3v-.8Z"/><path d="M174.8,148.7a2.572,2.572,0,0,1,2.1.7,2.111,2.111,0,0,1,.6,1.6,2.035,2.035,0,0,1-.6,1.5,1.35,1.35,0,0,1-1,.5h0a3.1,3.1,0,0,1,1.3.6,2.271,2.271,0,0,1,.6,1.6,2.567,2.567,0,0,1-.7,1.8,3.357,3.357,0,0,1-2.6.8h-3.7v-9.2h4Zm-2.9,4.1h2.6a2.275,2.275,0,0,0,1.5-.4,2.144,2.144,0,0,0,.4-1.2,1.6,1.6,0,0,0-.4-1.1,2.251,2.251,0,0,0-1.5-.5h-2.7v3.2Zm0,4.3h2.7a2.681,2.681,0,0,0,1.7-.4,1.813,1.813,0,0,0,.5-1.4,1.678,1.678,0,0,0-.6-1.4,3.148,3.148,0,0,0-1.7-.4h-2.7v3.6Z"/><path d="M185.9,152.8v.8H181v3.5h5.5v.8H180v-9.2h6.3v.8H181v3.2h4.9Z"/><path d="M195.8,154.9a3.84,3.84,0,0,1-1.1,2.3,3.617,3.617,0,0,1-2.8,1,4.316,4.316,0,0,1-3-1.1,5.582,5.582,0,0,1-1.3-3.7,4.966,4.966,0,0,1,1.3-3.7,3.9,3.9,0,0,1,2.9-1.1,4.271,4.271,0,0,1,2.9,1,3.159,3.159,0,0,1,.9,2.1h-1a2.433,2.433,0,0,0-2.7-2.2,2.885,2.885,0,0,0-2.2.8,4.331,4.331,0,0,0-1.1,3.1,4.976,4.976,0,0,0,1.1,3.4,3.008,3.008,0,0,0,2.2.8,3.119,3.119,0,0,0,2-.7,2.693,2.693,0,0,0,.8-1.7h1.1Z"/><path d="M198.7,150h0v8h-1v-9.2h1.5l3.1,7.9,3.1-7.9h1.5V158h-1v-8.1h0l-3.2,8h-.8Z"/><path d="M217,153.2v4.7h-.8v-1.6h0a4.735,4.735,0,0,1-1.1,1.3,4.2,4.2,0,0,1-5-.5,5.583,5.583,0,0,1-1.3-3.8,4.747,4.747,0,0,1,1.3-3.7,4.114,4.114,0,0,1,3.1-1.1,3.762,3.762,0,0,1,2.7.9,3.477,3.477,0,0,1,1,2h-1a2.594,2.594,0,0,0-.6-1.4,2.817,2.817,0,0,0-2.1-.7,3.178,3.178,0,0,0-2.4.9,4.854,4.854,0,0,0-1,3.1,4.591,4.591,0,0,0,1.1,3.2,3.064,3.064,0,0,0,2.3.9,2.924,2.924,0,0,0,2.1-.8,3.523,3.523,0,0,0,.9-2.5h-2.9v-.8H217Z"/><path d="M222.7,157.4a6.7,6.7,0,0,1-1.2-4.2,5.96,5.96,0,0,1,1.2-4,2.732,2.732,0,0,1,1.9-.8,2.568,2.568,0,0,1,2,.8,5.972,5.972,0,0,1,1.2,4,6.2,6.2,0,0,1-1.2,4.2,2.4,2.4,0,0,1-1.9.7A2.2,2.2,0,0,1,222.7,157.4Zm3.2-.5c.3-.3,1-1.2,1-3.5a5.183,5.183,0,0,0-1-3.5,1.656,1.656,0,0,0-1.2-.5,2.226,2.226,0,0,0-1.3.5c-.8.8-.9,2.5-.9,3.5a5.345,5.345,0,0,0,1,3.5,1.69,1.69,0,0,0,2.4,0Z"/><path d="M229.9,152.2a2.01,2.01,0,0,1-.4-1.3,2.413,2.413,0,0,1,.7-1.7,3.207,3.207,0,0,1,4,0,2.413,2.413,0,0,1,.7,1.7,1.978,1.978,0,0,1-.5,1.4,1.456,1.456,0,0,1-.9.6,2.268,2.268,0,0,1,1.1.6,2.607,2.607,0,0,1,.7,1.9,2.481,2.481,0,0,1-.8,2,3.706,3.706,0,0,1-4.6,0,2.651,2.651,0,0,1-.7-2,2.522,2.522,0,0,1,1.8-2.5A1.9,1.9,0,0,1,229.9,152.2Zm3.8,4.7a2.09,2.09,0,0,0,.6-1.5,1.8,1.8,0,0,0-.7-1.5,2.025,2.025,0,0,0-1.4-.4,2.155,2.155,0,0,0-1.6.6,2.389,2.389,0,0,0-.5,1.4,1.887,1.887,0,0,0,.6,1.5,2.578,2.578,0,0,0,1.6.6A4.467,4.467,0,0,0,233.7,156.9Zm-.2-4.8a1.656,1.656,0,0,0,.5-1.2,1.684,1.684,0,0,0-.5-1.2,2.107,2.107,0,0,0-2.6.1,1.656,1.656,0,0,0-.5,1.2,1.364,1.364,0,0,0,.5,1.2,2,2,0,0,0,1.3.4A1.793,1.793,0,0,0,233.5,152.1Z"/><path d="M236.1,150.4h.3a2.3,2.3,0,0,0,1.4-.4,1.525,1.525,0,0,0,.7-1.2h.7V158h-1v-7h-2.1Z"/><path d="M242.2,152.2a2.01,2.01,0,0,1-.4-1.3,2.413,2.413,0,0,1,.7-1.7,3.207,3.207,0,0,1,4,0,2.413,2.413,0,0,1,.7,1.7,1.978,1.978,0,0,1-.5,1.4,1.456,1.456,0,0,1-.9.6,2.268,2.268,0,0,1,1.1.6,2.607,2.607,0,0,1,.7,1.9,2.481,2.481,0,0,1-.8,2,3.706,3.706,0,0,1-4.6,0,2.651,2.651,0,0,1-.7-2,2.522,2.522,0,0,1,1.8-2.5A1.64,1.64,0,0,1,242.2,152.2Zm3.8,4.7a2.09,2.09,0,0,0,.6-1.5,1.8,1.8,0,0,0-.7-1.5,2.025,2.025,0,0,0-1.4-.4,2.155,2.155,0,0,0-1.6.6,2.389,2.389,0,0,0-.5,1.4,1.887,1.887,0,0,0,.6,1.5,2.578,2.578,0,0,0,1.6.6A6.012,6.012,0,0,0,246,156.9Zm-.2-4.8a1.656,1.656,0,0,0,.5-1.2,1.684,1.684,0,0,0-.5-1.2,2.107,2.107,0,0,0-2.6.1,1.656,1.656,0,0,0-.5,1.2,1.364,1.364,0,0,0,.5,1.2,2,2,0,0,0,1.3.4A1.95,1.95,0,0,0,245.8,152.1Z"/><path d="M253,148.7h.7L249,160.3h-.7Z"/><path d="M255.4,157.4a6.7,6.7,0,0,1-1.2-4.2,5.96,5.96,0,0,1,1.2-4,2.732,2.732,0,0,1,1.9-.8,2.568,2.568,0,0,1,2,.8,5.972,5.972,0,0,1,1.2,4,6.2,6.2,0,0,1-1.2,4.2,2.4,2.4,0,0,1-1.9.7A2.2,2.2,0,0,1,255.4,157.4Zm3.2-.5c.3-.3,1-1.2,1-3.5a5.183,5.183,0,0,0-1-3.5,1.656,1.656,0,0,0-1.2-.5,2.226,2.226,0,0,0-1.3.5c-.8.8-.9,2.5-.9,3.5a5.345,5.345,0,0,0,1,3.5,1.845,1.845,0,0,0,1.2.5A1.656,1.656,0,0,0,258.6,156.9Z"/><path d="M262.7,152.2a2.01,2.01,0,0,1-.4-1.3,2.413,2.413,0,0,1,.7-1.7,3.207,3.207,0,0,1,4,0,2.413,2.413,0,0,1,.7,1.7,1.978,1.978,0,0,1-.5,1.4,1.456,1.456,0,0,1-.9.6,2.268,2.268,0,0,1,1.1.6,2.607,2.607,0,0,1,.7,1.9,2.481,2.481,0,0,1-.8,2,3.706,3.706,0,0,1-4.6,0,2.651,2.651,0,0,1-.7-2,2.522,2.522,0,0,1,1.8-2.5A1.64,1.64,0,0,1,262.7,152.2Zm3.8,4.7a2.09,2.09,0,0,0,.6-1.5,1.8,1.8,0,0,0-.7-1.5,2.025,2.025,0,0,0-1.4-.4,2.155,2.155,0,0,0-1.6.6,2.389,2.389,0,0,0-.5,1.4,1.887,1.887,0,0,0,.6,1.5,2.578,2.578,0,0,0,1.6.6A6.012,6.012,0,0,0,266.5,156.9Zm-.2-4.8a1.656,1.656,0,0,0,.5-1.2,1.684,1.684,0,0,0-.5-1.2,2.107,2.107,0,0,0-2.6.1,1.656,1.656,0,0,0-.5,1.2,1.364,1.364,0,0,0,.5,1.2,2,2,0,0,0,1.3.4A1.95,1.95,0,0,0,266.3,152.1Z"/><path d="M275.6,157.9h-6v-.1a3.074,3.074,0,0,1,1.1-2.5,17.344,17.344,0,0,1,2-1.5,7.551,7.551,0,0,0,1.4-1.1,2.389,2.389,0,0,0,.5-1.4,1.755,1.755,0,0,0-.6-1.4,2.289,2.289,0,0,0-1.4-.5,2.375,2.375,0,0,0-1.5.5,2.155,2.155,0,0,0-.6,1.6v.1h-1v-.2a2.924,2.924,0,0,1,.8-2.1,2.885,2.885,0,0,1,2.2-.8,3.2,3.2,0,0,1,2.2.7,2.865,2.865,0,0,1,.8,2,2.568,2.568,0,0,1-.8,2,9.19,9.19,0,0,1-1.6,1.2l-.7.4a4.735,4.735,0,0,0-1.3,1.1,1.457,1.457,0,0,0-.5,1.2h4.9v.8Z"/><path d="M278.1,157.4a6.7,6.7,0,0,1-1.2-4.2,5.96,5.96,0,0,1,1.2-4,2.732,2.732,0,0,1,1.9-.8,2.568,2.568,0,0,1,2,.8,5.972,5.972,0,0,1,1.2,4,6.2,6.2,0,0,1-1.2,4.2,2.4,2.4,0,0,1-1.9.7A2.2,2.2,0,0,1,278.1,157.4Zm3.2-.5c.3-.3,1-1.2,1-3.5a5.183,5.183,0,0,0-1-3.5,1.656,1.656,0,0,0-1.2-.5,2.226,2.226,0,0,0-1.3.5c-.8.8-.9,2.5-.9,3.5a5.345,5.345,0,0,0,1,3.5,1.845,1.845,0,0,0,1.2.5A1.656,1.656,0,0,0,281.3,156.9Z"/><path d="M20.9,173.2a6.7,6.7,0,0,1-1.2-4.2,5.96,5.96,0,0,1,1.2-4,2.732,2.732,0,0,1,1.9-.8,2.568,2.568,0,0,1,2,.8,5.972,5.972,0,0,1,1.2,4,6.2,6.2,0,0,1-1.2,4.2,2.4,2.4,0,0,1-1.9.7A2.283,2.283,0,0,1,20.9,173.2Zm3.2-.6c.3-.3,1-1.2,1-3.5a5.183,5.183,0,0,0-1-3.5,1.656,1.656,0,0,0-1.2-.5,2.226,2.226,0,0,0-1.3.5c-.8.8-.9,2.5-.9,3.5a5.345,5.345,0,0,0,1,3.5,1.845,1.845,0,0,0,1.2.5A1.457,1.457,0,0,0,24.1,172.6Z"/><path d="M28.4,171.7a2.344,2.344,0,0,0,.5,1,1.793,1.793,0,0,0,1.3.5,1.826,1.826,0,0,0,1.5-.6c.9-.9.9-2.8.9-3.4h0a1.572,1.572,0,0,1-.9.9,2.232,2.232,0,0,1-1.4.3,2.761,2.761,0,0,1-3-3,3.2,3.2,0,0,1,.8-2.3,3.274,3.274,0,0,1,4.4-.1c.9.9,1,2.7,1,3.8,0,1.7-.2,3.3-1.3,4.3a2.931,2.931,0,0,1-2.1.8,2.52,2.52,0,0,1-1.9-.7,3.285,3.285,0,0,1-.8-1.5Zm3.4-6.1a1.915,1.915,0,0,0-1.5-.6,1.872,1.872,0,0,0-1.4.5,2.519,2.519,0,0,0-.6,1.9,2.376,2.376,0,0,0,.6,1.7,1.763,1.763,0,0,0,1.5.6,1.915,1.915,0,0,0,1.5-.6,2.258,2.258,0,0,0,.6-1.7A2.567,2.567,0,0,0,31.8,165.6Z"/><path d="M36.1,173.2a6.7,6.7,0,0,1-1.2-4.2,5.96,5.96,0,0,1,1.2-4,2.732,2.732,0,0,1,1.9-.8,2.568,2.568,0,0,1,2,.8,5.972,5.972,0,0,1,1.2,4,6.2,6.2,0,0,1-1.2,4.2,2.4,2.4,0,0,1-1.9.7A2.112,2.112,0,0,1,36.1,173.2Zm3.2-.6c.3-.3,1-1.2,1-3.5a5.183,5.183,0,0,0-1-3.5,1.656,1.656,0,0,0-1.2-.5,2.226,2.226,0,0,0-1.3.5c-.8.8-.9,2.5-.9,3.5a5.345,5.345,0,0,0,1,3.5,1.845,1.845,0,0,0,1.2.5A1.584,1.584,0,0,0,39.3,172.6Z"/><path d="M42.2,166.1h.2a2.3,2.3,0,0,0,1.4-.4,1.525,1.525,0,0,0,.7-1.2h.7v9.2h-1v-7H42.1v-.6Z"/><path d="M48.4,171.4a2.725,2.725,0,0,0,.6,1.2,1.91,1.91,0,0,0,1.5.5,2.375,2.375,0,0,0,1.5-.5,2.425,2.425,0,0,0,.7-1.9,2.376,2.376,0,0,0-.6-1.7,2,2,0,0,0-1.6-.6,2.521,2.521,0,0,0-1.9.8h-.9l.7-4.8h4.7v.8h-4l-.4,3.1a2.177,2.177,0,0,1,.8-.5,2.537,2.537,0,0,1,1.2-.2,3.139,3.139,0,0,1,2.1.7,2.967,2.967,0,0,1,.9,2.3,3.046,3.046,0,0,1-.9,2.4,3.235,3.235,0,0,1-2.3.8,3.163,3.163,0,0,1-2.2-.8,3.013,3.013,0,0,1-.8-1.7h.9Z"/><path d="M63.2,169v4.7h-.8v-1.6h0a3.482,3.482,0,0,1-1.1,1.3,4.2,4.2,0,0,1-5-.5,5.583,5.583,0,0,1-1.3-3.8,4.747,4.747,0,0,1,1.3-3.7,4.114,4.114,0,0,1,3.1-1.1,3.762,3.762,0,0,1,2.7.9,3.477,3.477,0,0,1,1,2h-1a2.594,2.594,0,0,0-.6-1.4,2.817,2.817,0,0,0-2.1-.7,3.178,3.178,0,0,0-2.4.9,4.854,4.854,0,0,0-1,3.1,4.591,4.591,0,0,0,1.1,3.2,3.064,3.064,0,0,0,2.3.9,2.924,2.924,0,0,0,2.1-.8,3.523,3.523,0,0,0,.9-2.5H59.5v-.8h3.7Z"/><path d="M70.9,173.7h-6v-.1a3.074,3.074,0,0,1,1.1-2.5,17.344,17.344,0,0,1,2-1.5,7.551,7.551,0,0,0,1.4-1.1,2.389,2.389,0,0,0,.5-1.4,1.755,1.755,0,0,0-.6-1.4,2.289,2.289,0,0,0-1.4-.5,2.375,2.375,0,0,0-1.5.5,2.155,2.155,0,0,0-.6,1.6v.1h-1v-.2a2.924,2.924,0,0,1,.8-2.1,2.885,2.885,0,0,1,2.2-.8,3.2,3.2,0,0,1,2.2.7,2.865,2.865,0,0,1,.8,2,2.568,2.568,0,0,1-.8,2,9.19,9.19,0,0,1-1.6,1.2l-.7.4a4.735,4.735,0,0,0-1.3,1.1,1.457,1.457,0,0,0-.5,1.2h4.9v.8Z"/><path d="M73.4,171.4a2.725,2.725,0,0,0,.6,1.2,1.91,1.91,0,0,0,1.5.5,2.375,2.375,0,0,0,1.5-.5,2.425,2.425,0,0,0,.7-1.9,2.376,2.376,0,0,0-.6-1.7,2,2,0,0,0-1.6-.6,2.521,2.521,0,0,0-1.9.8h-.9l.7-4.8h4.7v.8h-4l-.4,3.1a2.177,2.177,0,0,1,.8-.5,2.537,2.537,0,0,1,1.2-.2,3.139,3.139,0,0,1,2.1.7,2.967,2.967,0,0,1,.9,2.3,3.046,3.046,0,0,1-.9,2.4,3.235,3.235,0,0,1-2.3.8,3.163,3.163,0,0,1-2.2-.8,3.013,3.013,0,0,1-.8-1.7h.9Z"/><path d="M86.2,164.5h1.3l-3.8,3.8,4.1,5.4H86.5L83,168.9l-1.6,1.6v3.2h-1v-9.2h1v4.8Z"/><path d="M87.9,165.3v-.8H95v.8H92v8.4H91v-8.4Z"/><path d="M103.1,164.5a2.572,2.572,0,0,1,2.1.7,2.111,2.111,0,0,1,.6,1.6,2.035,2.035,0,0,1-.6,1.5,1.35,1.35,0,0,1-1,.5h0a3.1,3.1,0,0,1,1.3.6,2.271,2.271,0,0,1,.6,1.6,2.567,2.567,0,0,1-.7,1.8,3.357,3.357,0,0,1-2.6.8H99.1v-9.2h4Zm-2.9,4h2.6a2.275,2.275,0,0,0,1.5-.4,2.144,2.144,0,0,0,.4-1.2,1.6,1.6,0,0,0-.4-1.1,2.251,2.251,0,0,0-1.5-.5h-2.7v3.2Zm0,4.4h2.7a2.681,2.681,0,0,0,1.7-.4,1.813,1.813,0,0,0,.5-1.4,1.678,1.678,0,0,0-.6-1.4,3.148,3.148,0,0,0-1.7-.4h-2.7v3.6Z"/><path d="M114.3,168.5v.8h-4.9v3.5h5.5v.8h-6.5v-9.2h6.3v.8h-5.4v3.2h5Z"/><path d="M124.2,170.7a3.84,3.84,0,0,1-1.1,2.3,3.617,3.617,0,0,1-2.8,1,4.316,4.316,0,0,1-3-1.1,5.582,5.582,0,0,1-1.3-3.7,4.966,4.966,0,0,1,1.3-3.7,3.9,3.9,0,0,1,2.9-1.1,4.271,4.271,0,0,1,2.9,1,3.159,3.159,0,0,1,.9,2.1h-1a2.433,2.433,0,0,0-2.7-2.2,2.885,2.885,0,0,0-2.2.8,4.331,4.331,0,0,0-1.1,3.1,4.976,4.976,0,0,0,1.1,3.4,3.008,3.008,0,0,0,2.2.8,3.119,3.119,0,0,0,2-.7,2.693,2.693,0,0,0,.8-1.7h1.1Z"/><path d="M127,165.7h0v8h-1v-9.2h1.5l3.1,7.9,3.1-7.9h1.5v9.2h-1v-8h0l-3.2,8h-.8Z"/><path d="M145.3,169v4.7h-.8v-1.6h0a3.482,3.482,0,0,1-1.1,1.3,4.2,4.2,0,0,1-5-.5,5.583,5.583,0,0,1-1.3-3.8,4.747,4.747,0,0,1,1.3-3.7,4.114,4.114,0,0,1,3.1-1.1,3.762,3.762,0,0,1,2.7.9,3.477,3.477,0,0,1,1,2h-1a2.594,2.594,0,0,0-.6-1.4,2.817,2.817,0,0,0-2.1-.7,3.178,3.178,0,0,0-2.4.9,4.854,4.854,0,0,0-1,3.1,4.591,4.591,0,0,0,1.1,3.2,3.064,3.064,0,0,0,2.3.9,2.924,2.924,0,0,0,2.1-.8,3.523,3.523,0,0,0,.9-2.5h-2.9v-.8h3.7Z"/><path d="M151,173.2a6.7,6.7,0,0,1-1.2-4.2,5.96,5.96,0,0,1,1.2-4,2.732,2.732,0,0,1,1.9-.8,2.568,2.568,0,0,1,2,.8,5.972,5.972,0,0,1,1.2,4,6.2,6.2,0,0,1-1.2,4.2,2.4,2.4,0,0,1-1.9.7A2.283,2.283,0,0,1,151,173.2Zm3.2-.6c.3-.3,1-1.2,1-3.5a5.183,5.183,0,0,0-1-3.5,1.656,1.656,0,0,0-1.2-.5,2.226,2.226,0,0,0-1.3.5c-.8.8-.9,2.5-.9,3.5a5.345,5.345,0,0,0,1,3.5,1.845,1.845,0,0,0,1.2.5A1.457,1.457,0,0,0,154.2,172.6Z"/><path d="M158.5,171.7a2.344,2.344,0,0,0,.5,1,1.793,1.793,0,0,0,1.3.5,1.826,1.826,0,0,0,1.5-.6c.9-.9.9-2.8.9-3.4h0a1.572,1.572,0,0,1-.9.9,2.232,2.232,0,0,1-1.4.3,2.761,2.761,0,0,1-3-3,3.2,3.2,0,0,1,.8-2.3,3.274,3.274,0,0,1,4.4-.1c.9.9,1,2.7,1,3.8,0,1.7-.2,3.3-1.3,4.3a2.931,2.931,0,0,1-2.1.8,2.52,2.52,0,0,1-1.9-.7,3.285,3.285,0,0,1-.8-1.5Zm3.4-6.1a1.915,1.915,0,0,0-1.5-.6,1.872,1.872,0,0,0-1.4.5,2.519,2.519,0,0,0-.6,1.9,2.376,2.376,0,0,0,.6,1.7,1.763,1.763,0,0,0,1.5.6,1.915,1.915,0,0,0,1.5-.6,2.258,2.258,0,0,0,.6-1.7A2.567,2.567,0,0,0,161.9,165.6Z"/><path d="M166.2,173.2A6.7,6.7,0,0,1,165,169a5.96,5.96,0,0,1,1.2-4,2.732,2.732,0,0,1,1.9-.8,2.568,2.568,0,0,1,2,.8,5.972,5.972,0,0,1,1.2,4,6.2,6.2,0,0,1-1.2,4.2,2.4,2.4,0,0,1-1.9.7A2.112,2.112,0,0,1,166.2,173.2Zm3.2-.6c.3-.3,1-1.2,1-3.5a5.183,5.183,0,0,0-1-3.5,1.656,1.656,0,0,0-1.2-.5,2.226,2.226,0,0,0-1.3.5c-.8.8-.9,2.5-.9,3.5a5.345,5.345,0,0,0,1,3.5,1.845,1.845,0,0,0,1.2.5A1.584,1.584,0,0,0,169.4,172.6Z"/><path d="M172.3,171.5v-.8l4.3-6.2h1v6.2h1.5v.8h-1.5v2.2h-1v-2.2Zm4.3-.8v-4.9l-3.3,4.9Z"/><path d="M184.2,164.5h.7l-4.7,11.6h-.7Z"/><path d="M186.7,173.2a6.7,6.7,0,0,1-1.2-4.2,5.96,5.96,0,0,1,1.2-4,2.732,2.732,0,0,1,1.9-.8,2.568,2.568,0,0,1,2,.8,5.972,5.972,0,0,1,1.2,4,6.2,6.2,0,0,1-1.2,4.2,2.4,2.4,0,0,1-1.9.7A2.112,2.112,0,0,1,186.7,173.2Zm3.2-.6c.3-.3,1-1.2,1-3.5a5.183,5.183,0,0,0-1-3.5,1.656,1.656,0,0,0-1.2-.5,2.226,2.226,0,0,0-1.3.5c-.8.8-.9,2.5-.9,3.5a5.345,5.345,0,0,0,1,3.5,1.845,1.845,0,0,0,1.2.5A1.584,1.584,0,0,0,189.9,172.6Z"/><path d="M194.1,171.7a2.344,2.344,0,0,0,.5,1,1.793,1.793,0,0,0,1.3.5,1.826,1.826,0,0,0,1.5-.6c.9-.9.9-2.8.9-3.4h0a1.572,1.572,0,0,1-.9.9,2.232,2.232,0,0,1-1.4.3,2.761,2.761,0,0,1-3-3,3.2,3.2,0,0,1,.8-2.3,3.274,3.274,0,0,1,4.4-.1c.9.9,1,2.7,1,3.8,0,1.7-.2,3.3-1.3,4.3a2.931,2.931,0,0,1-2.1.8,2.52,2.52,0,0,1-1.9-.7,3.285,3.285,0,0,1-.8-1.5Zm3.5-6.1a1.915,1.915,0,0,0-1.5-.6,1.872,1.872,0,0,0-1.4.5,2.519,2.519,0,0,0-.6,1.9,2.376,2.376,0,0,0,.6,1.7,1.763,1.763,0,0,0,1.5.6,1.915,1.915,0,0,0,1.5-.6,2.258,2.258,0,0,0,.6-1.7A4,4,0,0,0,197.6,165.6Z"/><path d="M201.8,173.2a6.7,6.7,0,0,1-1.2-4.2,5.96,5.96,0,0,1,1.2-4,2.732,2.732,0,0,1,1.9-.8,2.568,2.568,0,0,1,2,.8,5.972,5.972,0,0,1,1.2,4,6.2,6.2,0,0,1-1.2,4.2,2.4,2.4,0,0,1-1.9.7A2.2,2.2,0,0,1,201.8,173.2Zm3.2-.6c.3-.3,1-1.2,1-3.5a5.183,5.183,0,0,0-1-3.5,1.656,1.656,0,0,0-1.2-.5,2.226,2.226,0,0,0-1.3.5c-.8.8-.9,2.5-.9,3.5a5.345,5.345,0,0,0,1,3.5,1.845,1.845,0,0,0,1.2.5A1.457,1.457,0,0,0,205,172.6Z"/><path d="M213.4,166.5a2.344,2.344,0,0,0-.5-1,1.793,1.793,0,0,0-1.3-.5,1.826,1.826,0,0,0-1.5.6c-.9.9-.9,2.8-.9,3.4h0a1.572,1.572,0,0,1,.9-.9,2.543,2.543,0,0,1,1.4-.3,2.737,2.737,0,0,1,2,.7,3.093,3.093,0,0,1,.9,2.3,3.2,3.2,0,0,1-.8,2.3,3.274,3.274,0,0,1-4.4.1c-.8-.8-1-2.2-1-3.8,0-1.7.2-3.3,1.3-4.3a2.931,2.931,0,0,1,2.1-.8,2.52,2.52,0,0,1,1.9.7,3.285,3.285,0,0,1,.8,1.5Zm-3.4,6.1a1.915,1.915,0,0,0,1.5.6,1.872,1.872,0,0,0,1.4-.5,2.519,2.519,0,0,0,.6-1.9,2.376,2.376,0,0,0-.6-1.7,2.107,2.107,0,0,0-1.5-.6,1.915,1.915,0,0,0-1.5.6,2.258,2.258,0,0,0-.6,1.7A2.41,2.41,0,0,0,210,172.6Z"/><path d="M220,173.2a6.7,6.7,0,0,1-1.2-4.2,5.96,5.96,0,0,1,1.2-4,2.732,2.732,0,0,1,1.9-.8,2.568,2.568,0,0,1,2,.8,5.972,5.972,0,0,1,1.2,4,6.2,6.2,0,0,1-1.2,4.2,2.4,2.4,0,0,1-1.9.7A2.2,2.2,0,0,1,220,173.2Zm3.2-.6c.3-.3,1-1.2,1-3.5a5.183,5.183,0,0,0-1-3.5,1.656,1.656,0,0,0-1.2-.5,2.226,2.226,0,0,0-1.3.5c-.8.8-.9,2.5-.9,3.5a5.345,5.345,0,0,0,1,3.5,1.845,1.845,0,0,0,1.2.5A1.584,1.584,0,0,0,223.2,172.6Z"/><path d="M232.6,173.7h-6v-.1a3.074,3.074,0,0,1,1.1-2.5,17.344,17.344,0,0,1,2-1.5,7.551,7.551,0,0,0,1.4-1.1,2.389,2.389,0,0,0,.5-1.4,1.755,1.755,0,0,0-.6-1.4,2.289,2.289,0,0,0-1.4-.5,2.375,2.375,0,0,0-1.5.5,2.155,2.155,0,0,0-.6,1.6v.1h-1v-.2a2.924,2.924,0,0,1,.8-2.1,2.885,2.885,0,0,1,2.2-.8,3.2,3.2,0,0,1,2.2.7,2.865,2.865,0,0,1,.8,2,2.568,2.568,0,0,1-.8,2,9.19,9.19,0,0,1-1.6,1.2l-.7.4a4.735,4.735,0,0,0-1.3,1.1,1.457,1.457,0,0,0-.5,1.2h4.9v.8Z"/><path d="M235.1,173.2a6.7,6.7,0,0,1-1.2-4.2,5.96,5.96,0,0,1,1.2-4,2.732,2.732,0,0,1,1.9-.8,2.568,2.568,0,0,1,2,.8,5.972,5.972,0,0,1,1.2,4,6.2,6.2,0,0,1-1.2,4.2,2.4,2.4,0,0,1-1.9.7A2.2,2.2,0,0,1,235.1,173.2Zm3.2-.6c.3-.3,1-1.2,1-3.5a5.183,5.183,0,0,0-1-3.5,1.656,1.656,0,0,0-1.2-.5,2.226,2.226,0,0,0-1.3.5c-.8.8-.9,2.5-.9,3.5a5.345,5.345,0,0,0,1,3.5,1.845,1.845,0,0,0,1.2.5A1.457,1.457,0,0,0,238.3,172.6Z"/><path d="M241.2,166.1h.3a2.3,2.3,0,0,0,1.4-.4,1.525,1.525,0,0,0,.7-1.2h.7v9.2h-1v-7h-2.1Z"/><path d="M247.5,171.4a1.974,1.974,0,0,0,.6,1.2,1.91,1.91,0,0,0,1.5.5,2.375,2.375,0,0,0,1.5-.5,2.425,2.425,0,0,0,.7-1.9,2.376,2.376,0,0,0-.6-1.7,2,2,0,0,0-1.6-.6,2.521,2.521,0,0,0-1.9.8h-.9l.7-4.8h4.7v.8h-4l-.4,3.1a2.177,2.177,0,0,1,.8-.5,2.537,2.537,0,0,1,1.2-.2,3.139,3.139,0,0,1,2.1.7,2.967,2.967,0,0,1,.9,2.3,3.046,3.046,0,0,1-.9,2.4,3.235,3.235,0,0,1-2.3.8,3.163,3.163,0,0,1-2.2-.8,3.013,3.013,0,0,1-.8-1.7h.9Z"/><path d="M260.3,164.5h1.3l-3.8,3.8,4.1,5.4h-1.3l-3.5-4.8-1.6,1.6v3.2h-1v-9.2h1v4.8Z"/><path d="M262,165.3v-.8h7.1v.8h-3v8.4h-1v-8.4Z"/><path d="M24.2,180.3a2.572,2.572,0,0,1,2.1.7,2.111,2.111,0,0,1,.6,1.6,2.035,2.035,0,0,1-.6,1.5,1.35,1.35,0,0,1-1,.5h0a3.1,3.1,0,0,1,1.3.6,2.271,2.271,0,0,1,.6,1.6,2.567,2.567,0,0,1-.7,1.8,3.357,3.357,0,0,1-2.6.8H20.2v-9.1Zm-2.9,4H24a2.275,2.275,0,0,0,1.5-.4,2.144,2.144,0,0,0,.4-1.2,1.6,1.6,0,0,0-.4-1.1,2.251,2.251,0,0,0-1.5-.5H21.3Zm0,4.3H24a2.681,2.681,0,0,0,1.7-.4,1.813,1.813,0,0,0,.5-1.4,1.678,1.678,0,0,0-.6-1.4,3.148,3.148,0,0,0-1.7-.4H21.2v3.6Z"/><path d="M35.3,184.3v.8H30.4v3.5H36v.8H29.5v-9.1h6.3v.8H30.4v3.2Z"/><path d="M45.2,186.5a3.84,3.84,0,0,1-1.1,2.3,3.617,3.617,0,0,1-2.8,1,4.316,4.316,0,0,1-3-1.1A5.582,5.582,0,0,1,37,185a4.966,4.966,0,0,1,1.3-3.7,3.9,3.9,0,0,1,2.9-1.1,4.271,4.271,0,0,1,2.9,1,3.159,3.159,0,0,1,.9,2.1H44a2.433,2.433,0,0,0-2.7-2.2,2.885,2.885,0,0,0-2.2.8A4.331,4.331,0,0,0,38,185a4.976,4.976,0,0,0,1.1,3.4,3.008,3.008,0,0,0,2.2.8,3.119,3.119,0,0,0,2-.7,2.693,2.693,0,0,0,.8-1.7h1.1Z"/><path d="M48.1,181.5h0v8h-1v-9.2h1.5l3.1,7.9,3.1-7.9h1.5v9.2h-1v-8h0l-3.2,8h-.8Z"/><path d="M66.4,184.7v4.7h-.8v-1.6h0a3.482,3.482,0,0,1-1.1,1.3,4.2,4.2,0,0,1-5-.5,5.583,5.583,0,0,1-1.3-3.8,4.747,4.747,0,0,1,1.3-3.7,4.114,4.114,0,0,1,3.1-1.1,3.762,3.762,0,0,1,2.7.9,3.477,3.477,0,0,1,1,2h-1a2.594,2.594,0,0,0-.6-1.4,2.817,2.817,0,0,0-2.1-.7,3.178,3.178,0,0,0-2.4.9,4.854,4.854,0,0,0-1,3.1,4.591,4.591,0,0,0,1.1,3.2,3.064,3.064,0,0,0,2.3.9,2.924,2.924,0,0,0,2.1-.8,3.523,3.523,0,0,0,.9-2.5H62.7v-.8h3.7Z"/><path d="M72.1,189a6.7,6.7,0,0,1-1.2-4.2,5.96,5.96,0,0,1,1.2-4A2.732,2.732,0,0,1,74,180a2.568,2.568,0,0,1,2,.8,5.972,5.972,0,0,1,1.2,4A6.2,6.2,0,0,1,76,189a2.4,2.4,0,0,1-1.9.7A2.485,2.485,0,0,1,72.1,189Zm3.2-.6c.3-.3,1-1.2,1-3.5a5.183,5.183,0,0,0-1-3.5,1.656,1.656,0,0,0-1.2-.5,2.226,2.226,0,0,0-1.3.5c-.8.8-.9,2.5-.9,3.5a5.345,5.345,0,0,0,1,3.5,1.69,1.69,0,0,0,2.4,0Z"/><path d="M79.6,187.5a2.344,2.344,0,0,0,.5,1,1.793,1.793,0,0,0,1.3.5,1.826,1.826,0,0,0,1.5-.6c.9-.9.9-2.8.9-3.4h0a1.572,1.572,0,0,1-.9.9,2.232,2.232,0,0,1-1.4.3,2.761,2.761,0,0,1-3-3,3.2,3.2,0,0,1,.8-2.3,3.274,3.274,0,0,1,4.4-.1c.9.9,1,2.7,1,3.8,0,1.7-.2,3.3-1.3,4.3a2.931,2.931,0,0,1-2.1.8,2.52,2.52,0,0,1-1.9-.7,3.285,3.285,0,0,1-.8-1.5Zm3.4-6.2a1.915,1.915,0,0,0-1.5-.6,1.872,1.872,0,0,0-1.4.5,2.519,2.519,0,0,0-.6,1.9,2.376,2.376,0,0,0,.6,1.7,1.763,1.763,0,0,0,1.5.6,1.915,1.915,0,0,0,1.5-.6,2.258,2.258,0,0,0,.6-1.7A3.4,3.4,0,0,0,83,181.3Z"/><path d="M85.9,181.9h.2a2.3,2.3,0,0,0,1.4-.4,1.525,1.525,0,0,0,.7-1.2h.7v9.2h-1v-7H85.8v-.6Z"/><path d="M96.1,182.3a2.344,2.344,0,0,0-.5-1,1.793,1.793,0,0,0-1.3-.5,1.826,1.826,0,0,0-1.5.6c-.9.9-.9,2.8-.9,3.4h0a1.572,1.572,0,0,1,.9-.9,2.543,2.543,0,0,1,1.4-.3,2.737,2.737,0,0,1,2,.7,3.093,3.093,0,0,1,.9,2.3,3.2,3.2,0,0,1-.8,2.3,3.274,3.274,0,0,1-4.4.1c-.8-.8-1-2.2-1-3.8,0-1.7.2-3.3,1.3-4.3a2.931,2.931,0,0,1,2.1-.8,2.52,2.52,0,0,1,1.9.7,3.285,3.285,0,0,1,.8,1.5Zm-3.4,6.1a1.915,1.915,0,0,0,1.5.6,1.872,1.872,0,0,0,1.4-.5,2.519,2.519,0,0,0,.6-1.9,2.376,2.376,0,0,0-.6-1.7,2.107,2.107,0,0,0-1.5-.6,1.915,1.915,0,0,0-1.5.6,2.258,2.258,0,0,0-.6,1.7A3.115,3.115,0,0,0,92.7,188.4Z"/><path d="M102.5,180.3h.7l-4.7,11.6h-.7Z"/><path d="M105,189a6.7,6.7,0,0,1-1.2-4.2,5.96,5.96,0,0,1,1.2-4,2.732,2.732,0,0,1,1.9-.8,2.568,2.568,0,0,1,2,.8,5.972,5.972,0,0,1,1.2,4,6.2,6.2,0,0,1-1.2,4.2,2.4,2.4,0,0,1-1.9.7A2.485,2.485,0,0,1,105,189Zm3.2-.6c.3-.3,1-1.2,1-3.5a5.183,5.183,0,0,0-1-3.5,1.656,1.656,0,0,0-1.2-.5,2.226,2.226,0,0,0-1.3.5c-.8.8-.9,2.5-.9,3.5a5.345,5.345,0,0,0,1,3.5,1.69,1.69,0,0,0,2.4,0Z"/><path d="M112.5,187.5a2.344,2.344,0,0,0,.5,1,1.793,1.793,0,0,0,1.3.5,1.826,1.826,0,0,0,1.5-.6c.9-.9.9-2.8.9-3.4h0a1.572,1.572,0,0,1-.9.9,2.232,2.232,0,0,1-1.4.3,2.761,2.761,0,0,1-3-3,3.2,3.2,0,0,1,.8-2.3,3.274,3.274,0,0,1,4.4-.1c.9.9,1,2.7,1,3.8,0,1.7-.2,3.3-1.3,4.3a2.931,2.931,0,0,1-2.1.8,2.52,2.52,0,0,1-1.9-.7,3.285,3.285,0,0,1-.8-1.5Zm3.4-6.2a1.915,1.915,0,0,0-1.5-.6,1.872,1.872,0,0,0-1.4.5,2.519,2.519,0,0,0-.6,1.9,2.376,2.376,0,0,0,.6,1.7,1.763,1.763,0,0,0,1.5.6,1.915,1.915,0,0,0,1.5-.6,2.258,2.258,0,0,0,.6-1.7A4.491,4.491,0,0,0,115.9,181.3Z"/><path d="M118.8,181.9h.2a2.3,2.3,0,0,0,1.4-.4,1.525,1.525,0,0,0,.7-1.2h.7v9.2h-1v-7h-2.1v-.6Z"/><path d="M124.9,183.7a2.01,2.01,0,0,1-.4-1.3,2.413,2.413,0,0,1,.7-1.7,3.207,3.207,0,0,1,4,0,2.413,2.413,0,0,1,.7,1.7,1.978,1.978,0,0,1-.5,1.4,1.456,1.456,0,0,1-.9.6,2.268,2.268,0,0,1,1.1.6,2.607,2.607,0,0,1,.7,1.9,2.481,2.481,0,0,1-.8,2,3.706,3.706,0,0,1-4.6,0,2.651,2.651,0,0,1-.7-2,2.522,2.522,0,0,1,1.8-2.5A1.64,1.64,0,0,1,124.9,183.7Zm3.8,4.7a2.09,2.09,0,0,0,.6-1.5,1.8,1.8,0,0,0-.7-1.5,2.025,2.025,0,0,0-1.4-.4,2.155,2.155,0,0,0-1.6.6,2.389,2.389,0,0,0-.5,1.4,1.887,1.887,0,0,0,.6,1.5,2.578,2.578,0,0,0,1.6.6A3.653,3.653,0,0,0,128.7,188.4Zm-.2-4.7a1.656,1.656,0,0,0,.5-1.2,1.364,1.364,0,0,0-.5-1.2,2.107,2.107,0,0,0-2.6.1,1.656,1.656,0,0,0-.5,1.2,1.364,1.364,0,0,0,.5,1.2,2,2,0,0,0,1.3.4A4.284,4.284,0,0,0,128.5,183.7Z"/><path d="M135.8,189a6.7,6.7,0,0,1-1.2-4.2,5.96,5.96,0,0,1,1.2-4,2.732,2.732,0,0,1,1.9-.8,2.568,2.568,0,0,1,2,.8,5.972,5.972,0,0,1,1.2,4,6.2,6.2,0,0,1-1.2,4.2,2.4,2.4,0,0,1-1.9.7A2.606,2.606,0,0,1,135.8,189Zm3.3-.6c.3-.3,1-1.2,1-3.5a5.183,5.183,0,0,0-1-3.5,1.656,1.656,0,0,0-1.2-.5,2.226,2.226,0,0,0-1.3.5c-.8.8-.9,2.5-.9,3.5a5.345,5.345,0,0,0,1,3.5,1.845,1.845,0,0,0,1.2.5A2.078,2.078,0,0,0,139.1,188.4Z"/><path d="M143.3,187.5a2.344,2.344,0,0,0,.5,1,1.793,1.793,0,0,0,1.3.5,1.826,1.826,0,0,0,1.5-.6c.9-.9.9-2.8.9-3.4h0a1.572,1.572,0,0,1-.9.9,2.232,2.232,0,0,1-1.4.3,2.761,2.761,0,0,1-3-3,3.2,3.2,0,0,1,.8-2.3,3.274,3.274,0,0,1,4.4-.1c.9.9,1,2.7,1,3.8,0,1.7-.2,3.3-1.3,4.3a2.931,2.931,0,0,1-2.1.8,2.52,2.52,0,0,1-1.9-.7,3.285,3.285,0,0,1-.8-1.5Zm3.4-6.2a1.915,1.915,0,0,0-1.5-.6,1.872,1.872,0,0,0-1.4.5,2.519,2.519,0,0,0-.6,1.9,2.376,2.376,0,0,0,.6,1.7,1.763,1.763,0,0,0,1.5.6,1.915,1.915,0,0,0,1.5-.6,2.258,2.258,0,0,0,.6-1.7A2.743,2.743,0,0,0,146.7,181.3Z"/><path d="M151,189a6.7,6.7,0,0,1-1.2-4.2,5.96,5.96,0,0,1,1.2-4,2.732,2.732,0,0,1,1.9-.8,2.568,2.568,0,0,1,2,.8,5.972,5.972,0,0,1,1.2,4,6.2,6.2,0,0,1-1.2,4.2,3.065,3.065,0,0,1-3.9,0Zm3.2-.6c.3-.3,1-1.2,1-3.5a5.183,5.183,0,0,0-1-3.5,1.656,1.656,0,0,0-1.2-.5,2.226,2.226,0,0,0-1.3.5c-.8.8-.9,2.5-.9,3.5a5.345,5.345,0,0,0,1,3.5,1.845,1.845,0,0,0,1.2.5A2.078,2.078,0,0,0,154.2,188.4Z"/><path d="M157.1,181.9h.2a2.3,2.3,0,0,0,1.4-.4,1.525,1.525,0,0,0,.7-1.2h.7v9.2h-1v-7H157v-.6Z"/><path d="M163.3,187.2a2.725,2.725,0,0,0,.6,1.2,1.91,1.91,0,0,0,1.5.5,2.375,2.375,0,0,0,1.5-.5,2.425,2.425,0,0,0,.7-1.9,2.376,2.376,0,0,0-.6-1.7,2,2,0,0,0-1.6-.6,2.521,2.521,0,0,0-1.9.8h-.9l.7-4.8H168v.8h-4l-.4,3.1a2.177,2.177,0,0,1,.8-.5,2.537,2.537,0,0,1,1.2-.2,3.139,3.139,0,0,1,2.1.7,2.967,2.967,0,0,1,.9,2.3,3.046,3.046,0,0,1-.9,2.4,3.235,3.235,0,0,1-2.3.8,3.163,3.163,0,0,1-2.2-.8,3.013,3.013,0,0,1-.8-1.7h.9Z"/><path d="M176.2,180.3h1.3l-3.8,3.8,4.1,5.4h-1.3l-3.5-4.8-1.6,1.6v3.2h-1v-9.2h1v4.8Z"/><path d="M177.8,181.1v-.8h7.1v.8h-3v8.4h-1v-8.4Z"/><path d="M195.2,183.3v.6h-6.6v-.6Zm0,2.6v.6h-6.6v-.6Z"/></g></g></svg>