<svg id="Capa_1" data-name="Capa 1" xmlns="http://www.w3.org/2000/svg" viewBox="0 0 283.636 373.933"><defs><style>.cls-1,.cls-17,.cls-9{fill:none;}.cls-2{fill:#040303;}.cls-3{fill:#b2b2b2;}.cls-4{fill:#f7bd9e;}.cls-5{fill:#ec8202;}.cls-6{fill:#bf6b00;}.cls-7{fill:#f2ac82;}.cls-8{fill:#b3b2b2;}.cls-9{stroke:#b3b2b2;}.cls-17,.cls-9{stroke-linecap:round;stroke-linejoin:round;stroke-width:0;}.cls-10{fill:#f8c09f;}.cls-11{fill:#f6bc9d;}.cls-12{fill:#f5bb9d;}.cls-13{fill:#f1ad83;}.cls-14{fill:#a7aeb1;}.cls-15{fill:#383534;}.cls-16{fill:#fdb78b;}.cls-17{stroke:#abb3b6;}.cls-18{fill:#fefefe;}</style></defs><path class="cls-1" d="M350.3,289.21q.038,72.776.045,145.551l.186.773-.186-.773Q350.324,361.986,350.3,289.21Z" transform="translate(-265.521 -180.885)"/><path class="cls-1" d="M350,283.625l.049.846-.049-.846Z" transform="translate(-265.521 -180.885)"/><path class="cls-1" d="M350.186,282.936a1.085,1.085,0,0,1-.046.34A1.089,1.089,0,0,0,350.186,282.936Z" transform="translate(-265.521 -180.885)"/><path class="cls-1" d="M494.161,255.809v-.036q-.029-26.611-.056-53.225.029,26.613.056,53.226Z" transform="translate(-265.521 -180.885)"/><path class="cls-1" d="M467.622,456a9.657,9.657,0,0,0-1.2,0A9.657,9.657,0,0,1,467.622,456Z" transform="translate(-265.521 -180.885)"/><polygon class="cls-1" points="158.367 359.695 158.223 359.659 158.366 359.696 158.367 359.695"/><path class="cls-1" d="M366.046,490c3.925,2.506,7.884,4.963,11.819,7.456q13.51,8.178,27.029,16.347-13.529-8.149-27.029-16.349C373.93,494.959,369.971,492.5,366.046,490Z" transform="translate(-265.521 -180.885)"/><path class="cls-1" d="M450.974,486.131c8.244-8.478,13.786-18.853,18.451-29.828,5.258-.641,10.174-1.945,14.38-4.6-4.206,2.659-9.123,3.962-14.381,4.6C464.76,467.278,459.218,477.653,450.974,486.131Z" transform="translate(-265.521 -180.885)"/><path class="cls-1" d="M494.488,422.472c.07-9.731.161-19.464-.394-29.189h0C494.649,403.008,494.558,412.741,494.488,422.472Z" transform="translate(-265.521 -180.885)"/><path class="cls-1" d="M485.547,396.382l.788-.134a12.391,12.391,0,0,0,5.643-1.775,12.374,12.374,0,0,1-5.641,1.774Z" transform="translate(-265.521 -180.885)"/><path class="cls-1" d="M464.612,456.263q-15.525-.246-31.05-.247,15.525,0,31.051.247a11.816,11.816,0,0,1,1.806-.259A11.724,11.724,0,0,0,464.612,456.263Z" transform="translate(-265.521 -180.885)"/><path class="cls-1" d="M471.7,388.7c-3.438-6.108-2.079-13.008,3.95-19.382,2.362-2.5,4.82-4.9,7.244-7.341.841-.845,1.8-1.613,1.519-3.019-.35-1.74-1.8-1.181-2.875-1.358-7.417-1.225-12.82-4.7-14.211-12.669a14.091,14.091,0,0,1,3.951-12.681c4.263-4.493,8.945-8.6,12.526-13.715h0c-.013-29.03-.058-58.06.013-87.09.006-2.585-.377-3.653-3.359-3.645q-58.066.16-116.132.019c-2.527,0-3.346.581-3.342,3.251q.115,89.476-.01,178.954c0,2.977,1.048,3.406,3.651,3.377,11.664-.127,23.331-.055,35-.055,26.779,0,53.558-.061,80.337.079,3.216.017,4.056-.924,3.866-3.978-.261-4.226-.088-8.48-.1-12.721C478.782,395.444,474.356,393.422,471.7,388.7Z" transform="translate(-265.521 -180.885)"/><path class="cls-1" d="M434.349,516.629a2.575,2.575,0,0,1,.547.249h0A2.681,2.681,0,0,0,434.349,516.629Z" transform="translate(-265.521 -180.885)"/><path class="cls-1" d="M415.1,553.922q.063.439.127.879-.065-.44-.127-.879Z" transform="translate(-265.521 -180.885)"/><path class="cls-1" d="M434.435,517.389l.01-.012-.01.012Z" transform="translate(-265.521 -180.885)"/><path class="cls-2" d="M350.186,282.936a1.089,1.089,0,0,1-.046.34,1.917,1.917,0,0,1-.143.349l.049.846c.087,1.58.249,3.16.25,4.739q.038,72.776.045,145.551l.186.773c.763,2.244,1.365,4.56,2.318,6.721,3.961,8.978,10.759,13.749,20.73,13.779,9.646.03,19.291.15,28.937.23q15.525-.249,31.05-.248t31.05.247a11.724,11.724,0,0,1,1.807-.259,9.657,9.657,0,0,1,1.2,0,8.822,8.822,0,0,1,1.8.3c5.258-.642,10.175-1.945,14.381-4.6a23.683,23.683,0,0,0,6.724-6.4,22.055,22.055,0,0,0,3.921-13.1c-.006-3.243.015-6.487.038-9.731.07-9.731.161-19.464-.394-29.189-.7.4-1.406.807-2.116,1.19a12.391,12.391,0,0,1-5.643,1.775l-.788.134-1.825.341c.013,4.241-.16,8.5.1,12.721.19,3.054-.65,4-3.866,3.978-26.779-.14-53.558-.079-80.337-.079-11.667,0-23.334-.072-35,.055-2.6.029-3.655-.4-3.651-3.377q.138-89.477.01-178.954c0-2.67.815-3.256,3.342-3.251q58.067.111,116.132-.019c2.982-.008,3.365,1.06,3.359,3.645-.071,29.03-.026,58.06-.013,87.09,3.116-2.357,5.533-5.417,8.226-8.2.384-.4.775-.789,1.173-1.172,1.667-1.6.5-3.772,1.05-5.605q-.01-21.495-.023-42.989l-.015-.812a.629.629,0,0,1-.039-.723l-.012-3.222v-.035q-.029-26.613-.056-53.226c-.756-9.36-4.481-16.75-13.626-20.547a62.792,62.792,0,0,0-7.089-.792c-32.848-.052-65.7-.181-98.542.029-15.285.1-24.516,9.915-24.524,25.186,0,7.814.074,15.629-.016,23.442-.2,17.472.539,34.952-.419,52.418A.955.955,0,0,1,350.186,282.936Zm72.98,142.31c4.9.259,5.407.678,5.571,5.414.132,3.784-1.4,5.2-5.15,5.007-4.552-.234-5.174-.694-5.181-5.82C417.792,426.577,419.23,425.038,423.166,425.246ZM412.484,205.7c3.174.022,6.347.007,9.52.006q2.479,0,4.959,0t4.958-.006c1.858-.008,3.724.338,3.658,2.58-.057,1.918-1.726,2.375-3.5,2.366-6.611-.033-13.222-.022-19.833-.007-1.725,0-3.417-.323-3.433-2.367C408.8,205.986,410.619,205.686,412.484,205.7Z" transform="translate(-265.521 -180.885)"/><path class="cls-3" d="M546.853,347.135c-3.867-6.492-10.012-7.668-16.9-6.864-.31.175-.615.363-.938.512-.042.019-.176-.162-.268-.251q.474-.282.946-.568c3.079-4.656,7.438-8.135,11.214-12.147,6.128-6.51,7.323-13.637,3-20.026-4.134-6.112-10.186-7.452-17.066-6.456-.183.275-.368.586-.682.148-.02-.027.266-.274.409-.42.841-1.182,1.631-2.4,2.534-3.538,4.652-5.837,8.56-12.066,10.638-19.328,2.057-7.188-.542-13.083-5.393-18.037-3.9-3.983-8.874-3.4-13.779-1.935-.7.209-1.49,1.043-2.163.275-.881-1-.166-2.094.441-2.883,2.581-3.352,5.376-6.543,7.894-9.94,6.08-8.2,11.874-16.584,14.42-26.7,1.115-4.434,1.237-8.764-2.5-12.126-4.965-4.471-10.319-8.159-17.465-5.178-2.3.961-3,.912-3.437-1.923-1.012-6.574-3.381-12.651-9.9-15.8-8.723-4.211-17.967-3.127-27.155-2.265-.083.008-.148.209-.221.319,9.145,3.8,12.87,11.187,13.626,20.547,7.665-3.419,14.316-1.875,20.256,3.912,4.526,4.411,3.775,9.487,2.189,14.7-3.3,10.849-10.042,19.693-16.834,28.479-1.679,2.172-3.08,4.657-5.555,6.131v.036l.012,3.222h0a3.353,3.353,0,0,1,.649.027,5.711,5.711,0,0,1,.781-.1c4.326-2.38,8.963-3.217,12.953,0,5.58,4.5,9.3,10.166,7.5,17.946-1.865,8.071-6.333,14.743-11.339,21.119-.812,1.035-1.929,1.847-2.025,3.307,6.139-.684,11.786-.206,16.2,5.074a14.717,14.717,0,0,1-.243,19.139c-2.305,2.538-4.527,5.158-6.932,7.6-2.3,2.338-4.8,4.49-6.97,7.057,3.705.036,7.17-.723,10.523.648,10.789,4.413,13.174,16.6,4.9,25.287-8.653,9.084-17.375,18.1-26.067,27.151.555,9.725.464,19.458.394,29.189-.023,3.244-.044,6.488-.038,9.731a22.055,22.055,0,0,1-3.921,13.1,23.683,23.683,0,0,1-6.724,6.4c-4.206,2.659-9.122,3.963-14.38,4.6-4.665,10.975-10.207,21.35-18.451,29.828a62.115,62.115,0,0,1-6.162,5.55,22.6,22.6,0,0,1-11.431,5.161,5.788,5.788,0,0,0-5.161,3.532c-.357.7-.752,1.388-1.157,2.067a24.918,24.918,0,0,0-3.124,6.379c1.13,1.968.265,2.572-.953,2.933-.406.121-.852.215-1.276.323l-.909,2.388a5.266,5.266,0,0,1,.2,1.317c0,.894-.413,1.593-1.718,1.868a4.734,4.734,0,0,0-.092.788c.763.733.706,1.106.3,1.325a3.506,3.506,0,0,1-1,.275q-.141.865-.283,1.731l.126-.065c.961-.083,1.57.286,1.671,1.305l.725.392c.766-.665,1.093-.475,1.3-.052.123.254.2.592.31.88a3.6,3.6,0,0,0,.23.294,4.2,4.2,0,0,0,2.136,1.262l.543-.435.335,1.017,1.587.845c1.025-.809.633.269.8.6a.9.9,0,0,0,.124.117.75.75,0,0,0,.463.149,1.729,1.729,0,0,1,1.535.457,2.194,2.194,0,0,1,.5.892c.21.682-.264.869-.809.957l-.39.717.435.543-1.017.335q-.423.793-.845,1.587c.05.078.093.151.129.22.252.482.169.746-.059.916a4.726,4.726,0,0,1-1.065.4,4.071,4.071,0,0,0-1.558,2.367l.435.543-1.017.335q-.457.787-.917,1.574l.424.449-.591.174.143.037h0q-.513.429-1.027.855l-1.431,2.4c.81,1.165.275,1.361-.37,1.477l-.178.031c-.119.019-.238.039-.35.065a1.476,1.476,0,0,0-.305.1l-.388.716.435.543-1.017.335-.844,1.587c.808,1.025-.269.632-.6.8a.841.841,0,0,0-.116.124.749.749,0,0,0-.151.463,1.472,1.472,0,0,1-.62,1.6,1.856,1.856,0,0,1-.675.2q-.195.36-.389.721l.434.543-1.017.334a.429.429,0,0,0-.175.453q.063.439.127.879l22.357.017.755-.559c4.918-7.682,9.787-15.4,14.794-23.019,1.006-1.532.768-2.17-.717-3.034-3.763-2.191-7.435-4.539-11.083-6.787a13.208,13.208,0,0,0,1.232-2.03c2.676-7.1,6.692-13.5,10.414-20.064a3.968,3.968,0,0,1,3.711-2.375c4.27-.121,7.911-2.058,11.251-4.513,11.366-8.353,18.2-20.152,24.108-32.521a7.007,7.007,0,0,1,5.8-4.318c13.129-2.431,20.759-11.687,20.761-25.08,0-11.538.065-23.076-.051-34.612a7.652,7.652,0,0,1,2.484-5.918q11.979-12.189,23.721-24.609C549.77,360.1,550.541,353.326,546.853,347.135Zm-119.018,166.3a3,3,0,0,1,.015-.653c.019-.082.29-.195.307-.175a3.99,3.99,0,0,1,.342.514Zm3.027,1.316c-.082.158-.367.212-.568.313-.06-.206-.218-.461-.147-.574a.554.554,0,0,1,.247-.189c.1-.05.22-.092.318-.146a4.194,4.194,0,0,1,.164.474A.211.211,0,0,1,430.862,514.755Zm4.035,2.124c-.151.167-.3.333-.452.5l-.01.012h0c-.056-.081-.118-.16-.175-.241a1.048,1.048,0,0,1-.14-.253c-.022-.058.17-.279.229-.266a2.681,2.681,0,0,1,.548.248h0Zm3.285,2.928a2.993,2.993,0,0,1,.016-.653c.019-.083.289-.2.307-.175a3.911,3.911,0,0,1,.342.513Z" transform="translate(-265.521 -180.885)"/><path class="cls-4" d="M366.046,490c3.925,2.506,7.884,4.962,11.819,7.454q13.51,8.181,27.029,16.349c.251.15.508.291.768.425.782.4,1.6.743,2.392,1.128a22.545,22.545,0,0,1,4.937-9.35,43.777,43.777,0,0,1,5.979-5.655,51.532,51.532,0,0,1,16.257-8.573c5.813-1.945,9.455-7.458,13.263-12.13,5.987-7.348,11.057-15.374,16.123-23.382q-15.526-.246-31.051-.247t-31.05.248c-6.246,2.114-12.856,2.164-19.245,3.4-9.165,1.78-17.589.066-25.63-4.25a33.212,33.212,0,0,1-12.663-12.25,10.427,10.427,0,0,1-1.4-5.682q.063-79.368.052-158.735c-.954-1.543-2.538-2.254-4.031-3.109-8.046-4.611-12.927-2.407-15,6.647-1.17,5.114-.759,10.27-.793,15.418-.273,41.036-.637,82.071-.7,123.107-.015,9.709,2.554,18.784,9.764,26.028,3.184,3.2,3.227,7.2,2.351,11.493-.737,3.611-3.673,6.087-4.327,9.64,10.037,7.1,20.968,12.776,31.247,19.5Q364.082,488.745,366.046,490Z" transform="translate(-265.521 -180.885)"/><path class="cls-5" d="M377.865,497.453c-3.935-2.493-7.894-4.95-11.819-7.456q-1.963-1.254-3.913-2.526c-10.279-6.72-21.21-12.392-31.247-19.5-1.829-1.053-3.741-1.988-5.466-3.192-1.654-1.155-2.413-1.008-3.573.836q-22.32,35.449-44.839,70.772c-3.788,5.975-7.518,11.986-11.487,18.318h76.428c3.551-7.087,8.279-13.454,12.421-20.178C362.043,522.074,370.017,509.8,377.865,497.453Z" transform="translate(-265.521 -180.885)"/><path class="cls-6" d="M415.1,553.922h0a.429.429,0,0,1,.175-.453l.583-.877q.194-.361.389-.721l1.3-1.795a.749.749,0,0,1,.151-.463.841.841,0,0,1,.116-.124l.6-.8.844-1.587.582-.878.388-.716,1.2-1.67,1.431-2.4q.513-.426,1.027-.855h0l-.143-.037a.616.616,0,0,1,.167-.623q.459-.788.917-1.574l.582-.878a4.071,4.071,0,0,1,1.558-2.367l1-1.536q.421-.793.845-1.587l.582-.878.39-.717c.1-1.035-.692-1.6-1.222-2.306a.75.75,0,0,1-.463-.149.9.9,0,0,1-.124-.117l-.8-.6-1.587-.845-.878-.582a4.2,4.2,0,0,1-2.136-1.262,3.6,3.6,0,0,1-.23-.294l-1.609-.828-.725-.392a2.361,2.361,0,0,1-1.671-1.305l-.126.065c-3.591-1.812-7.185-3.62-10.155-6.415-.792-.385-1.61-.727-2.392-1.128-.26-.134-.517-.275-.768-.425q-13.529-8.149-27.029-16.347c-7.848,12.35-15.822,24.621-23.5,37.078-4.142,6.724-8.87,13.091-12.421,20.178l72.35.1h0Z" transform="translate(-265.521 -180.885)"/><path class="cls-7" d="M344.974,443.168a33.212,33.212,0,0,0,12.663,12.25c8.041,4.316,16.465,6.03,25.63,4.25,6.389-1.24,13-1.29,19.245-3.4-9.646-.08-19.291-.2-28.937-.23-9.971-.03-16.769-4.8-20.73-13.779-.953-2.161-1.555-4.477-2.318-6.721l-.669-.378.483-.395q-.017-72.776-.045-145.551c0-1.579-.163-3.159-.25-4.739-.557-.251-.625-.53-.049-.846h0a1.917,1.917,0,0,0,.143-.349,1.085,1.085,0,0,0,.046-.34.955.955,0,0,0-.3-.652h0c-2.779.045-4.221-2.279-6.267-3.533q-.012,79.368-.052,158.735A10.427,10.427,0,0,0,344.974,443.168Z" transform="translate(-265.521 -180.885)"/><path class="cls-8" d="M414.3,554.813h0c.31,0,.619-.009.929-.012q-.065-.44-.127-.879Z" transform="translate(-265.521 -180.885)"/><path class="cls-9" d="M438.34,554.259l-.755.559" transform="translate(-265.521 -180.885)"/><path class="cls-10" d="M494.25,303.555c-.545,1.833.617,4-1.05,5.605-.4.383-.789.775-1.173,1.172-2.693,2.783-5.11,5.843-8.226,8.2h0c-3.581,5.116-8.263,9.222-12.526,13.715a14.091,14.091,0,0,0-3.951,12.681c1.391,7.973,6.794,11.444,14.211,12.669,1.075.177,2.525-.382,2.875,1.358.283,1.406-.678,2.174-1.519,3.019-2.424,2.438-4.882,4.844-7.244,7.341-6.029,6.374-7.388,13.274-3.95,19.382,2.659,4.725,7.085,6.747,12.025,8.026l1.825-.341.79-.135a12.374,12.374,0,0,0,5.641-1.774c.71-.383,1.411-.792,2.116-1.19h0c8.692-9.048,17.414-18.067,26.067-27.151,8.277-8.69,5.892-20.874-4.9-25.287-3.353-1.371-6.818-.612-10.523-.648,2.175-2.567,4.667-4.719,6.97-7.057,2.4-2.44,4.627-5.06,6.932-7.6a14.717,14.717,0,0,0,.243-19.139c-4.41-5.28-10.057-5.758-16.2-5.074C499.828,301.886,497.683,305.162,494.25,303.555Z" transform="translate(-265.521 -180.885)"/><path class="cls-11" d="M499.716,249.642c6.792-8.786,13.535-17.63,16.834-28.479,1.586-5.216,2.337-10.292-2.189-14.7-5.94-5.787-12.591-7.331-20.256-3.912q.029,26.613.056,53.225C496.636,254.3,498.037,251.814,499.716,249.642Z" transform="translate(-265.521 -180.885)"/><path class="cls-12" d="M494.227,260.566q.012,21.493.023,42.989c3.433,1.607,5.578-1.669,8.44-2.226.1-1.46,1.213-2.272,2.025-3.307,5.006-6.376,9.474-13.048,11.339-21.119,1.8-7.78-1.918-13.449-7.5-17.946-3.99-3.215-8.627-2.378-12.953,0C496.815,260.925,495.105,260.389,494.227,260.566Z" transform="translate(-265.521 -180.885)"/><path class="cls-13" d="M467.622,456a9.657,9.657,0,0,0-1.2,0,11.816,11.816,0,0,0-1.806.259c-5.066,8.008-10.136,16.034-16.123,23.382-3.808,4.672-7.45,10.185-13.263,12.13a51.532,51.532,0,0,0-16.257,8.573A43.777,43.777,0,0,0,412.991,506a22.545,22.545,0,0,0-4.937,9.35c2.97,2.8,6.564,4.6,10.155,6.415q.142-.865.283-1.731a1.565,1.565,0,0,1,.7-1.6,4.734,4.734,0,0,1,.092-.788,4.414,4.414,0,0,1,1.514-3.185l.909-2.388c.551-1.217.953-2.535,2.229-3.256a24.918,24.918,0,0,1,3.124-6.379c.405-.679.8-1.364,1.157-2.067a5.788,5.788,0,0,1,5.161-3.532,22.6,22.6,0,0,0,11.431-5.161,62.115,62.115,0,0,0,6.162-5.55c8.244-8.478,13.786-18.853,18.45-29.828A8.822,8.822,0,0,0,467.622,456Z" transform="translate(-265.521 -180.885)"/><path class="cls-14" d="M412.249,210.64c6.611-.015,13.222-.026,19.833.007,1.771.009,3.44-.448,3.5-2.366.066-2.242-1.8-2.588-3.658-2.58q-2.48.009-4.958.006t-4.959,0c-3.173,0-6.346.016-9.52-.006-1.865-.012-3.687.288-3.668,2.575C408.832,210.317,410.524,210.643,412.249,210.64Z" transform="translate(-265.521 -180.885)"/><path class="cls-15" d="M423.587,435.667c3.75.193,5.282-1.223,5.15-5.007-.164-4.736-.672-5.155-5.571-5.414-3.936-.208-5.374,1.331-4.76,4.6C418.413,434.973,419.035,435.433,423.587,435.667Zm.084-8.882c3.263-.2,3.5,1.413,3.563,4.021.076,2.985-1.177,3.742-3.643,3.158-3.5.76-3.622-1.239-3.731-3.806C419.732,427.119,421.248,426.93,423.671,426.785Z" transform="translate(-265.521 -180.885)"/><path class="cls-10" d="M494.212,259.754l.015.812c.878-.177,2.588.359,1.376-1.607a5.711,5.711,0,0,0-.781.1Z" transform="translate(-265.521 -180.885)"/><path class="cls-12" d="M494.212,259.754l.61-.7a3.353,3.353,0,0,0-.649-.027h0a.629.629,0,0,0,.039.723Z" transform="translate(-265.521 -180.885)"/><path class="cls-16" d="M350.046,284.471l-.049-.846C349.421,283.941,349.489,284.22,350.046,284.471Z" transform="translate(-265.521 -180.885)"/><path class="cls-17" d="M485.547,396.382l.79-.135" transform="translate(-265.521 -180.885)"/><path class="cls-16" d="M349.858,435.156l.669.378-.186-.773Z" transform="translate(-265.521 -180.885)"/><path class="cls-8" d="M421.71,512.076c.424-.108.87-.2,1.276-.323,1.218-.361,2.083-.965.953-2.933C422.663,509.541,422.261,510.859,421.71,512.076Z" transform="translate(-265.521 -180.885)"/><path class="cls-8" d="M419.287,517.649c1.305-.275,1.716-.974,1.718-1.868a5.266,5.266,0,0,0-.2-1.317A4.414,4.414,0,0,0,419.287,517.649Z" transform="translate(-265.521 -180.885)"/><path class="cls-8" d="M429.78,530.384c.545-.088,1.019-.275.809-.957a2.194,2.194,0,0,0-.5-.892,1.729,1.729,0,0,0-1.535-.457C429.088,528.782,429.876,529.349,429.78,530.384Z" transform="translate(-265.521 -180.885)"/><path class="cls-8" d="M420.226,545.508a1.476,1.476,0,0,1,.305-.1c.112-.026.231-.046.35-.065l.178-.031c.645-.116,1.18-.312.37-1.477Z" transform="translate(-265.521 -180.885)"/><path class="cls-8" d="M418.492,520.037a3.506,3.506,0,0,0,1-.275c.405-.219.462-.592-.3-1.325A1.565,1.565,0,0,0,418.492,520.037Z" transform="translate(-265.521 -180.885)"/><path class="cls-8" d="M430.712,514.159c-.1.054-.214.1-.318.146a.554.554,0,0,0-.247.189c-.071.113.087.368.147.574.2-.1.486-.155.568-.313a.211.211,0,0,0,.014-.122A4.194,4.194,0,0,0,430.712,514.159Z" transform="translate(-265.521 -180.885)"/><path class="cls-8" d="M434.12,516.9a1.048,1.048,0,0,0,.14.253c.057.081.119.16.175.241h0l.01-.012c.151-.165.3-.331.452-.5h0a2.575,2.575,0,0,0-.547-.249C434.29,516.616,434.1,516.837,434.12,516.9Z" transform="translate(-265.521 -180.885)"/><path class="cls-8" d="M438.2,519.154a2.993,2.993,0,0,0-.016.653l.665-.315a3.911,3.911,0,0,0-.342-.513C438.487,518.958,438.217,519.071,438.2,519.154Z" transform="translate(-265.521 -180.885)"/><path class="cls-8" d="M420.006,523.008c-.1-1.019-.71-1.388-1.671-1.305A2.361,2.361,0,0,0,420.006,523.008Z" transform="translate(-265.521 -180.885)"/><path class="cls-8" d="M422.34,524.228c-.106-.288-.187-.626-.31-.88-.206-.423-.533-.613-1.3.052Z" transform="translate(-265.521 -180.885)"/><path class="cls-8" d="M426.968,535.1a4.726,4.726,0,0,0,1.065-.4c.228-.17.311-.434.059-.916-.036-.069-.079-.142-.129-.22Z" transform="translate(-265.521 -180.885)"/><path class="cls-8" d="M427.85,512.786a3,3,0,0,0-.015.653l.664-.314a3.99,3.99,0,0,0-.342-.514C428.14,512.591,427.869,512.7,427.85,512.786Z" transform="translate(-265.521 -180.885)"/><path class="cls-8" d="M416.248,551.871a1.856,1.856,0,0,0,.675-.2,1.472,1.472,0,0,0,.62-1.6Z" transform="translate(-265.521 -180.885)"/><path class="cls-8" d="M425.584,526.366l-.335-1.017-.543.435Z" transform="translate(-265.521 -180.885)"/><path class="cls-8" d="M427.171,527.211l.8.6C427.8,527.48,428.2,526.4,427.171,527.211Z" transform="translate(-265.521 -180.885)"/><path class="cls-18" d="M529.011,340.783c.323-.149.628-.337.938-.512l-.26-.307q-.471.286-.946.568C528.835,340.621,528.969,340.8,529.011,340.783Z" transform="translate(-265.521 -180.885)"/><path class="cls-8" d="M428.808,531.979l1.017-.335-.435-.543Z" transform="translate(-265.521 -180.885)"/><path class="cls-8" d="M424.828,538.347l1.017-.335-.435-.543Z" transform="translate(-265.521 -180.885)"/><path class="cls-8" d="M419.256,547.1l1.017-.335-.435-.543Z" transform="translate(-265.521 -180.885)"/><path class="cls-8" d="M418.412,548.689l-.6.8C418.143,549.321,419.22,549.714,418.412,548.689Z" transform="translate(-265.521 -180.885)"/><path class="cls-8" d="M415.276,553.469l1.017-.334-.434-.543Z" transform="translate(-265.521 -180.885)"/><path class="cls-18" d="M526.157,301.483c.314.438.5.127.682-.148l-.273-.272C526.423,301.209,526.137,301.456,526.157,301.483Z" transform="translate(-265.521 -180.885)"/><path class="cls-8" d="M423.744,540.544l.591-.174-.424-.449A.616.616,0,0,0,423.744,540.544Z" transform="translate(-265.521 -180.885)"/><path class="cls-9" d="M422.86,541.436q.513-.426,1.027-.855" transform="translate(-265.521 -180.885)"/><path class="cls-2" d="M423.591,433.964c2.466.584,3.719-.173,3.643-3.158-.067-2.608-.3-4.217-3.563-4.021-2.423.145-3.939.334-3.811,3.373C419.969,432.725,420.086,434.724,423.591,433.964Z" transform="translate(-265.521 -180.885)"/></svg>