<svg xmlns="http://www.w3.org/2000/svg" xml:space="preserve" viewBox="0 0 879.789 936.952"><linearGradient id="SVGID_1_" x1="0" x2="879.7888" y1="468.4759" y2="468.4759" gradientUnits="userSpaceOnUse"><stop offset="0" stop-color="#e8f9fd"/><stop offset=".1729" stop-color="#e3f8fc"/><stop offset=".3691" stop-color="#d6f4fa"/><stop offset=".5765" stop-color="#bfeef5"/><stop offset=".7903" stop-color="#9fe5ef"/><stop offset="1" stop-color="#79dae8"/></linearGradient><path fill="url(#SVGID_1_)" d="M838.69 458.9c55.88 121.832 58.301 247.284-14.621 341.689-69.878 93.495-215.099 155.943-384.175 130.751C270.818 910.007 125.598 810.913 55.72 709.716c-72.923-103.723-70.501-209.549-14.621-302.659 56.168-93.639 144.477-177.628 215.103-255.302C329.585 76.541 385.284 7.643 439.894.994c54.61-9.454 110.31 49.513 183.692 135.228C694.213 222.932 782.522 336.39 838.69 458.9z"/><linearGradient id="SVGID_2_" x1="154.9657" x2="749.4976" y1="512.4515" y2="512.4515" gradientUnits="userSpaceOnUse"><stop offset="0" stop-color="#ff7300"/><stop offset=".1771" stop-color="#f97c01"/><stop offset=".4705" stop-color="#ea9602"/><stop offset=".5521" stop-color="#e59e03"/><stop offset=".8652" stop-color="#e5c500"/><stop offset=".9944" stop-color="#bf6f00"/></linearGradient><path fill="url(#SVGID_2_)" d="M722.714 480.385c36.053 72.67 38.598 157.161-10.2 233.674-46.658 74.759-144.659 141.54-260.282 138.293-115.623.769-213.624-67.907-260.282-143.023-48.798-76.957-46.252-160.354-10.2-231.54 36.517-71.786 94.148-137.971 141.976-197.527 49.501-57.711 89.199-108.795 128.506-107.769 39.307-1.931 79.005 48.616 128.506 106.867 47.827 60.019 105.458 127.743 141.976 201.025z"/></svg>