<svg xmlns="http://www.w3.org/2000/svg" viewBox="0 0 412.99 197.697"><defs><style>.cls-1{opacity:0.1;}.cls-2{fill:#231f20;}.cls-3{fill:#dcf8c6;}.cls-4{fill:#fff;}.cls-5{fill:#9a9a9a;}</style></defs><g id="Capa_2" data-name="Capa 2"><g id="Capa_1-2" data-name="Capa 1"><g class="cls-1"><path class="cls-2" d="M412.55.931H315.544c-1.68,0-3.042,2.723-3.042,6.083V23.9c0,3.359,1.362,6.083,3.042,6.083h90.7c1.68,0,3.041-2.724,3.041-6.083V12.234L412.9,2.325C413.116,1.746,412.909.931,412.55.931Z"/></g><path class="cls-3" d="M412.55,0H315.544c-1.68,0-3.042,2.724-3.042,6.083V22.969c0,3.36,1.362,6.084,3.042,6.084h90.7c1.68,0,3.041-2.724,3.041-6.084V11.3L412.9,1.4C413.116.815,412.909,0,412.55,0Z"/><g class="cls-1"><path class="cls-2" d="M1.283,49.806l9.54-.013,273.527-.365c4.9-.006,8.884,6.2,8.895,13.862l.16,120.169c.01,7.662-3.955,13.879-8.857,13.885L19.9,197.7c-4.9.007-8.884-6.2-8.894-13.861L10.857,75.572.255,52.988C-.365,51.667.236,49.808,1.283,49.806Z"/></g><path class="cls-4" d="M1.279,47.684l9.539-.013,273.528-.365c4.9-.007,8.884,6.2,8.895,13.862l.16,120.169c.01,7.662-3.955,13.878-8.857,13.885l-264.652.353c-4.9.006-8.885-6.2-8.895-13.862L10.853,73.45.251,50.866C-.369,49.546.232,47.685,1.279,47.684Z"/><path class="cls-5" d="M248.776,188.251l.39-3.8,3.423,0v.821l-2.644,0-.218,1.968a2.11,2.11,0,0,1,.489-.27,1.669,1.669,0,0,1,.609-.112,1.862,1.862,0,0,1,1.487.592,2.782,2.782,0,0,1-.009,3.309,2.036,2.036,0,0,1-1.607.626,2.2,2.2,0,0,1-1.447-.473,1.64,1.64,0,0,1-.556-1.394l.009-.027.836,0a1.144,1.144,0,0,0,.323.866,1.159,1.159,0,0,0,.834.307,1.091,1.091,0,0,0,.91-.415,1.79,1.79,0,0,0,.322-1.132,1.631,1.631,0,0,0-.328-1.056,1.1,1.1,0,0,0-.908-.4,1.458,1.458,0,0,0-.789.165.962.962,0,0,0-.361.507Z"/><path class="cls-5" d="M255.048,187.167h-.925v-.948h.925Zm0,4.113h-.924l0-.948h.924Z"/><path class="cls-5" d="M259.134,191.274l-.929,0L258.2,185.3l-1.488.015V184.6l2.418-.257Z"/><path class="cls-5" d="M265.95,186.176a1.55,1.55,0,0,1-.3.942,1.809,1.809,0,0,1-.8.609,2.015,2.015,0,0,1,.936.642,1.6,1.6,0,0,1,.352,1.019,1.808,1.808,0,0,1-.61,1.461,2.344,2.344,0,0,1-1.561.518,2.516,2.516,0,0,1-1.641-.515,1.771,1.771,0,0,1-.639-1.459,1.563,1.563,0,0,1,.359-1.019,2.065,2.065,0,0,1,.968-.65,1.785,1.785,0,0,1-.832-.6,1.515,1.515,0,0,1-.305-.94,1.677,1.677,0,0,1,.572-1.373,2.286,2.286,0,0,1,1.5-.475,2.137,2.137,0,0,1,1.434.474A1.7,1.7,0,0,1,265.95,186.176Zm-.729,3.194a1.242,1.242,0,0,0-.365-.92,1.226,1.226,0,0,0-.9-.36,1.342,1.342,0,0,0-.962.362,1.213,1.213,0,0,0-.379.922,1.194,1.194,0,0,0,.379.924,1.385,1.385,0,0,0,.974.346,1.214,1.214,0,0,0,1.252-1.274Zm-.2-3.179a1.121,1.121,0,0,0-.309-.811,1.015,1.015,0,0,0-.763-.319,1.154,1.154,0,0,0-.827.309,1.08,1.08,0,0,0-.322.824,1.117,1.117,0,0,0,1.161,1.168,1,1,0,0,0,.758-.325A1.192,1.192,0,0,0,265.025,186.191Z"/><path class="cls-5" d="M270.736,188.517l0,2.743h-.925l-.01-6.836,2.616,0a2.413,2.413,0,0,1,1.7.561,2.12,2.12,0,0,1,0,2.972,2.419,2.419,0,0,1-1.7.561Zm0-.722,1.69,0a1.239,1.239,0,0,0,1.379-1.317,1.365,1.365,0,0,0-.346-.948,1.333,1.333,0,0,0-1.036-.379l-1.691,0Z"/><path class="cls-5" d="M279.317,189.966h.027l2.176-5.557,1.151,0,.009,6.836-.924,0-.007-5.122-.029,0-2.063,5.129h-.644l-2.139-5.293-.029,0,.008,5.291-.925,0-.009-6.836,1.216,0Z"/><path class="cls-5" d="M363.852,20.862l.389-3.8,3.423,0,0,.822-2.644,0L364.8,19.85a2.186,2.186,0,0,1,.489-.27,1.745,1.745,0,0,1,.61-.111,1.86,1.86,0,0,1,1.487.592,2.4,2.4,0,0,1,.54,1.654,2.411,2.411,0,0,1-.549,1.654,2.031,2.031,0,0,1-1.608.626,2.2,2.2,0,0,1-1.447-.472,1.645,1.645,0,0,1-.556-1.394l.009-.028h.836a1.141,1.141,0,0,0,.323.866,1.158,1.158,0,0,0,.834.306,1.085,1.085,0,0,0,.91-.414A1.793,1.793,0,0,0,367,21.726a1.626,1.626,0,0,0-.329-1.056,1.1,1.1,0,0,0-.908-.4,1.457,1.457,0,0,0-.789.166.956.956,0,0,0-.36.507Z"/><path class="cls-5" d="M370.123,19.778H369.2V18.83h.925Zm.006,4.113H369.2l0-.948h.925Z"/><path class="cls-5" d="M374.21,23.886h-.93l-.008-5.982-1.488.016v-.714l2.417-.256Z"/><path class="cls-5" d="M381.025,18.787a1.548,1.548,0,0,1-.3.942,1.817,1.817,0,0,1-.8.609,2.01,2.01,0,0,1,.936.642A1.589,1.589,0,0,1,381.217,22a1.807,1.807,0,0,1-.611,1.461,2.337,2.337,0,0,1-1.56.519,2.526,2.526,0,0,1-1.642-.515A1.775,1.775,0,0,1,376.765,22a1.564,1.564,0,0,1,.359-1.019,2.065,2.065,0,0,1,.968-.65,1.8,1.8,0,0,1-.832-.6,1.524,1.524,0,0,1-.305-.941,1.671,1.671,0,0,1,.572-1.371,2.278,2.278,0,0,1,1.5-.476,2.138,2.138,0,0,1,1.435.474A1.7,1.7,0,0,1,381.025,18.787ZM380.3,21.98a1.236,1.236,0,0,0-.366-.919,1.221,1.221,0,0,0-.9-.36,1.34,1.34,0,0,0-.962.362,1.214,1.214,0,0,0-.379.921,1.2,1.2,0,0,0,.379.925,1.388,1.388,0,0,0,.975.346A1.216,1.216,0,0,0,380.3,21.98Zm-.2-3.178a1.124,1.124,0,0,0-.308-.811,1.021,1.021,0,0,0-.764-.319,1.152,1.152,0,0,0-.826.309,1.078,1.078,0,0,0-.322.824,1.117,1.117,0,0,0,1.16,1.168,1,1,0,0,0,.759-.325A1.192,1.192,0,0,0,380.1,18.8Z"/><path class="cls-5" d="M385.811,21.128l0,2.742h-.925l-.009-6.835,2.615,0a2.41,2.41,0,0,1,1.7.561,2.12,2.12,0,0,1,0,2.972,2.421,2.421,0,0,1-1.7.561Zm0-.723,1.691,0a1.357,1.357,0,0,0,1.032-2.264,1.325,1.325,0,0,0-1.036-.379l-1.691,0Z"/><path class="cls-5" d="M394.392,22.577h.028L396.6,17.02l1.151,0,.01,6.836h-.925l-.007-5.122-.028,0-2.064,5.13h-.643l-2.139-5.293-.028.005.006,5.291H391l-.01-6.836h1.217Z"/><path d="M322.667,16.042c-.014,1.142.67,2.535,2.942,2.535,2.457,0,2.681-1.524,2.681-2.115,0-1.34-1.248-1.708-2.208-1.918l-1.169-.237c-1.143-.236-2.733-.578-2.733-2.3,0-1.1.644-2.588,3.311-2.588,2.392,0,3.1,1.511,3.192,2.615h-.656c-.053-.618-.421-2.063-2.575-2.063-1.655,0-2.614.815-2.614,1.971,0,1.34,1.063,1.576,2.64,1.865,1.116.2,3.468.473,3.468,2.667,0,1.025-.446,2.654-3.35,2.654-2.864,0-3.6-1.747-3.587-3.087Z"/><path d="M330.376,18.919h-.7l3.508-9.2h.789l3.508,9.2h-.7l-1.129-2.983h-4.152Zm5.085-3.534-1.879-5.137L331.7,15.385Z"/><path d="M341.738,9.723c.815,0,4.3,0,4.3,4.571,0,3.929-2.286,4.625-4.941,4.625H338.73v-9.2Zm-2.378,8.644H341.3c1.708,0,4.074-.263,4.074-4.046,0-3.6-2.4-4.047-3.6-4.047H339.36Z"/><path d="M353.1,13.913v.552h-4.533v4.454h-.63v-9.2h5.715v.551h-5.085v3.639Z"/><path d="M22.054,63.394l-.091-8.132-1.735,8.132H18.363L20.4,53.817H23.25l.263,7.357,3.337-7.357h2.877l-2.036,9.577H25.825l1.734-8.132-3.534,8.132Z"/><path d="M31.8,61.752h5.19l-.355,1.642h-7.16l2.036-9.577h6.937l-.355,1.642H33.128l-.46,2.168h4.585l-.342,1.642H32.326Z"/><path d="M41.994,63.394H40.023l1.7-7.935H38.8l.355-1.642h7.672l-.354,1.642H43.689Z"/><path d="M47.72,61.463l-1.064,1.931h-2.01l5.347-9.577h2.273l1.274,9.577H51.53l-.236-1.931Zm2.93-5.36-2.023,3.718H51.11Z"/><path d="M60.987,60.32c0-.486-.368-.722-1.116-.722h-2.26l-.8,3.8h-1.97l2.036-9.577h4.953a2.006,2.006,0,0,1,2.273,1.97,3.335,3.335,0,0,1-2.194,2.983c.683.223,1.025.578,1.025,1.077,0,.828-.407,2.233-.407,2.746a.517.517,0,0,0,.236.447l-.079.354H60.593a1.644,1.644,0,0,1-.105-.538C60.488,62.055,60.987,60.793,60.987,60.32ZM60.7,55.459H58.491l-.525,2.5h2.377a1.586,1.586,0,0,0,1.8-1.576C62.143,55.643,61.5,55.459,60.7,55.459Z"/><path d="M64.716,56.721h.723v.972h-.723Zm0,5.7h.723v.972h-.723Z"/><path d="M19.335,70.827h-.026l.026.355v7.975H18.7v-9.2h.96l3.376,8.369,3.376-8.369h.96v9.2h-.631V71.182l.026-.355h-.026l-3.39,8.33h-.63Z"/><path d="M35.453,74.1v.551H30.421v3.955h5.623v.552H29.79v-9.2h6.1v.552H30.421V74.1Z"/><path d="M36.436,70.512V69.96h6.885v.552H40.194v8.645h-.631V70.512Z"/><path d="M42.886,79.157h-.7l3.507-9.2h.789l3.507,9.2h-.7l-1.13-2.983H44.016Zm5.084-3.535-1.878-5.136-1.879,5.136Z"/><path d="M51.239,69.96h3.666c1.038,0,3.035.118,3.035,2.339a2.229,2.229,0,0,1-1.629,2.325v.026c1.2.3,1.261,1.288,1.3,2.037.091,1.563.039,1.918.394,2.47h-.723c-.276-.539-.236-.854-.328-2.457-.053-.841-.145-1.787-1.84-1.787H51.87v4.244h-.631Zm.631,4.4h3.3a1.927,1.927,0,0,0,2.115-2.036c0-1.774-1.616-1.813-2.378-1.813H51.87Z"/><path d="M63.284,76.28c-.013,1.142.67,2.535,2.943,2.535,2.457,0,2.68-1.524,2.68-2.115,0-1.34-1.248-1.708-2.207-1.918-.394-.079-.775-.158-1.17-.237-1.143-.236-2.732-.578-2.732-2.3,0-1.1.644-2.588,3.311-2.588,2.391,0,3.1,1.511,3.192,2.614h-.657c-.052-.617-.42-2.062-2.575-2.062-1.655,0-2.614.814-2.614,1.971,0,1.339,1.064,1.576,2.64,1.865,1.117.2,3.469.473,3.469,2.667,0,1.025-.447,2.654-3.35,2.654-2.864,0-3.6-1.747-3.587-3.087Z"/><path d="M70.994,79.157h-.7l3.508-9.2h.788l3.508,9.2h-.7l-1.129-2.983H72.124Zm5.084-3.535L74.2,70.486l-1.879,5.136Z"/><path d="M82.357,69.96c.814,0,4.3,0,4.3,4.572,0,3.928-2.286,4.625-4.94,4.625H79.348v-9.2Zm-2.378,8.645h1.944c1.708,0,4.073-.263,4.073-4.047,0-3.6-2.4-4.046-3.6-4.046H79.979Z"/><path d="M93.719,74.151V74.7H89.186v4.454h-.631v-9.2h5.716v.552H89.186v3.639Z"/><path d="M98.183,74.558c0-4.729,2.51-4.874,3.127-4.874s3.127.145,3.127,4.874-2.51,4.874-3.127,4.874S98.183,79.288,98.183,74.558Zm5.6,0c0-2.588-.894-4.322-2.47-4.322s-2.47,1.734-2.47,4.322.894,4.323,2.47,4.323S103.78,77.146,103.78,74.558Z"/><path d="M106.143,72.076a2.61,2.61,0,0,1,5.2,0,2.056,2.056,0,0,1-1.524,2.036,2.422,2.422,0,0,1,1.905,2.509,2.987,2.987,0,0,1-5.964,0,2.422,2.422,0,0,1,1.905-2.509A2.056,2.056,0,0,1,106.143,72.076Zm4.927,4.545a2.329,2.329,0,0,0-4.651,0,2.326,2.326,0,0,0,4.651,0Zm-.368-4.559a1.965,1.965,0,1,0-1.958,1.8A1.8,1.8,0,0,0,110.7,72.062Z"/><path d="M119.109,79.157h-5.676c-.027-1.722.722-2.576,2.089-3.508.341-.237.7-.447,1.051-.67a3.028,3.028,0,0,0,1.813-2.6,2.125,2.125,0,1,0-4.244.132v.21h-.656v-.21a2.632,2.632,0,0,1,2.811-2.825,2.532,2.532,0,0,1,2.746,2.667c0,1.682-1.064,2.4-2.063,3.022-1.156.709-2.838,1.537-2.864,3.232h4.993Z"/><path d="M126.543,79.157h-5.676c-.026-1.722.723-2.576,2.089-3.508.342-.237.7-.447,1.051-.67a3.028,3.028,0,0,0,1.813-2.6,2.125,2.125,0,1,0-4.244.132v.21h-.656v-.21a2.632,2.632,0,0,1,2.811-2.825,2.532,2.532,0,0,1,2.746,2.667c0,1.682-1.064,2.4-2.063,3.022-1.156.709-2.838,1.537-2.864,3.232h4.993Z"/><path d="M127.921,74.558c0-4.729,2.509-4.874,3.126-4.874s3.127.145,3.127,4.874-2.509,4.874-3.127,4.874S127.921,79.288,127.921,74.558Zm5.6,0c0-2.588-.893-4.322-2.47-4.322s-2.47,1.734-2.47,4.322.894,4.323,2.47,4.323S133.517,77.146,133.517,74.558Z"/><path d="M135.355,74.558c0-4.729,2.509-4.874,3.126-4.874s3.127.145,3.127,4.874-2.509,4.874-3.127,4.874S135.355,79.288,135.355,74.558Zm5.6,0c0-2.588-.893-4.322-2.47-4.322s-2.47,1.734-2.47,4.322.894,4.323,2.47,4.323S140.951,77.146,140.951,74.558Z"/><path d="M149.056,69.96v.578l-5.82,8.067h6.056v.552H142.54v-.631l5.846-8.014h-5.518V69.96Z"/><path d="M153.284,74.558c0-4.729,2.509-4.874,3.126-4.874s3.127.145,3.127,4.874-2.509,4.874-3.127,4.874S153.284,79.288,153.284,74.558Zm5.6,0c0-2.588-.894-4.322-2.471-4.322s-2.469,1.734-2.469,4.322.893,4.323,2.469,4.323S158.881,77.146,158.881,74.558Z"/><path d="M161.664,77.225a1.857,1.857,0,0,0,1.944,1.656c2.063,0,2.575-2.155,2.549-4.678h-.026a2.409,2.409,0,0,1-2.483,1.564,2.672,2.672,0,0,1-2.759-2.956,2.793,2.793,0,0,1,2.8-3.127c2.444,0,3.1,2.128,3.1,4.572,0,3.915-1.405,5.176-3.205,5.176a2.432,2.432,0,0,1-2.549-2.207Zm2.023-6.989c-1.314,0-2.141,1.064-2.141,2.6a2.127,2.127,0,0,0,2.167,2.378,2.205,2.205,0,0,0,2.221-2.456A2.253,2.253,0,0,0,163.687,70.236Z"/><path d="M168.153,74.558c0-4.729,2.509-4.874,3.126-4.874s3.127.145,3.127,4.874-2.509,4.874-3.127,4.874S168.153,79.288,168.153,74.558Zm5.6,0c0-2.588-.893-4.322-2.47-4.322s-2.47,1.734-2.47,4.322.894,4.323,2.47,4.323S173.749,77.146,173.749,74.558Z"/><path d="M175.718,71.6h.224a1.832,1.832,0,0,0,2.1-1.642h.381v9.2h-.657v-7.2h-2.05Z"/><path d="M180.276,71.6h.223c1.682,0,2.037-1.064,2.1-1.642h.382v9.2h-.658v-7.2h-2.049Z"/><path d="M192.7,69.96h.841L189.7,73.7l4.125,5.453h-.815l-3.77-5.032-1.787,1.747v3.285h-.631v-9.2h.631v5.124Z"/><path d="M194.172,70.512V69.96h6.884v.552H197.93v8.645H197.3V70.512Z"/><path d="M212.957,76.24a3.476,3.476,0,0,1-3.771,3.192c-3.848,0-4.125-3.849-4.125-4.716,0-3.009,1.366-5.032,4.165-5.032s3.56,1.734,3.626,2.93H212.2c-.065-1.209-.973-2.378-2.969-2.378-2.259,0-3.508,1.721-3.508,4.454,0,2.47,1.288,4.191,3.481,4.191a2.9,2.9,0,0,0,3.1-2.641Z"/><path d="M214.347,79.157h-.7l3.508-9.2h.789l3.508,9.2h-.7l-1.129-2.983h-4.153Zm5.085-3.535-1.879-5.136-1.878,5.136Z"/><path d="M227.326,69.96h.709l-3.284,9.2h-.841l-3.284-9.2h.709l3,8.566Z"/><path d="M232.462,69.684c2.693,0,4.244,1.853,4.244,4.874s-1.551,4.874-4.244,4.874-4.244-1.839-4.244-4.874S229.768,69.684,232.462,69.684Zm0,9.2c1.826,0,3.587-1.1,3.587-4.323s-1.761-4.322-3.587-4.322-3.586,1.1-3.586,4.322S230.635,78.881,232.462,78.881Z"/><path d="M244.665,69.96h.841l-3.85,3.744,4.125,5.453h-.814L241.2,74.125l-1.787,1.747v3.285h-.63v-9.2h.63v5.124Z"/><path d="M255.487,79.157h-5.675c-.026-1.722.722-2.576,2.089-3.508.341-.237.7-.447,1.051-.67a3.027,3.027,0,0,0,1.812-2.6,2.124,2.124,0,1,0-4.243.132v.21h-.657v-.21a2.633,2.633,0,0,1,2.811-2.825,2.532,2.532,0,0,1,2.747,2.667c0,1.682-1.065,2.4-2.063,3.022-1.156.709-2.838,1.537-2.864,3.232h4.992Z"/><path d="M262.922,79.157h-5.675c-.027-1.722.721-2.576,2.089-3.508.34-.237.7-.447,1.05-.67a3.028,3.028,0,0,0,1.813-2.6,2.124,2.124,0,1,0-4.243.132v.21H257.3v-.21a2.633,2.633,0,0,1,2.811-2.825,2.532,2.532,0,0,1,2.746,2.667c0,1.682-1.064,2.4-2.062,3.022-1.157.709-2.838,1.537-2.865,3.232h4.993Z"/><path d="M268.4,69.96h.486L264.2,81.587h-.486Z"/><path d="M270.986,71.6h.223a1.832,1.832,0,0,0,2.1-1.642h.381v9.2h-.657v-7.2h-2.049Z"/><path d="M275.477,69.96h6.1v.421a15.421,15.421,0,0,0-2.5,4.387A18.423,18.423,0,0,0,278,79.157h-.709a17.275,17.275,0,0,1,1.142-4.467,16.737,16.737,0,0,1,2.378-4.152h-5.334Z"/><path d="M26.653,95.3l-.368.407-1.3-1.142a4.2,4.2,0,0,1-2.378.63c-2.694,0-4.244-1.852-4.244-4.874s1.55-4.874,4.244-4.874S26.85,87.3,26.85,90.32a4.986,4.986,0,0,1-1.432,3.889Zm-1.7-1.484a4.643,4.643,0,0,0,1.235-3.5C26.193,87.1,24.432,86,22.607,86S19.02,87.1,19.02,90.32s1.76,4.322,3.587,4.322a3.466,3.466,0,0,0,1.9-.5l-1.051-.919.368-.408Z"/><path d="M29.817,87.364h.223c1.682,0,2.037-1.064,2.1-1.642h.382v9.2h-.658v-7.2H29.817Z"/><path d="M35.058,90.32c0-4.729,2.509-4.874,3.126-4.874s3.127.145,3.127,4.874-2.509,4.874-3.127,4.874S35.058,95.05,35.058,90.32Zm5.6,0c0-2.588-.893-4.322-2.47-4.322s-2.469,1.734-2.469,4.322.893,4.322,2.469,4.322S40.654,92.908,40.654,90.32Z"/><path d="M42.624,87.364h.223a1.831,1.831,0,0,0,2.1-1.642h.381v9.2h-.657v-7.2H42.624Z"/><path d="M47.115,85.722h6.1v.42a15.419,15.419,0,0,0-2.5,4.388,18.32,18.32,0,0,0-1.078,4.388h-.71a17.373,17.373,0,0,1,1.143-4.466A16.67,16.67,0,0,1,52.449,86.3H47.115Z"/><path d="M58.149,85.722h3.665c1.038,0,3.035.118,3.035,2.338a2.229,2.229,0,0,1-1.629,2.326v.026c1.2.3,1.261,1.288,1.3,2.037.091,1.563.039,1.918.394,2.469h-.723c-.276-.538-.236-.854-.328-2.456-.053-.841-.145-1.787-1.839-1.787H58.779v4.243h-.63Zm.63,4.4h3.3a1.927,1.927,0,0,0,2.115-2.036c0-1.774-1.616-1.813-2.378-1.813H58.779Z"/><path d="M67.619,86.589h-.026l.026.355v7.974h-.631v-9.2h.96l3.376,8.369L74.7,85.722h.96v9.2h-.631V86.944l.026-.355h-.026l-3.39,8.329h-.63Z"/><path d="M83.96,85.722h.84l-3.849,3.744,4.125,5.452h-.814l-3.771-5.031-1.786,1.747v3.284h-.631v-9.2h.631v5.124Z"/><path d="M92.707,85.722c.972,0,2.969.145,2.969,2.5,0,2.628-2.456,2.654-3.126,2.654H89.975v4.046h-.631v-9.2Zm-2.732,4.6H92.55c1.839,0,2.47-.867,2.47-2.089,0-1.787-1.537-1.957-2.47-1.957H89.975Z"/><path d="M100.772,85.722c.972,0,2.969.145,2.969,2.5,0,2.628-2.457,2.654-3.127,2.654H98.039v4.046h-.631v-9.2Zm-2.733,4.6h2.575c1.839,0,2.47-.867,2.47-2.089,0-1.787-1.537-1.957-2.47-1.957H98.039Z"/><path d="M104.856,90.32c0-4.729,2.509-4.874,3.127-4.874s3.127.145,3.127,4.874-2.51,4.874-3.127,4.874S104.856,95.05,104.856,90.32Zm5.6,0c0-2.588-.894-4.322-2.47-4.322s-2.47,1.734-2.47,4.322.893,4.322,2.47,4.322S110.453,92.908,110.453,90.32Z"/><path d="M112.291,90.32c0-4.729,2.509-4.874,3.126-4.874s3.127.145,3.127,4.874-2.509,4.874-3.127,4.874S112.291,95.05,112.291,90.32Zm5.6,0c0-2.588-.893-4.322-2.47-4.322s-2.47,1.734-2.47,4.322.894,4.322,2.47,4.322S117.887,92.908,117.887,90.32Z"/><path d="M119.725,90.32c0-4.729,2.509-4.874,3.126-4.874s3.127.145,3.127,4.874-2.509,4.874-3.127,4.874S119.725,95.05,119.725,90.32Zm5.6,0c0-2.588-.893-4.322-2.47-4.322s-2.469,1.734-2.469,4.322.893,4.322,2.469,4.322S125.321,92.908,125.321,90.32Z"/><path d="M136.854,88.875v.394h-6.569v-.394Zm0,2.627v.4h-6.569v-.4Z"/><path d="M22.554,126.442H20.583l1.7-7.935H19.362l.354-1.642h7.672l-.354,1.642H24.249Z"/><path d="M28.28,124.511l-1.064,1.931h-2.01l5.347-9.577h2.273l1.274,9.577H32.09l-.236-1.931Zm2.93-5.36-2.023,3.718H31.67Z"/><path d="M37.291,126.442H35.32l2.037-9.577h6.726l-.355,1.642H38.972l-.46,2.168h4.2l-.355,1.642H38.171Z"/><path d="M45.828,126.442h-1.97l.407-1.918h1.971Zm1.052-4.913H44.909l.407-1.919h1.971Z"/><path d="M17.574,133.559v-.551h6.885v.551H21.332V142.2H20.7v-8.645Z"/><path d="M24.024,142.2h-.7l3.508-9.2h.788l3.508,9.2h-.7l-1.13-2.982H25.154Zm5.084-3.534-1.878-5.137-1.879,5.137Z"/><path d="M37.541,137.2v.552H33.008V142.2h-.63v-9.2h5.715v.551H33.008V137.2Z"/><path d="M42.767,139.327c-.013,1.143.671,2.535,2.943,2.535,2.457,0,2.68-1.523,2.68-2.115,0-1.34-1.248-1.708-2.207-1.918l-1.169-.236c-1.143-.237-2.733-.578-2.733-2.3,0-1.1.644-2.589,3.311-2.589,2.391,0,3.1,1.511,3.192,2.615h-.656c-.053-.618-.421-2.063-2.576-2.063-1.655,0-2.614.815-2.614,1.97,0,1.341,1.065,1.578,2.641,1.867,1.117.2,3.469.472,3.469,2.667,0,1.024-.447,2.653-3.351,2.653-2.864,0-3.6-1.747-3.586-3.087Z"/><path d="M50.478,142.2h-.7l3.508-9.2h.788l3.508,9.2h-.7l-1.13-2.982H51.608Zm5.084-3.534-1.879-5.137L51.8,138.67Z"/><path d="M61.84,133.008c.814,0,4.3,0,4.3,4.571,0,3.929-2.286,4.625-4.94,4.625H58.831v-9.2Zm-2.378,8.644h1.944c1.708,0,4.073-.262,4.073-4.047,0-3.6-2.4-4.046-3.6-4.046H59.462Z"/><path d="M73.2,137.2v.552H68.67V142.2h-.631v-9.2h5.715v.551H68.67V137.2Z"/><path d="M77.667,137.6c0-4.729,2.509-4.874,3.126-4.874s3.127.145,3.127,4.874-2.509,4.875-3.127,4.875S77.667,142.336,77.667,137.6Zm5.6,0c0-2.588-.893-4.322-2.47-4.322s-2.47,1.734-2.47,4.322.894,4.323,2.47,4.323S83.263,140.194,83.263,137.6Z"/><path d="M85.626,135.123a2.611,2.611,0,0,1,5.2,0,2.056,2.056,0,0,1-1.524,2.036,2.424,2.424,0,0,1,1.9,2.51,2.988,2.988,0,0,1-5.965,0,2.424,2.424,0,0,1,1.905-2.51A2.056,2.056,0,0,1,85.626,135.123Zm4.927,4.546a2.329,2.329,0,0,0-4.651,0,2.326,2.326,0,0,0,4.651,0Zm-.368-4.56a1.964,1.964,0,1,0-1.958,1.8A1.8,1.8,0,0,0,90.185,135.109Z"/><path d="M92.26,134.649h.223c1.682,0,2.037-1.063,2.1-1.641h.382v9.2h-.658v-7.2H92.26Z"/><path d="M96.752,133.008h6.1v.42a15.391,15.391,0,0,0-2.5,4.388,18.32,18.32,0,0,0-1.078,4.388h-.709a17.291,17.291,0,0,1,1.143-4.467,16.7,16.7,0,0,1,2.378-4.151H96.752Z"/><path d="M104.107,137.6c0-4.729,2.509-4.874,3.127-4.874s3.127.145,3.127,4.874-2.51,4.875-3.127,4.875S104.107,142.336,104.107,137.6Zm5.6,0c0-2.588-.894-4.322-2.47-4.322s-2.47,1.734-2.47,4.322.893,4.323,2.47,4.323S109.7,140.194,109.7,137.6Z"/><path d="M111.542,137.6c0-4.729,2.509-4.874,3.126-4.874s3.127.145,3.127,4.874-2.509,4.875-3.127,4.875S111.542,142.336,111.542,137.6Zm5.6,0c0-2.588-.893-4.322-2.47-4.322s-2.47,1.734-2.47,4.322.894,4.323,2.47,4.323S117.138,140.194,117.138,137.6Z"/><path d="M125.242,133.008v.578l-5.819,8.066h6.056v.552h-6.753v-.631l5.846-8.014h-5.518v-.551Z"/><path d="M129.47,137.6c0-4.729,2.51-4.874,3.127-4.874s3.127.145,3.127,4.874-2.509,4.875-3.127,4.875S129.47,142.336,129.47,137.6Zm5.6,0c0-2.588-.893-4.322-2.47-4.322s-2.47,1.734-2.47,4.322.894,4.323,2.47,4.323S135.067,140.194,135.067,137.6Z"/><path d="M137.43,135.123a2.611,2.611,0,0,1,5.2,0,2.056,2.056,0,0,1-1.524,2.036,2.424,2.424,0,0,1,1.905,2.51,2.987,2.987,0,0,1-5.964,0,2.424,2.424,0,0,1,1.9-2.51A2.056,2.056,0,0,1,137.43,135.123Zm4.927,4.546a2.329,2.329,0,0,0-4.651,0,2.326,2.326,0,0,0,4.651,0Zm-.368-4.56a1.964,1.964,0,1,0-1.958,1.8A1.8,1.8,0,0,0,141.989,135.109Z"/><path d="M144.064,134.649h.223a1.831,1.831,0,0,0,2.1-1.641h.381v9.2h-.657v-7.2h-2.049Z"/><path d="M149.278,135.123a2.611,2.611,0,0,1,5.2,0,2.056,2.056,0,0,1-1.524,2.036,2.424,2.424,0,0,1,1.905,2.51,2.988,2.988,0,0,1-5.965,0,2.424,2.424,0,0,1,1.905-2.51A2.056,2.056,0,0,1,149.278,135.123Zm4.927,4.546a2.329,2.329,0,0,0-4.651,0,2.326,2.326,0,0,0,4.651,0Zm-.368-4.56a1.964,1.964,0,1,0-1.958,1.8A1.8,1.8,0,0,0,153.837,135.109Z"/><path d="M160.286,133.008h.486l-4.69,11.627H155.6Z"/><path d="M161.362,137.6c0-4.729,2.509-4.874,3.126-4.874s3.127.145,3.127,4.874-2.509,4.875-3.127,4.875S161.362,142.336,161.362,137.6Zm5.6,0c0-2.588-.894-4.322-2.471-4.322s-2.469,1.734-2.469,4.322.893,4.323,2.469,4.323S166.959,140.194,166.959,137.6Z"/><path d="M169.742,140.272a1.858,1.858,0,0,0,1.945,1.656c2.062,0,2.575-2.155,2.549-4.677h-.027a2.409,2.409,0,0,1-2.483,1.563,2.673,2.673,0,0,1-2.759-2.956,2.794,2.794,0,0,1,2.8-3.127c2.443,0,3.1,2.129,3.1,4.573,0,3.915-1.405,5.176-3.206,5.176a2.431,2.431,0,0,1-2.548-2.208Zm2.024-6.989c-1.314,0-2.142,1.065-2.142,2.6a2.128,2.128,0,0,0,2.168,2.378,2.205,2.205,0,0,0,2.22-2.457A2.253,2.253,0,0,0,171.766,133.283Z"/><path d="M176.1,134.649h.223c1.682,0,2.037-1.063,2.1-1.641h.381v9.2h-.657v-7.2H176.1Z"/><path d="M181.314,135.123a2.611,2.611,0,0,1,5.2,0,2.056,2.056,0,0,1-1.524,2.036,2.424,2.424,0,0,1,1.905,2.51,2.988,2.988,0,0,1-5.965,0,2.424,2.424,0,0,1,1.905-2.51A2.056,2.056,0,0,1,181.314,135.123Zm4.927,4.546a2.329,2.329,0,0,0-4.651,0,2.326,2.326,0,0,0,4.651,0Zm-.368-4.56a1.964,1.964,0,1,0-1.958,1.8A1.8,1.8,0,0,0,185.873,135.109Z"/><path d="M191.283,137.6c0-4.729,2.51-4.874,3.127-4.874s3.127.145,3.127,4.874-2.509,4.875-3.127,4.875S191.283,142.336,191.283,137.6Zm5.6,0c0-2.588-.893-4.322-2.47-4.322s-2.47,1.734-2.47,4.322.894,4.323,2.47,4.323S196.88,140.194,196.88,137.6Z"/><path d="M199.65,140.036a2.075,2.075,0,0,0,2.155,1.892,2.337,2.337,0,0,0,2.4-2.575,2.2,2.2,0,0,0-2.26-2.43,2.7,2.7,0,0,0-2.063.867h-.59l.683-4.782h4.4v.551H200.5l-.525,3.535a3.015,3.015,0,0,1,2.023-.723,2.709,2.709,0,0,1,2.864,2.956,2.911,2.911,0,0,1-3.074,3.153,2.611,2.611,0,0,1-2.8-2.444Z"/><path d="M206.152,137.6c0-4.729,2.51-4.874,3.127-4.874s3.127.145,3.127,4.874-2.51,4.875-3.127,4.875S206.152,142.336,206.152,137.6Zm5.6,0c0-2.588-.894-4.322-2.47-4.322s-2.471,1.734-2.471,4.322.9,4.323,2.471,4.323S211.749,140.194,211.749,137.6Z"/><path d="M213.718,134.649h.223a1.832,1.832,0,0,0,2.1-1.641h.381v9.2h-.658v-7.2h-2.049Z"/><path d="M219.616,140.036a2.075,2.075,0,0,0,2.154,1.892,2.338,2.338,0,0,0,2.405-2.575,2.2,2.2,0,0,0-2.26-2.43,2.7,2.7,0,0,0-2.063.867h-.592l.684-4.782h4.4v.551h-3.876l-.525,3.535a3.016,3.016,0,0,1,2.023-.723,2.708,2.708,0,0,1,2.864,2.956,2.911,2.911,0,0,1-3.074,3.153,2.61,2.61,0,0,1-2.8-2.444Z"/><path d="M232.621,133.008h.841l-3.85,3.744,4.125,5.452h-.814l-3.771-5.032-1.787,1.748V142.2h-.63v-9.2h.63v5.124Z"/><path d="M234.09,133.559v-.551h6.883v.551h-3.127V142.2h-.629v-8.645Z"/><path d="M252.874,139.287a3.477,3.477,0,0,1-3.771,3.193c-3.849,0-4.125-3.849-4.125-4.716,0-3.009,1.366-5.033,4.165-5.033s3.56,1.735,3.626,2.93h-.657c-.065-1.208-.973-2.378-2.969-2.378-2.26,0-3.508,1.722-3.508,4.454,0,2.47,1.288,4.191,3.482,4.191a2.9,2.9,0,0,0,3.1-2.641Z"/><path d="M254.264,142.2h-.7l3.508-9.2h.789l3.508,9.2h-.7l-1.128-2.982h-4.153Zm5.085-3.534-1.879-5.137-1.878,5.137Z"/><path d="M267.244,133.008h.709l-3.284,9.2h-.841l-3.284-9.2h.709l3,8.565Z"/><path d="M272.379,132.731c2.693,0,4.244,1.853,4.244,4.874s-1.551,4.875-4.244,4.875-4.244-1.839-4.244-4.875S269.685,132.731,272.379,132.731Zm0,9.2c1.826,0,3.587-1.1,3.587-4.323s-1.761-4.322-3.587-4.322-3.586,1.1-3.586,4.322S270.552,141.928,272.379,141.928Z"/><path d="M284.582,133.008h.841l-3.85,3.744L285.7,142.2h-.815l-3.77-5.032-1.787,1.748V142.2h-.63v-9.2h.63v5.124Z"/><path d="M17.574,149.322v-.552h6.885v.552H21.332v8.645H20.7v-8.645Z"/><path d="M30.763,148.77h.762l-2.995,4.494,3.074,4.7h-.815l-2.693-4.2-2.693,4.2h-.814l3.074-4.7-3-4.494h.762l2.667,4.007Z"/><path d="M38.3,157.967H32.627c-.026-1.721.723-2.576,2.089-3.508.342-.236.7-.446,1.051-.67a3.023,3.023,0,0,0,1.813-2.6,2.124,2.124,0,1,0-4.243.132v.21H32.68v-.21a2.633,2.633,0,0,1,2.811-2.825,2.531,2.531,0,0,1,2.746,2.667c0,1.682-1.064,2.4-2.062,3.021-1.157.71-2.838,1.539-2.865,3.233H38.3Z"/><path d="M39.208,148.77h6.1v.42a15.413,15.413,0,0,0-2.5,4.389,18.309,18.309,0,0,0-1.078,4.388h-.709a17.291,17.291,0,0,1,1.143-4.467,16.681,16.681,0,0,1,2.378-4.151H39.208Z"/><path d="M50.663,148.77h.486L46.459,160.4h-.487Z"/><path d="M51.738,153.368c0-4.729,2.51-4.874,3.127-4.874s3.127.145,3.127,4.874-2.509,4.875-3.127,4.875S51.738,158.1,51.738,153.368Zm5.6,0c0-2.588-.893-4.322-2.47-4.322s-2.47,1.734-2.47,4.322.894,4.322,2.47,4.322S57.335,155.957,57.335,153.368Z"/><path d="M60.119,156.035a1.855,1.855,0,0,0,1.944,1.655c2.063,0,2.575-2.154,2.549-4.676h-.026a2.409,2.409,0,0,1-2.483,1.563,2.672,2.672,0,0,1-2.759-2.956,2.793,2.793,0,0,1,2.8-3.127c2.444,0,3.1,2.129,3.1,4.572,0,3.915-1.405,5.177-3.205,5.177a2.433,2.433,0,0,1-2.549-2.208Zm2.023-6.989c-1.314,0-2.141,1.064-2.141,2.6a2.127,2.127,0,0,0,2.167,2.378,2.206,2.206,0,0,0,2.221-2.457A2.253,2.253,0,0,0,62.142,149.046Z"/><path d="M66.476,150.412H66.7c1.682,0,2.037-1.063,2.1-1.642h.382v9.2h-.657v-7.2h-2.05Z"/><path d="M71.691,150.886a2.61,2.61,0,0,1,5.2,0,2.058,2.058,0,0,1-1.524,2.036,2.423,2.423,0,0,1,1.905,2.51,2.987,2.987,0,0,1-5.964,0,2.423,2.423,0,0,1,1.905-2.51A2.058,2.058,0,0,1,71.691,150.886Zm4.926,4.546a2.328,2.328,0,0,0-4.65,0,2.326,2.326,0,0,0,4.65,0Zm-.367-4.56a1.965,1.965,0,1,0-1.958,1.8A1.8,1.8,0,0,0,76.25,150.872Z"/><path d="M84.866,148.77v.579l-5.82,8.066H85.1v.552H78.35v-.631l5.846-8.014H78.678v-.552Z"/><path d="M88.581,149.322v-.552h6.885v.552H92.339v8.645h-.631v-8.645Z"/><path d="M97.383,157.967h-.631v-9.2h.788l5.518,8.317V148.77h.631v9.2h-.776l-5.53-8.317Z"/><path d="M107,150.412h.223c1.682,0,2.037-1.063,2.1-1.642h.382v9.2h-.657v-7.2H107Z"/><path d="M112.9,155.8a2.073,2.073,0,0,0,2.155,1.891,2.337,2.337,0,0,0,2.4-2.574,2.2,2.2,0,0,0-2.26-2.431,2.7,2.7,0,0,0-2.063.868h-.591l.683-4.783h4.4v.552h-3.875l-.526,3.534a3.02,3.02,0,0,1,2.023-.722,2.709,2.709,0,0,1,2.865,2.956,2.912,2.912,0,0,1-3.075,3.153,2.611,2.611,0,0,1-2.8-2.444Z"/><path d="M123.5,148.77h.486l-4.69,11.627h-.486Z"/><path d="M124.571,153.368c0-4.729,2.51-4.874,3.127-4.874s3.127.145,3.127,4.874-2.509,4.875-3.127,4.875S124.571,158.1,124.571,153.368Zm5.6,0c0-2.588-.893-4.322-2.47-4.322s-2.47,1.734-2.47,4.322.894,4.322,2.47,4.322S130.168,155.957,130.168,153.368Z"/><path d="M132.951,156.035a1.857,1.857,0,0,0,1.945,1.655c2.062,0,2.575-2.154,2.549-4.676h-.027a2.409,2.409,0,0,1-2.483,1.563,2.673,2.673,0,0,1-2.759-2.956,2.793,2.793,0,0,1,2.8-3.127c2.443,0,3.1,2.129,3.1,4.572,0,3.915-1.405,5.177-3.206,5.177a2.432,2.432,0,0,1-2.548-2.208Zm2.024-6.989c-1.314,0-2.142,1.064-2.142,2.6A2.127,2.127,0,0,0,135,154.025a2.205,2.205,0,0,0,2.22-2.457A2.252,2.252,0,0,0,134.975,149.046Z"/><path d="M139.44,153.368c0-4.729,2.509-4.874,3.127-4.874s3.127.145,3.127,4.874-2.51,4.875-3.127,4.875S139.44,158.1,139.44,153.368Zm5.6,0c0-2.588-.894-4.322-2.47-4.322s-2.47,1.734-2.47,4.322.893,4.322,2.47,4.322S145.037,155.957,145.037,153.368Z"/><path d="M147.82,156.035a1.855,1.855,0,0,0,1.944,1.655c2.063,0,2.576-2.154,2.549-4.676h-.026a2.409,2.409,0,0,1-2.483,1.563,2.672,2.672,0,0,1-2.759-2.956,2.793,2.793,0,0,1,2.8-3.127c2.444,0,3.1,2.129,3.1,4.572,0,3.915-1.406,5.177-3.206,5.177a2.432,2.432,0,0,1-2.548-2.208Zm2.023-6.989c-1.314,0-2.141,1.064-2.141,2.6a2.127,2.127,0,0,0,2.167,2.378,2.206,2.206,0,0,0,2.221-2.457A2.253,2.253,0,0,0,149.843,149.046Z"/><path d="M160.575,148.77v.579l-5.819,8.066h6.056v.552h-6.753v-.631l5.846-8.014h-5.518v-.552Z"/><path d="M169.034,148.77c2.194,0,2.68,1.235,2.68,2.287a1.984,1.984,0,0,1-1.55,2.048v.027a2.177,2.177,0,0,1,1.957,2.286c0,1.248-.644,2.549-3.179,2.549h-3.521v-9.2Zm-2.983,4.139h2.838c1.827,0,2.194-1.052,2.194-1.893,0-1.667-1.668-1.694-2.049-1.694h-2.983Zm0,4.506h2.9c.617,0,2.509-.013,2.509-2,0-1.524-1.051-1.957-2.561-1.957h-2.852Z"/><path d="M179.936,152.909v.552H174.9v3.954h5.624v.552h-6.254v-9.2h6.1v.552H174.9v3.587Z"/><path d="M189.6,155.05a3.476,3.476,0,0,1-3.77,3.193c-3.849,0-4.125-3.85-4.125-4.717,0-3.009,1.366-5.032,4.164-5.032s3.561,1.734,3.626,2.93h-.656c-.066-1.208-.973-2.378-2.97-2.378-2.26,0-3.508,1.721-3.508,4.454,0,2.47,1.288,4.19,3.482,4.19a2.894,2.894,0,0,0,3.1-2.64Z"/><path d="M192.1,149.638h-.027l.027.354v7.975h-.631v-9.2h.959l3.376,8.369,3.377-8.369h.959v9.2h-.63v-7.975l.026-.354h-.026l-3.39,8.329h-.631Z"/><path d="M210.133,153.355v4.612h-.63v-1.8h-.027a3.42,3.42,0,0,1-3.349,2.062c-2.536,0-4.086-1.918-4.086-4.886s1.34-4.9,4.375-4.9c2.654,0,3.428,1.735,3.547,2.878h-.657a2.617,2.617,0,0,0-2.89-2.325c-3.1,0-3.719,2.456-3.719,4.309,0,1.339.447,4.375,3.5,4.375,2.759,0,3.324-2.457,3.324-3.771h-3.153v-.552Z"/><path d="M214.649,153.368c0-4.729,2.51-4.874,3.127-4.874s3.127.145,3.127,4.874-2.509,4.875-3.127,4.875S214.649,158.1,214.649,153.368Zm5.6,0c0-2.588-.893-4.322-2.47-4.322s-2.47,1.734-2.47,4.322.894,4.322,2.47,4.322S220.246,155.957,220.246,153.368Z"/><path d="M222.61,150.886a2.61,2.61,0,0,1,5.2,0,2.058,2.058,0,0,1-1.524,2.036,2.423,2.423,0,0,1,1.905,2.51,2.988,2.988,0,0,1-5.965,0,2.423,2.423,0,0,1,1.905-2.51A2.057,2.057,0,0,1,222.61,150.886Zm4.926,4.546a2.329,2.329,0,0,0-4.651,0,2.327,2.327,0,0,0,4.651,0Zm-.367-4.56a1.964,1.964,0,1,0-1.958,1.8A1.8,1.8,0,0,0,227.169,150.872Z"/><path d="M229.244,150.412h.223a1.831,1.831,0,0,0,2.1-1.642h.381v9.2h-.657v-7.2h-2.049Z"/><path d="M234.458,150.886a2.61,2.61,0,0,1,5.2,0,2.057,2.057,0,0,1-1.525,2.036,2.423,2.423,0,0,1,1.906,2.51,2.988,2.988,0,0,1-5.965,0,2.423,2.423,0,0,1,1.905-2.51A2.057,2.057,0,0,1,234.458,150.886Zm4.925,4.546a2.328,2.328,0,0,0-4.65,0,2.326,2.326,0,0,0,4.65,0Zm-.367-4.56a1.964,1.964,0,1,0-1.958,1.8A1.8,1.8,0,0,0,239.016,150.872Z"/><path d="M245.466,148.77h.486L241.261,160.4h-.486Z"/><path d="M246.541,153.368c0-4.729,2.509-4.874,3.127-4.874s3.127.145,3.127,4.874-2.509,4.875-3.127,4.875S246.541,158.1,246.541,153.368Zm5.6,0c0-2.588-.892-4.322-2.469-4.322s-2.47,1.734-2.47,4.322.894,4.322,2.47,4.322S252.137,155.957,252.137,153.368Z"/><path d="M254.5,150.886a2.61,2.61,0,0,1,5.2,0,2.057,2.057,0,0,1-1.525,2.036,2.423,2.423,0,0,1,1.906,2.51,2.988,2.988,0,0,1-5.965,0,2.423,2.423,0,0,1,1.9-2.51A2.057,2.057,0,0,1,254.5,150.886Zm4.925,4.546a2.328,2.328,0,0,0-4.65,0,2.326,2.326,0,0,0,4.65,0Zm-.367-4.56a1.964,1.964,0,1,0-1.958,1.8A1.8,1.8,0,0,0,259.06,150.872Z"/><path d="M267.467,157.967h-5.675c-.027-1.721.721-2.576,2.089-3.508.34-.236.7-.446,1.05-.67a3.025,3.025,0,0,0,1.813-2.6,2.124,2.124,0,1,0-4.243.132v.21h-.658v-.21a2.634,2.634,0,0,1,2.812-2.825,2.531,2.531,0,0,1,2.746,2.667c0,1.682-1.064,2.4-2.062,3.021-1.157.71-2.838,1.539-2.865,3.233h4.993Z"/><path d="M268.844,153.368c0-4.729,2.51-4.874,3.127-4.874s3.127.145,3.127,4.874-2.508,4.875-3.127,4.875S268.844,158.1,268.844,153.368Zm5.6,0c0-2.588-.892-4.322-2.47-4.322s-2.469,1.734-2.469,4.322.893,4.322,2.469,4.322S274.441,155.957,274.441,153.368Z"/><path d="M18.087,169.13c0-4.73,2.509-4.874,3.127-4.874s3.127.144,3.127,4.874-2.51,4.875-3.127,4.875S18.087,173.86,18.087,169.13Zm5.6,0c0-2.588-.894-4.323-2.47-4.323s-2.47,1.735-2.47,4.323.893,4.322,2.47,4.322S23.684,171.719,23.684,169.13Z"/><path d="M26.467,171.8a1.857,1.857,0,0,0,1.945,1.655c2.062,0,2.575-2.154,2.549-4.677h-.027a2.408,2.408,0,0,1-2.483,1.564,2.672,2.672,0,0,1-2.758-2.956,2.793,2.793,0,0,1,2.8-3.127c2.443,0,3.1,2.129,3.1,4.572,0,3.915-1.406,5.177-3.206,5.177a2.432,2.432,0,0,1-2.548-2.208Zm2.024-6.99c-1.314,0-2.142,1.065-2.142,2.6a2.127,2.127,0,0,0,2.168,2.378,2.205,2.205,0,0,0,2.22-2.457A2.253,2.253,0,0,0,28.491,164.807Z"/><path d="M32.956,169.13c0-4.73,2.509-4.874,3.126-4.874s3.127.144,3.127,4.874-2.509,4.875-3.127,4.875S32.956,173.86,32.956,169.13Zm5.6,0c0-2.588-.893-4.323-2.47-4.323s-2.47,1.735-2.47,4.323.894,4.322,2.47,4.322S38.552,171.719,38.552,169.13Z"/><path d="M40.522,166.174h.223a1.832,1.832,0,0,0,2.1-1.642h.381v9.2h-.657v-7.2H40.522Z"/><path d="M46.419,171.56a2.074,2.074,0,0,0,2.155,1.892,2.336,2.336,0,0,0,2.4-2.574,2.2,2.2,0,0,0-2.26-2.431,2.705,2.705,0,0,0-2.063.867h-.59l.683-4.782h4.4v.552H47.273l-.525,3.534a3.015,3.015,0,0,1,2.023-.723,2.709,2.709,0,0,1,2.864,2.956,2.912,2.912,0,0,1-3.074,3.154,2.611,2.611,0,0,1-2.8-2.445Z"/><path d="M61.118,169.117v4.611h-.63v-1.8h-.026a3.423,3.423,0,0,1-3.35,2.062c-2.536,0-4.086-1.918-4.086-4.887s1.339-4.9,4.375-4.9c2.653,0,3.428,1.734,3.547,2.878h-.657a2.619,2.619,0,0,0-2.89-2.325c-3.1,0-3.719,2.456-3.719,4.308,0,1.34.447,4.375,3.495,4.375,2.759,0,3.324-2.457,3.324-3.77H57.348v-.552Z"/><path d="M68.632,173.728H62.956c-.027-1.72.722-2.575,2.089-3.507.341-.237.7-.447,1.051-.67a3.025,3.025,0,0,0,1.813-2.6,2.125,2.125,0,1,0-4.244.132v.21h-.657v-.21a2.633,2.633,0,0,1,2.812-2.825,2.531,2.531,0,0,1,2.746,2.667c0,1.681-1.064,2.4-2.063,3.021-1.156.71-2.838,1.538-2.864,3.233h4.993Z"/><path d="M70.942,171.56a2.072,2.072,0,0,0,2.154,1.892,2.337,2.337,0,0,0,2.405-2.574,2.2,2.2,0,0,0-2.26-2.431,2.705,2.705,0,0,0-2.063.867h-.591l.683-4.782h4.4v.552H71.8l-.526,3.534a3.016,3.016,0,0,1,2.023-.723,2.709,2.709,0,0,1,2.864,2.956,2.912,2.912,0,0,1-3.074,3.154,2.61,2.61,0,0,1-2.8-2.445Z"/><path d="M83.946,164.532h.841l-3.849,3.744,4.125,5.452h-.814L80.478,168.7l-1.786,1.748v3.284h-.631v-9.2h.631v5.124Z"/><path d="M85.416,165.084v-.552H92.3v.552H89.174v8.644h-.631v-8.644Z"/><path d="M100.259,164.532c2.194,0,2.68,1.234,2.68,2.286a1.983,1.983,0,0,1-1.55,2.049v.026a2.178,2.178,0,0,1,1.958,2.287c0,1.248-.644,2.548-3.18,2.548H96.646v-9.2Zm-2.982,4.139h2.838c1.826,0,2.194-1.052,2.194-1.893,0-1.668-1.669-1.694-2.05-1.694H97.277Zm0,4.506h2.9c.618,0,2.51-.013,2.51-2,0-1.524-1.051-1.957-2.562-1.957H97.277Z"/><path d="M111.162,168.671v.552H106.13v3.954h5.623v.551H105.5v-9.2h6.1v.552H106.13v3.587Z"/><path d="M120.829,170.811a3.477,3.477,0,0,1-3.77,3.194c-3.849,0-4.125-3.85-4.125-4.717,0-3.009,1.366-5.032,4.164-5.032s3.561,1.734,3.626,2.929h-.656c-.066-1.208-.973-2.378-2.97-2.378-2.259,0-3.507,1.722-3.507,4.455,0,2.469,1.287,4.19,3.481,4.19a2.9,2.9,0,0,0,3.1-2.641Z"/><path d="M123.324,165.4H123.3l.026.355v7.974h-.631v-9.2h.96l3.376,8.368,3.376-8.368h.959v9.2h-.63v-7.974l.026-.355h-.026l-3.39,8.329h-.63Z"/><path d="M141.359,169.117v4.611h-.63v-1.8H140.7a3.421,3.421,0,0,1-3.35,2.062c-2.535,0-4.086-1.918-4.086-4.887s1.34-4.9,4.375-4.9c2.654,0,3.429,1.734,3.547,2.878h-.657a2.617,2.617,0,0,0-2.89-2.325c-3.1,0-3.718,2.456-3.718,4.308,0,1.34.447,4.375,3.5,4.375,2.759,0,3.324-2.457,3.324-3.77h-3.153v-.552Z"/><path d="M145.876,169.13c0-4.73,2.509-4.874,3.126-4.874s3.127.144,3.127,4.874-2.509,4.875-3.127,4.875S145.876,173.86,145.876,169.13Zm5.6,0c0-2.588-.893-4.323-2.47-4.323s-2.47,1.735-2.47,4.323.894,4.322,2.47,4.322S151.472,171.719,151.472,169.13Z"/><path d="M154.256,171.8a1.855,1.855,0,0,0,1.944,1.655c2.063,0,2.576-2.154,2.549-4.677h-.026a2.409,2.409,0,0,1-2.483,1.564,2.672,2.672,0,0,1-2.759-2.956,2.793,2.793,0,0,1,2.8-3.127c2.444,0,3.1,2.129,3.1,4.572,0,3.915-1.406,5.177-3.206,5.177a2.432,2.432,0,0,1-2.548-2.208Zm2.023-6.99c-1.313,0-2.141,1.065-2.141,2.6a2.127,2.127,0,0,0,2.167,2.378,2.206,2.206,0,0,0,2.221-2.457A2.254,2.254,0,0,0,156.279,164.807Z"/><path d="M160.744,169.13c0-4.73,2.51-4.874,3.127-4.874S167,164.4,167,169.13s-2.51,4.875-3.127,4.875S160.744,173.86,160.744,169.13Zm5.6,0c0-2.588-.894-4.323-2.47-4.323s-2.47,1.735-2.47,4.323.894,4.322,2.47,4.322S166.341,171.719,166.341,169.13Z"/><path d="M168.139,171.442v-.551l4.152-6.359h.683v6.359h1.5v.551h-1.5v2.286h-.631v-2.286Zm4.2-.551v-5.453l-3.521,5.453Z"/><path d="M179.712,164.532h.486l-4.69,11.627h-.486Z"/><path d="M180.788,169.13c0-4.73,2.51-4.874,3.127-4.874s3.127.144,3.127,4.874-2.51,4.875-3.127,4.875S180.788,173.86,180.788,169.13Zm5.6,0c0-2.588-.894-4.323-2.47-4.323s-2.47,1.735-2.47,4.323.894,4.322,2.47,4.322S186.385,171.719,186.385,169.13Z"/><path d="M189.168,171.8a1.856,1.856,0,0,0,1.944,1.655c2.063,0,2.576-2.154,2.549-4.677h-.026a2.409,2.409,0,0,1-2.483,1.564,2.673,2.673,0,0,1-2.759-2.956,2.793,2.793,0,0,1,2.8-3.127c2.443,0,3.1,2.129,3.1,4.572,0,3.915-1.406,5.177-3.206,5.177a2.432,2.432,0,0,1-2.548-2.208Zm2.024-6.99c-1.314,0-2.142,1.065-2.142,2.6a2.127,2.127,0,0,0,2.167,2.378,2.206,2.206,0,0,0,2.221-2.457A2.254,2.254,0,0,0,191.192,164.807Z"/><path d="M195.657,169.13c0-4.73,2.509-4.874,3.126-4.874s3.127.144,3.127,4.874-2.509,4.875-3.127,4.875S195.657,173.86,195.657,169.13Zm5.6,0c0-2.588-.894-4.323-2.471-4.323s-2.469,1.735-2.469,4.323.893,4.322,2.469,4.322S201.254,171.719,201.254,169.13Z"/><path d="M208.4,166.463a1.856,1.856,0,0,0-1.943-1.656c-2.064,0-2.576,2.156-2.55,4.678h.027a2.409,2.409,0,0,1,2.483-1.563,2.672,2.672,0,0,1,2.759,2.956,2.794,2.794,0,0,1-2.8,3.127c-2.443,0-3.1-2.129-3.1-4.573,0-3.915,1.405-5.176,3.2-5.176a2.432,2.432,0,0,1,2.549,2.207Zm-2.023,6.989c1.314,0,2.142-1.063,2.142-2.6a2.127,2.127,0,0,0-2.168-2.377,2.2,2.2,0,0,0-2.22,2.456A2.252,2.252,0,0,0,206.375,173.452Z"/><path d="M213.586,169.13c0-4.73,2.509-4.874,3.127-4.874s3.127.144,3.127,4.874-2.509,4.875-3.127,4.875S213.586,173.86,213.586,169.13Zm5.6,0c0-2.588-.892-4.323-2.469-4.323s-2.47,1.735-2.47,4.323.893,4.322,2.47,4.322S219.182,171.719,219.182,169.13Z"/><path d="M227.076,173.728H221.4c-.026-1.72.722-2.575,2.089-3.507.341-.237.7-.447,1.051-.67a3.024,3.024,0,0,0,1.812-2.6,2.124,2.124,0,1,0-4.243.132v.21h-.657v-.21a2.633,2.633,0,0,1,2.811-2.825,2.531,2.531,0,0,1,2.746,2.667c0,1.681-1.064,2.4-2.062,3.021-1.156.71-2.838,1.538-2.864,3.233h4.992Z"/><path d="M228.454,169.13c0-4.73,2.51-4.874,3.127-4.874s3.127.144,3.127,4.874-2.509,4.875-3.127,4.875S228.454,173.86,228.454,169.13Zm5.6,0c0-2.588-.892-4.323-2.469-4.323s-2.47,1.735-2.47,4.323.894,4.322,2.47,4.322S234.05,171.719,234.05,169.13Z"/><path d="M236.021,166.174h.223a1.832,1.832,0,0,0,2.1-1.642h.381v9.2h-.657v-7.2h-2.049Z"/><path d="M241.919,171.56a2.072,2.072,0,0,0,2.154,1.892,2.337,2.337,0,0,0,2.4-2.574,2.2,2.2,0,0,0-2.26-2.431,2.7,2.7,0,0,0-2.062.867h-.592l.684-4.782h4.4v.552h-3.876l-.525,3.534a3.015,3.015,0,0,1,2.023-.723,2.708,2.708,0,0,1,2.863,2.956,2.912,2.912,0,0,1-3.074,3.154,2.612,2.612,0,0,1-2.8-2.445Z"/><path d="M254.923,164.532h.84l-3.849,3.744,4.125,5.452h-.815l-3.77-5.032-1.787,1.748v3.284h-.63v-9.2h.63v5.124Z"/><path d="M256.392,165.084v-.552h6.884v.552h-3.127v8.644h-.63v-8.644Z"/><path d="M22.318,180.294c2.193,0,2.679,1.234,2.679,2.286a1.983,1.983,0,0,1-1.55,2.049v.026a2.177,2.177,0,0,1,1.958,2.286c0,1.248-.644,2.549-3.18,2.549H18.7v-9.2Zm-2.983,4.138h2.838c1.826,0,2.194-1.051,2.194-1.892,0-1.668-1.669-1.694-2.049-1.694H19.335Zm0,4.506h2.9c.618,0,2.51-.012,2.51-2,0-1.523-1.051-1.957-2.562-1.957H19.335Z"/><path d="M33.22,184.432v.552H28.188v3.954h5.623v.552H27.557v-9.2h6.1v.552H28.188v3.586Z"/><path d="M42.887,186.573a3.476,3.476,0,0,1-3.77,3.193c-3.849,0-4.125-3.849-4.125-4.716,0-3.009,1.366-5.033,4.164-5.033s3.561,1.735,3.626,2.93h-.656c-.066-1.208-.972-2.378-2.97-2.378-2.259,0-3.507,1.722-3.507,4.454,0,2.47,1.287,4.191,3.481,4.191a2.9,2.9,0,0,0,3.1-2.641Z"/><path d="M45.382,181.161h-.027l.027.355v7.974h-.631v-9.2h.959l3.376,8.368,3.377-8.368h.959v9.2h-.631v-7.974l.027-.355h-.027L49.4,189.49h-.631Z"/><path d="M63.417,184.879v4.611h-.63v-1.8H62.76a3.42,3.42,0,0,1-3.35,2.063c-2.535,0-4.086-1.918-4.086-4.887s1.34-4.9,4.375-4.9c2.654,0,3.429,1.734,3.548,2.878H62.59a2.619,2.619,0,0,0-2.891-2.326c-3.1,0-3.718,2.457-3.718,4.309,0,1.34.447,4.375,3.495,4.375,2.759,0,3.324-2.457,3.324-3.77H59.647v-.552Z"/><path d="M67.934,184.891c0-4.729,2.509-4.874,3.126-4.874s3.127.145,3.127,4.874-2.509,4.875-3.127,4.875S67.934,189.622,67.934,184.891Zm5.6,0c0-2.587-.893-4.322-2.47-4.322s-2.469,1.735-2.469,4.322.893,4.323,2.469,4.323S73.53,187.48,73.53,184.891Z"/><path d="M76.314,187.558a1.856,1.856,0,0,0,1.944,1.656c2.063,0,2.575-2.155,2.549-4.677H80.78A2.407,2.407,0,0,1,78.3,186.1a2.672,2.672,0,0,1-2.759-2.956,2.793,2.793,0,0,1,2.8-3.127c2.443,0,3.1,2.129,3.1,4.573,0,3.915-1.405,5.176-3.2,5.176a2.432,2.432,0,0,1-2.549-2.208Zm2.023-6.989c-1.314,0-2.141,1.065-2.141,2.6a2.127,2.127,0,0,0,2.167,2.378,2.206,2.206,0,0,0,2.221-2.457A2.254,2.254,0,0,0,78.337,180.569Z"/><path d="M82.671,181.935h.223c1.682,0,2.037-1.063,2.1-1.641h.382v9.2H84.72v-7.2H82.671Z"/><path d="M93.075,182.224a1.857,1.857,0,0,0-1.944-1.655c-2.063,0-2.576,2.155-2.549,4.678h.026a2.41,2.41,0,0,1,2.483-1.564,2.672,2.672,0,0,1,2.759,2.957,2.792,2.792,0,0,1-2.8,3.126c-2.443,0-3.1-2.128-3.1-4.572,0-3.915,1.406-5.177,3.206-5.177a2.432,2.432,0,0,1,2.548,2.207Zm-2.024,6.99c1.314,0,2.142-1.064,2.142-2.6a2.127,2.127,0,0,0-2.167-2.378,2.205,2.205,0,0,0-2.221,2.456A2.253,2.253,0,0,0,91.051,189.214Z"/><path d="M99.3,180.294h.486L95.1,191.921h-.486Z"/><path d="M100.377,184.891c0-4.729,2.509-4.874,3.127-4.874s3.127.145,3.127,4.874-2.51,4.875-3.127,4.875S100.377,189.622,100.377,184.891Zm5.6,0c0-2.587-.894-4.322-2.47-4.322s-2.47,1.735-2.47,4.322.893,4.323,2.47,4.323S105.974,187.48,105.974,184.891Z"/><path d="M108.757,187.558a1.856,1.856,0,0,0,1.944,1.656c2.063,0,2.576-2.155,2.549-4.677h-.026a2.409,2.409,0,0,1-2.483,1.563,2.672,2.672,0,0,1-2.759-2.956,2.793,2.793,0,0,1,2.8-3.127c2.444,0,3.1,2.129,3.1,4.573,0,3.915-1.406,5.176-3.206,5.176a2.431,2.431,0,0,1-2.548-2.208Zm2.023-6.989c-1.313,0-2.141,1.065-2.141,2.6a2.127,2.127,0,0,0,2.167,2.378,2.206,2.206,0,0,0,2.221-2.457A2.254,2.254,0,0,0,110.78,180.569Z"/><path d="M115.114,181.935h.224a1.831,1.831,0,0,0,2.1-1.641h.381v9.2h-.657v-7.2h-2.05Z"/><path d="M120.329,182.409a2.61,2.61,0,0,1,5.2,0,2.056,2.056,0,0,1-1.523,2.036,2.424,2.424,0,0,1,1.9,2.51,2.987,2.987,0,0,1-5.964,0,2.423,2.423,0,0,1,1.905-2.51A2.056,2.056,0,0,1,120.329,182.409Zm4.927,4.546a2.329,2.329,0,0,0-4.651,0,2.326,2.326,0,0,0,4.651,0Zm-.369-4.56a1.964,1.964,0,1,0-1.957,1.8A1.8,1.8,0,0,0,124.887,182.4Z"/><path d="M130.3,184.891c0-4.729,2.509-4.874,3.127-4.874s3.126.145,3.126,4.874-2.509,4.875-3.126,4.875S130.3,189.622,130.3,184.891Zm5.6,0c0-2.587-.894-4.322-2.47-4.322s-2.47,1.735-2.47,4.322.893,4.323,2.47,4.323S135.9,187.48,135.9,184.891Z"/><path d="M138.678,187.558a1.858,1.858,0,0,0,1.945,1.656c2.062,0,2.575-2.155,2.549-4.677h-.027a2.409,2.409,0,0,1-2.483,1.563,2.672,2.672,0,0,1-2.758-2.956,2.793,2.793,0,0,1,2.8-3.127c2.443,0,3.1,2.129,3.1,4.573,0,3.915-1.406,5.176-3.206,5.176a2.431,2.431,0,0,1-2.548-2.208Zm2.024-6.989c-1.314,0-2.142,1.065-2.142,2.6a2.128,2.128,0,0,0,2.168,2.378,2.205,2.205,0,0,0,2.22-2.457A2.253,2.253,0,0,0,140.7,180.569Z"/><path d="M145.167,184.891c0-4.729,2.509-4.874,3.126-4.874s3.127.145,3.127,4.874-2.509,4.875-3.127,4.875S145.167,189.622,145.167,184.891Zm5.6,0c0-2.587-.893-4.322-2.47-4.322s-2.47,1.735-2.47,4.322.894,4.323,2.47,4.323S150.763,187.48,150.763,184.891Z"/><path d="M152.733,181.935h.223a1.831,1.831,0,0,0,2.1-1.641h.381v9.2h-.657v-7.2h-2.049Z"/><path d="M158.63,187.322a2.075,2.075,0,0,0,2.155,1.892,2.337,2.337,0,0,0,2.4-2.574,2.2,2.2,0,0,0-2.26-2.431,2.7,2.7,0,0,0-2.063.867h-.59l.683-4.782h4.4v.552h-3.876l-.525,3.534a3.015,3.015,0,0,1,2.023-.723,2.709,2.709,0,0,1,2.864,2.956,2.911,2.911,0,0,1-3.074,3.153,2.611,2.611,0,0,1-2.8-2.444Z"/><path d="M171.635,180.294h.841l-3.849,3.744,4.125,5.452h-.815l-3.77-5.032-1.787,1.748v3.284h-.631v-9.2h.631v5.124Z"/><path d="M173.1,180.846v-.552h6.884v.552h-3.126v8.644h-.631v-8.644Z"/><path d="M190.352,183.447v.394h-6.569v-.394Zm0,2.627v.395h-6.569v-.395Z"/></g></g></svg>